<?xml version="1.0" encoding="UTF-8"?>
<svg width="100px" height="21px" viewBox="0 0 100 21" version="1.1" xmlns="http://www.w3.org/2000/svg" xmlns:xlink="http://www.w3.org/1999/xlink">
    <title>icon/第三方/afterpay</title>
    <g id="icon/第三方/afterpay" stroke="none" stroke-width="1" fill="none" fill-rule="evenodd">
        <g id="Group-12">
            <rect id="Rectangle" fill="#B2FCE4" x="0" y="0" width="100" height="21" rx="10.5"></rect>
            <path d="M78.0073562,6.61700849 C78.0073562,5.07994379 79.7042785,4.12025455 81.0615805,4.88823335 L81.0615805,4.88823335 L85.686254,7.50452579 C87.0438509,8.27247466 87.0438509,10.1940973 85.686254,10.959802 L85.686254,10.959802 L81.0615805,13.5760944 C79.7042785,14.3451804 78.0073562,13.384384 78.0073562,11.8473193 L78.0073562,11.8473193 L78.0073562,11.492085 C78.0073562,11.1582748 77.6391393,10.9496584 77.3446249,11.1165635 L77.3446249,11.1165635 L73.3390509,13.383247 C73.0445364,13.550152 73.0445364,13.9674147 73.3390509,14.1343198 L73.3390509,14.1343198 L77.3446249,16.4010033 C77.6391393,16.5679084 78.0073562,16.359292 78.0073562,16.0254818 L78.0073562,16.0254818 L78.0073562,15.3578615 C78.0073562,15.0680667 78.3272243,14.8864998 78.5837083,15.0319807 L78.5837083,15.0319807 L79.4569335,15.5270407 C79.670965,15.6488233 79.8030396,15.8721015 79.8030396,16.1145597 L79.8030396,16.1145597 L79.8030396,16.3829603 C79.8030396,17.9200549 78.1052329,18.8796544 76.747636,18.1118551 L76.747636,18.1118551 L72.1232573,15.495443 C70.7656605,14.7274941 70.7656605,12.8058715 72.1232573,12.0378927 L72.1232573,12.0378927 L76.747636,9.42163019 C78.1064121,8.65251435 79.8030396,9.61334062 79.8030396,11.1504053 L79.8030396,11.1504053 L79.8030396,11.5056097 C79.8030396,11.8394199 80.1712564,12.0480363 80.4657709,11.8811611 L80.4657709,11.8811611 L84.4713449,9.61444774 C84.7658594,9.4486797 84.7658594,9.03141701 84.4713449,8.86454185 L84.4713449,8.86454185 L80.4657709,6.59782847 C80.1712564,6.43092339 79.8030396,6.6395697 79.8030396,6.97334993 L79.8030396,6.97334993 L79.8030396,7.64097024 C79.8030396,7.93079502 79.4834663,8.11236189 79.2266874,7.96688098 L79.2266874,7.96688098 L78.3537571,7.47292813 C78.1397255,7.35228251 78.0073562,7.12786729 78.0073562,6.88540909 L78.0073562,6.88540909 Z M49.8574437,7.37074919 C51.9937181,7.37074919 53.6704452,8.93877543 53.6704452,11.0139828 C53.6704452,13.0902517 51.9620466,14.6723377 49.8102469,14.6723377 C48.8129049,14.6723377 47.9903771,14.3187226 47.4209109,13.7261218 L47.4209109,17.4644734 L45.4119435,17.4644734 L45.4119435,7.49725753 L47.3578784,7.49725753 L47.3578784,8.41538269 C47.9431803,7.76545291 48.8129049,7.37074919 49.8574437,7.37074919 Z M65.1778553,7.37074919 L67.0726123,11.5076728 L69.0166959,7.37074919 L71.1050597,7.37074919 L66.2269698,17.4644734 L64.1697434,17.4644734 L66.0851559,13.5624319 L62.8465581,7.37074919 L65.1778553,7.37074919 Z M17.15647,7.37074919 C18.1692472,7.37074919 19.023349,7.7687331 19.6084698,8.39288752 L19.6084698,7.49795747 L21.55405,7.49795747 L21.55405,14.5985687 L19.607259,14.5985687 L19.607259,13.6753637 C19.0221072,14.314752 18.1510853,14.7116395 17.1080075,14.7116395 C14.940698,14.7116395 13.2955483,13.1490752 13.2955483,11.0482775 C13.2955483,8.9604921 15.003721,7.37074919 17.15647,7.37074919 Z M26.6223057,4.61791532 L26.6223057,6.04650706 L26.2176939,6.04650706 C25.5733017,6.04650706 25.3392643,6.28213748 25.3392643,6.901161 L25.3392643,6.901161 L25.3392643,7.34878701 L27.7146712,7.34878701 L27.7146712,5.55262855 L29.5591149,5.55262855 L29.5591149,7.34878701 L30.7155176,7.34878701 L30.7155176,8.95443066 L29.5591149,8.95443066 L29.5591149,12.2231596 C29.5591149,12.8410463 29.7339967,13.0767066 30.3637437,13.0767066 L30.3637437,13.0767066 L30.7301629,13.0767066 L30.7301629,14.7116395 L29.7787941,14.7116395 C28.2861242,14.7116395 27.7158198,14.0632968 27.7158198,12.5614072 L27.7158198,12.5614072 L27.7158198,8.95329379 L25.3401258,8.95329379 L25.3401258,14.7105027 L23.4959693,14.7105027 L23.4959693,8.95329379 L22.4716613,8.95329379 L22.4716613,7.34768006 L23.4959693,7.34768006 L23.4959693,6.64973411 C23.4959693,5.11852526 24.2130137,4.61791532 25.7346869,4.61791532 L25.7346869,4.61791532 L26.6223057,4.61791532 Z M34.883862,7.37074919 C37.2641209,7.37074919 38.9886645,8.93308022 38.9886645,11.0629311 C38.9886645,11.2195161 38.9726791,11.3749761 38.9410217,11.5173969 L32.8217441,11.5173969 C32.9662396,12.5676533 33.8125261,13.1645401 34.8826082,13.1645401 C35.7292081,13.1645401 36.3846099,12.8090216 36.7673194,12.2414729 L38.828497,12.2414729 C38.3489347,13.7461952 36.8309476,14.7116395 34.8349654,14.7116395 C32.4230491,14.7116395 30.7301629,13.2069461 30.7301629,11.0629311 C30.7301629,8.91894487 32.5195885,7.37074919 34.883862,7.37074919 Z M57.5306434,7.37074919 C58.5438212,7.37074919 59.3980205,7.7687331 59.9830119,8.39288752 L59.9830119,7.49795747 L61.9289468,7.49795747 L61.9289468,14.5985687 L59.9830119,14.5985687 L59.9830119,13.6753637 C59.3980205,14.314752 58.5267434,14.7116395 57.4834466,14.7116395 C55.3158112,14.7116395 53.6704452,13.1490752 53.6704452,11.0482775 C53.6704452,8.9604921 55.3788437,7.37074919 57.5306434,7.37074919 Z M43.6250662,7.37074919 C44.0088405,7.37074919 44.2941747,7.45660248 44.4212664,7.50343155 L44.4859802,7.5292851 C44.4915093,7.53172412 44.4943323,7.53306557 44.4943323,7.53306557 L44.4943323,9.37271963 C44.4943323,9.37271963 43.749563,8.96083448 43.0654623,9.04366271 C42.3810456,9.12646165 41.9481505,9.68961746 41.9506784,10.4427186 L41.9506784,14.7116395 L39.9062758,14.7116395 L39.9062758,7.50104178 L41.886534,7.50104178 L41.886534,8.20664927 C41.886534,8.20664927 42.3908411,7.37074919 43.6250662,7.37074919 Z M17.4387387,9.01704194 C16.2527259,9.01704194 15.2872005,9.8695596 15.2872005,11.0482775 C15.2872005,12.212858 16.2527259,13.0794842 17.4387387,13.0794842 C18.6259624,13.0783879 19.590308,12.2411329 19.590308,11.0482775 C19.590308,9.85542214 18.6247516,9.01704194 17.4387387,9.01704194 Z M57.814445,9.01704194 C56.6280053,9.01704194 55.6623348,9.8695596 55.6623348,11.0482775 C55.6623348,12.212858 56.6280053,13.0794842 57.814445,13.0794842 C59.0018161,13.0783879 59.9662446,12.2411329 59.9662446,11.0482775 C59.9662446,9.85542214 59.0018161,9.01704194 57.814445,9.01704194 Z M49.5267559,9.00798344 C48.3406268,9.00798344 47.3749562,9.85581025 47.3749562,11.0280424 C47.3749562,12.1862149 48.3406268,13.0480727 49.5267559,13.0480727 C50.712885,13.0469824 51.6785556,12.1721553 51.6785556,11.0280424 C51.6785556,9.8839009 50.712885,9.00798344 49.5267559,9.00798344 Z M34.8509508,8.93308022 C33.8601688,8.93308022 33.0455398,9.47235818 32.8389832,10.4095318 L36.8309476,10.4095318 C36.6880192,9.48646468 35.8404791,8.93308022 34.8509508,8.93308022 Z" id="Combined-Shape-Copy" fill="#000000" fill-rule="nonzero"></path>
        </g>
    </g>
</svg>