<?xml version="1.0" encoding="UTF-8"?>
<svg width="30px" height="30px" viewBox="0 0 30 30" version="1.1" xmlns="http://www.w3.org/2000/svg" xmlns:xlink="http://www.w3.org/1999/xlink">
    <title>通用/topbar/web/ic/用户 / black</title>
    <g id="通用/topbar/web/ic/用户-/-black" stroke="none" stroke-width="1" fill="none" fill-rule="evenodd">
        <g id="购物车" fill="#D8D8D8" opacity="0">
            <rect id="Rectangle" x="0" y="0" width="30" height="30"></rect>
        </g>
        <path d="M8.20856395,17.1012819 C8.20856395,17.1012819 8.98735204,15.5449197 8.98735204,12.1858952 C8.92586877,8.88844581 9.16975241,6.22100697 11.5716988,4.66676809 C13.9736453,3.10828265 14.8753999,3.42040439 15.5353203,3.42040439 C16.1931913,3.42040439 17.1564292,3.6709511 17.4576972,4.10622291 C17.4576972,4.10622291 18.7181043,3.85779949 19.4989418,4.41622138 C20.2797794,5.03834159 21.7820206,5.03834159 21.7820206,12.1221969 C21.7820206,12.1221969 21.7820206,16.0438898 22.5608087,17.0397068 C22.5608087,17.0397068 22.140673,18.657644 18.1750021,18.657644 C18.1750021,18.657644 17.8778329,19.653461 18.8390214,20.4008546 C19.8596437,21.1503714 23.4625633,22.4561869 24.3048841,23.1398821 C25.0836722,23.8257006 26.3481781,23.825895 26.3481781,26.3164991 L4.00105882,26.3164991 C4.00105882,26.3164991 3.88014172,24.5730942 6.22265432,23.1420054 C6.82314093,22.7683086 10.729378,21.2735215 11.6905665,20.4029779 C12.5308379,19.5281877 12.3525364,18.657644 12.3525364,18.657644 C12.3525364,18.657644 9.04883531,18.657644 8.20856395,17.1012819 Z" id="路径" stroke="#333333" stroke-width="1.4" fill-rule="nonzero"></path>
    </g>
</svg>