<?xml version="1.0" encoding="UTF-8"?>
<svg width="30px" height="30px" viewBox="0 0 30 30" version="1.1" xmlns="http://www.w3.org/2000/svg" xmlns:xlink="http://www.w3.org/1999/xlink">
    <title>通用/topbar/web/ic/购物袋 / black</title>
    <defs>
        <filter id="filter-1">
            <feColorMatrix in="SourceGraphic" type="matrix" values="0 0 0 0 0.200000 0 0 0 0 0.200000 0 0 0 0 0.200000 0 0 0 1.000000 0"></feColorMatrix>
        </filter>
    </defs>
    <g id="通用/topbar/web/ic/购物袋-/-black" stroke="none" stroke-width="1" fill="none" fill-rule="evenodd">
        <rect id="Rectangle" fill="#E9E9E9" opacity="0" x="0" y="0" width="30" height="30"></rect>
        <g filter="url(#filter-1)" id="Group-2" opacity="0">
            <g>
                <rect id="Rectangle" fill="#E9E9E9" x="0" y="0" width="30" height="30"></rect>
            </g>
        </g>
        <g id="Group" transform="translate(2.568848, 3.670000)">
            <path d="M20.6590875,6.28561719 C21.0025185,6.28561719 21.3186606,6.41437006 21.5587649,6.62841727 C21.7988692,6.84246447 21.9629357,7.14180601 22.0022153,7.48298334 L22.0022153,7.48298334 L23.5743716,21.1385112 C23.6170726,21.5094057 23.5053963,21.8624957 23.2903212,22.1335372 C23.0824015,22.3955614 22.7778485,22.5809058 22.4227199,22.6315276 L22.4227199,22.6315276 L2.79168816,22.6451451 C2.41834367,22.6451451 2.08034367,22.4938173 1.83567979,22.2491534 C1.59820709,22.0116807 1.44866446,21.686278 1.44007888,21.3259721 L1.44007888,21.3259721 L2.83729619,7.5006407 C2.87243443,7.15560008 3.03528265,6.8518442 3.27605261,6.63434848 C3.51682257,6.41685275 3.83551427,6.28561719 4.18233948,6.28561719 L4.18233948,6.28561719 Z" id="矩形" stroke="#333333" stroke-width="1.456"></path>
            <path d="M17.7890625,6.39488462e-14 L17.7890625,5.70349609 C17.7890625,8.24886453 15.5103979,10.4055859 12.6212655,10.4055859 C9.73213316,10.4055859 7.34284347,8.24886453 7.34284347,5.70349609 L7.31850781,6.39488462e-14" id="矩形" stroke="#333333" stroke-width="1.456" stroke-linecap="round" transform="translate(12.553785, 5.202793) rotate(-180.000000) translate(-12.553785, -5.202793) "></path>
            <circle id="椭圆形" fill="#333333" cx="7.31850781" cy="10.8358223" r="1.25"></circle>
            <circle id="椭圆形备份" fill="#333333" cx="17.7890625" cy="10.8358223" r="1.25"></circle>
        </g>
    </g>
</svg>