<?xml version="1.0" encoding="UTF-8"?>
<svg width="30px" height="30px" viewBox="0 0 30 30" version="1.1" xmlns="http://www.w3.org/2000/svg" xmlns:xlink="http://www.w3.org/1999/xlink">
    <title>通用/topbar/web/ic/购物袋 / black</title>
    <defs>
        <filter id="filter-1">
            <feColorMatrix in="SourceGraphic" type="matrix" values="0 0 0 0 0.200000 0 0 0 0 0.200000 0 0 0 0 0.200000 0 0 0 1.000000 0"></feColorMatrix>
        </filter>
        <filter id="filter-2">
            <feColorMatrix in="SourceGraphic" type="matrix" values="0 0 0 0 0.200000 0 0 0 0 0.200000 0 0 0 0 0.200000 0 0 0 1.000000 0"></feColorMatrix>
        </filter>
    </defs>
    <g id="通用/topbar/web/ic/购物袋-/-black" stroke="none" stroke-width="1" fill="none" fill-rule="evenodd">
        <g filter="url(#filter-1)" id="Group-2" opacity="0">
            <g>
                <rect id="Rectangle" fill="#333333" x="0" y="0" width="30" height="30"></rect>
            </g>
        </g>
        <g id="topbar/ic/购物袋" filter="url(#filter-2)">
            <g id="购物车" transform="translate(3.000000, 2.000000)" stroke="#FFFFFF" stroke-width="1.4">
                <path d="M20.6884578,7.29848485 C21.0207066,7.29848485 21.3262137,7.42376576 21.557485,7.63163858 C21.7887563,7.83951139 21.9457918,8.12997612 21.9810974,8.46034375 L21.9810974,8.46034375 L23.6059684,23.6648892 C23.644115,24.0218418 23.5339667,24.3604636 23.3250436,24.619384 C23.1225782,24.8703012 22.8273498,25.0463679 22.4844272,25.09173 L22.4844272,25.09173 L2.64646541,25.1030303 C2.28748032,25.1030303 1.96248032,24.9575228 1.72722659,24.7222691 C1.49840166,24.4934442 1.35448502,24.179711 1.34679025,23.8323831 L1.34679025,23.8323831 L2.78951526,8.47614172 C2.8210692,8.1423422 2.97698299,7.84792798 3.20883018,7.63696364 C3.44067738,7.4259993 3.74845799,7.29848485 4.08374559,7.29848485 L4.08374559,7.29848485 Z" id="矩形"></path>
                <path d="M16.8067025,0.124306902 L16.8067025,2.23993541 C16.8067025,4.93974061 14.8261843,7.12836516 12.3830914,7.12836516 C9.93999843,7.12836516 7.95948028,4.93974061 7.95948028,2.23993541 L7.95948028,0.124306902" id="矩形" stroke-linecap="round" transform="translate(12.383091, 3.626336) rotate(-180.000000) translate(-12.383091, -3.626336) "></path>
            </g>
        </g>
    </g>
</svg>