<?xml version="1.0" encoding="UTF-8"?>
<svg width="12px" height="12px" viewBox="0 0 12 12" version="1.1" xmlns="http://www.w3.org/2000/svg" xmlns:xlink="http://www.w3.org/1999/xlink">
    <title>商详/星级/单颗无星</title>
    <g id="商详/星级/单颗无星" stroke="none" stroke-width="1" fill="none" fill-rule="evenodd">
        <path d="M5.77874375,0.447887649 C6.03984204,0.279697259 6.10927004,0.26259246 6.15709215,0.29756301 C6.20821975,0.334950737 6.24947689,0.388328896 6.27505185,0.447866627 L6.27505185,0.447866627 L7.80254494,4.01889053 L11.5330502,4.43233779 C11.5755524,4.43704479 11.6114795,4.45351511 11.6400768,4.47991746 C11.6811956,4.51788025 11.7083811,4.57169824 11.727415,4.63288236 C11.7483606,4.69975384 11.7567863,4.77006267 11.7443339,4.83508612 C11.7360253,4.87847146 11.7176766,4.91942152 11.6845491,4.9508101 L11.6845491,4.9508101 L8.905584,7.56758677 L9.68003059,11.3869812 C9.69966658,11.4819359 9.67438869,11.5792745 9.61398175,11.6520798 C9.5490098,11.7022657 9.48587121,11.733672 9.42431981,11.7426202 C9.37242354,11.7501648 9.32386891,11.7389096 9.28015491,11.7122609 L9.28015491,11.7122609 L6.02688501,9.75233808 L2.86032383,11.660499 C2.6424543,11.6066538 2.50127592,11.5504751 2.41609514,11.4853472 C2.39523509,11.4693979 2.37863359,11.4553798 2.37187535,11.4379581 C2.36518332,11.420707 2.37066527,11.4032261 2.37430415,11.3856625 L2.37430415,11.3856625 L3.14785629,7.5672474 L0.370155136,4.95134931 C0.321524274,4.90526764 0.283100689,4.84647211 0.263399857,4.7826131 C0.248426512,4.73407794 0.244262762,4.68207363 0.259407411,4.63312539 C0.275909137,4.580629 0.311094574,4.53678438 0.353493948,4.50320773 C0.40204652,4.46475829 0.461096967,4.43897029 0.521103728,4.43233557 L0.521103728,4.43233557 L4.25160242,4.01888903 Z" id="路径" stroke="#FFAB00" stroke-width="0.5" fill-rule="nonzero"></path>
    </g>
</svg>