<?xml version="1.0" standalone="no"?><!DOCTYPE svg PUBLIC "-//W3C//DTD SVG 1.1//EN" "http://www.w3.org/Graphics/SVG/1.1/DTD/svg11.dtd"><svg t="1606984010520" class="icon" viewBox="0 0 1024 1024" version="1.1" xmlns="http://www.w3.org/2000/svg" p-id="20032" xmlns:xlink="http://www.w3.org/1999/xlink" width="200" height="200"><defs><style type="text/css"></style></defs><path d="M512 512m-512 0a512 512 0 1 0 1024 0 512 512 0 1 0-1024 0Z" fill="#FFFFFF" opacity=".9" p-id="20033"></path><path d="M743.7568 243.84l-34.1248-12.3904-4.8384 26.1888a1498.5984 1498.5984 0 0 0-19.9168 182.016l-0.512 11.1872-5.9392 4.6336c-66.6624 53.6064-109.6704 125.568-134.2464 201.1648l-1.4336 4.5312-7.3984 0.128c-8.448 0.128-16.64 0.2048-24.4992 0.256h-16.8448l-1.3568-4.4288c-24.576-75.776-67.584-147.8912-134.4256-201.6256l-5.9648-4.6592 0.1536 3.584c-2.4064-62.9248-9.5232-139.1104-23.7312-214.1184l-1.664-8.8576-34.1504 12.3904 4.7104 33.5616 4.096 31.2832 4.1216 33.4592 3.584 31.6928 2.048 20.8384 1.5104 17.92 0.3584 5.2992 0.512 9.5488 0.256 8.0896-0.0256 4.6592 1.1008-1.8176c-33.3824 55.2192-54.0672 111.2832-64.4608 166.0928-6.4256 33.8432-8.2944 63.1808-7.3728 86.528l0.6656 10.6752 0.256 2.4832 0.5888 4.864 4.6592 1.5104c52.0448 16.8192 107.6992 21.0432 163.712 15.9232a490.0608 490.0608 0 0 0 72.9088-12.288l8.4224-2.2528 3.5072-1.024c12.6208 0.512 27.648 0.512 42.6752 0.256l3.9168 1.3568 5.6064 1.5872 7.0144 1.7408 8.192 1.8432a489.984 489.984 0 0 0 57.088 8.704c56.32 5.248 112.3072 1.0752 164.6336-15.872l4.6592-1.4848 0.7424-5.9136 0.4096-5.3248c1.6128-24.32 0.0768-56.064-6.9888-93.312l-2.3808-11.776a500.4032 500.4032 0 0 0-55.1168-142.4896l-5.9136-10.0352v-4.6336l0.256-8.0896 0.512-9.5488 0.8192-10.9312 1.6896-18.944 2.2528-21.76 1.4336-12.8256 2.5344-21.4016 5.0432-39.936 5.7856-42.0608 0.8704-6.1952z m-22.3488 8.192l5.376 1.9968-4.8896 36.0448-3.84 29.7728-3.7888 31.8464-3.0464 28.0064-1.3312 13.8752-1.1008 12.5696-0.7936 11.2384-0.5376 9.856-0.256 8.3968c-0.0256 2.56 0 4.8896 0.0512 6.9632l1.1264 3.712c32.384 53.6064 52.4288 107.9552 62.4896 161.024l1.7408 9.6512c4.7872 28.544 6.144 53.3504 5.376 73.3184l-0.4096 7.0656 4.864-1.4592c-50.176 16.2048-104.1152 20.224-158.5152 15.1552-34.304-3.2-62.464-9.216-81.1008-14.9248l-38.0416-0.1792-8.9088-0.1024-16.2048 4.096a473.6512 473.6512 0 0 1-67.8912 11.2128l-11.5712 0.9216c-46.3104 3.0976-92.0832-0.5632-135.2704-12.928l-5.9136-1.792-0.0256-0.5888c-1.536-23.0656-0.0512-53.5808 6.7584-89.4464 10.0864-53.0688 30.1312-107.4176 62.5152-161.024l1.1008-3.712 0.0512-6.9632-0.0768-4.0192-0.6912-14.2336-0.8192-11.2384-1.0752-12.544-2.944-29.0048-2.7648-24.2432-2.7392-22.528-4.1728-32.3584-4.3008-31.4368 5.3504-1.9456-1.5872-8.9088c12.9536 68.4288 19.968 137.984 22.8352 197.248l0.768 18.2272 2.8928 2.2016c71.936 54.3744 116.8128 130.7648 140.928 210.6112l1.6384 5.4528h28.2624l24.6528-0.256 18.56-0.3328 1.6384-5.3504c24.1152-79.6672 69.0176-155.8784 140.7488-210.1504l2.9184-2.176 0.128-3.6352a1488.64 1488.64 0 0 1 20.352-194.7136l1.4848-8.2432z" fill="#333333" p-id="20034"></path></svg>