<?xml version="1.0" standalone="no"?><!DOCTYPE svg PUBLIC "-//W3C//DTD SVG 1.1//EN" "http://www.w3.org/Graphics/SVG/1.1/DTD/svg11.dtd"><svg t="1608254958864" class="icon" viewBox="0 0 1024 1024" version="1.1" xmlns="http://www.w3.org/2000/svg" p-id="13709" xmlns:xlink="http://www.w3.org/1999/xlink" width="200" height="200"><defs><style type="text/css"></style></defs><path d="M542.72 0a30.72 30.72 0 0 1 30.72 30.72l-0.1024 419.84H993.28a30.72 30.72 0 0 1 30.72 30.72v61.44a30.72 30.72 0 0 1-30.72 30.72H573.3376L573.44 993.28a30.72 30.72 0 0 1-30.72 30.72h-61.44a30.72 30.72 0 0 1-30.72-30.72l-0.1024-419.84H30.72a30.72 30.72 0 0 1-30.72-30.72v-61.44a30.72 30.72 0 0 1 30.72-30.72l419.7376-0.1024L450.56 30.72a30.72 30.72 0 0 1 30.72-30.72h61.44z" fill="#D8D8D8" p-id="13710"></path></svg>