<?xml version="1.0" encoding="UTF-8"?>
<svg width="24px" height="24px" viewBox="0 0 24 24" version="1.1" xmlns="http://www.w3.org/2000/svg" xmlns:xlink="http://www.w3.org/1999/xlink">
    <title>通用/topbar/web/ic/用户 / black</title>
    <g id="通用/topbar/web/ic/用户-/-black" stroke="none" stroke-width="1" fill="none" fill-rule="evenodd">
        <g id="购物车" fill="#D8D8D8" opacity="0">
            <rect id="Rectangle" x="0" y="0" width="24" height="24"></rect>
        </g>
        <path d="M5.62649546,13.9665462 C5.62649546,13.9665462 6.35855626,12.5035658 6.35855626,9.34608276 C6.30076199,6.2464803 6.53001261,3.73908779 8.78784225,2.27810324 C11.0456719,0.813126926 11.8933212,1.10652136 12.5136465,1.10652136 C13.1320452,1.10652136 14.0374888,1.34203527 14.3206808,1.75119078 C14.3206808,1.75119078 15.5054634,1.51767275 16.2394507,2.04258933 C16.9734379,2.62738233 18.3855447,2.62738233 18.3855447,9.28620635 C18.3855447,9.28620635 18.3855447,12.9725977 19.1176055,13.9086657 C19.1176055,13.9086657 18.722678,15.4295266 14.9949473,15.4295266 C14.9949473,15.4295266 14.7156083,16.3655946 15.6191254,17.0681445 C16.5785104,17.7726904 19.9652549,19.0001569 20.7570364,19.6428304 C21.4890972,20.2874998 22.6777328,20.2876825 22.6777328,22.6288504 L1.67144063,22.6288504 C1.67144063,22.6288504 1.55777856,20.9900498 3.7597404,19.6448263 C4.32419781,19.2935513 7.9960607,17.8884514 8.89957785,17.0701404 C9.68943293,16.2478376 9.52182953,15.4295266 9.52182953,15.4295266 C9.52182953,15.4295266 6.41635054,15.4295266 5.62649546,13.9665462 Z" id="路径" stroke="#333333" stroke-width="1.4" fill-rule="nonzero"></path>
    </g>
</svg>