<?xml version="1.0" encoding="UTF-8"?>
<svg width="12px" height="12px" viewBox="0 0 12 12" version="1.1" xmlns="http://www.w3.org/2000/svg" xmlns:xlink="http://www.w3.org/1999/xlink">
    <title>商详/星级/单颗满星</title>
    <g id="商详/星级/单颗满星" stroke="none" stroke-width="1" fill="none" fill-rule="evenodd">
        <path d="M9.15115568,11.9264176 L6.02690108,10.0442106 L2.90231721,11.9270761 L2.90231723,11.9270761 C2.72444443,12.0344902 2.4989356,12.0220138 2.33399757,11.8956336 L2.33399759,11.8956337 C2.1650012,11.7631233 2.08568385,11.5463018 2.12928152,11.3360247 L2.87522231,7.65390498 L0.198198677,5.13281825 C0.0449970822,4.98764738 -0.0426427815,4.76353614 0.0209127012,4.5581569 C0.0854716607,4.35277766 0.287845964,4.20660251 0.49356515,4.18385695 L4.07909209,3.78647745 L5.54889789,0.349547011 C5.63319252,0.152530075 5.82051397,0 6.02690229,0 C6.23329062,0 6.42027738,0.152530075 6.5049067,0.349547011 L7.97504178,3.78647745 L11.5605687,4.18385695 C11.7659527,4.20660263 11.9020954,4.35277648 11.965986,4.5581569 C12.0302105,4.76320217 12.0088023,4.98798253 11.8559347,5.13281825 L9.17824077,7.65423426 L9.9248507,11.336354 L9.92485072,11.3363541 C9.96831244,11.5465242 9.88900886,11.7631786 9.72013466,11.895629 L9.72013468,11.895629 C9.55508611,12.0225642 9.32892342,12.0347954 9.15114588,11.9264026 L9.15115568,11.9264176 Z" id="路径" fill="#FFAB00"></path>
    </g>
</svg>