<?xml version="1.0" encoding="UTF-8"?>
<svg width="30px" height="30px" viewBox="0 0 30 30" version="1.1" xmlns="http://www.w3.org/2000/svg" xmlns:xlink="http://www.w3.org/1999/xlink">
    <title>通用/topbar/web/ic/用户 / black</title>
    <defs>
        <filter id="filter-1">
            <feColorMatrix in="SourceGraphic" type="matrix" values="0 0 0 0 0.200000 0 0 0 0 0.200000 0 0 0 0 0.200000 0 0 0 1.000000 0"></feColorMatrix>
        </filter>
    </defs>
    <g id="通用/topbar/web/ic/用户-/-black" stroke="none" stroke-width="1" fill="none" fill-rule="evenodd">
        <g id="购物车" transform="translate(1.000000, 1.000000)" fill="#333333" opacity="0">
            <rect id="Rectangle" x="0" y="0" width="28" height="28"></rect>
        </g>
        <g id="编组">
            <g id="购物车" transform="translate(1.000000, 1.000000)" fill="#333333" opacity="0">
                <rect id="Rectangle" x="0" y="0" width="28" height="28"></rect>
            </g>
            <g id="Group-2-Copy" fill="#333333" opacity="0">
                <rect id="Rectangle" x="0" y="0" width="30" height="30"></rect>
            </g>
            <g filter="url(#filter-1)" id="女">
                <g transform="translate(4.000000, 3.000000)">
                    <path d="M4.20856395,14.1012819 C4.20856395,14.1012819 4.98735204,12.5449197 4.98735204,9.18589524 C4.92586877,5.88844581 5.16975241,3.22100697 7.57169884,1.66676809 C9.97364526,0.108282648 10.8753999,0.420404391 11.5353203,0.420404391 C12.1931913,0.420404391 13.1564292,0.670951096 13.4576972,1.10622291 C13.4576972,1.10622291 14.7181043,0.857799486 15.4989418,1.41622138 C16.2797794,2.03834159 17.7820206,2.03834159 17.7820206,9.12219693 C17.7820206,9.12219693 17.7820206,13.0438898 18.5608087,14.0397068 C18.5608087,14.0397068 18.140673,15.657644 14.1750021,15.657644 C14.1750021,15.657644 13.8778329,16.653461 14.8390214,17.4008546 C15.8596437,18.1503714 19.4625633,19.4561869 20.3048841,20.1398821 C21.0836722,20.8257006 22.3481781,20.825895 22.3481781,23.3164991 L0.00105881859,23.3164991 C0.00105881859,23.3164991 -0.11985828,21.5730942 2.22265432,20.1420054 C2.82314093,19.7683086 6.72937803,18.2735215 7.69056649,17.4029779 C8.53083785,16.5281877 8.35253637,15.657644 8.35253637,15.657644 C8.35253637,15.657644 5.04883531,15.657644 4.20856395,14.1012819 Z" id="路径" stroke="#FFFFFF" stroke-width="1.4" fill-rule="nonzero"></path>
                </g>
            </g>
        </g>
    </g>
</svg>