<?xml version="1.0" standalone="no"?><!DOCTYPE svg PUBLIC "-//W3C//DTD SVG 1.1//EN" "http://www.w3.org/Graphics/SVG/1.1/DTD/svg11.dtd"><svg t="1606983998486" class="icon" viewBox="0 0 1024 1024" version="1.1" xmlns="http://www.w3.org/2000/svg" p-id="19899" xmlns:xlink="http://www.w3.org/1999/xlink" width="200" height="200"><defs><style type="text/css"></style></defs><path d="M512 512m-512 0a512 512 0 1 0 1024 0 512 512 0 1 0-1024 0Z" fill="#FFFFFF" opacity=".9" p-id="19900"></path><path d="M186.8032 351.5136a10.1376 10.1376 0 0 0-12.0832 7.7312l-14.848 67.328a10.1376 10.1376 0 0 0 4.7104 10.88l9.088 5.4784c7.424 4.5056 14.6944 8.96 21.7856 13.3376l20.8384 12.9536 19.8656 12.6208 18.944 12.288 18.048 11.9808 17.152 11.6736 8.2176 5.7344 15.872 11.2896 7.5776 5.5808 14.592 10.9312c87.3728 66.9184 128.256 122.368 142.8992 189.3376l1.536 7.7056 2.3296 12.928c0.8448 4.864 5.0432 8.3968 9.984 8.4224h40.6016c4.9664 0 9.216-3.6096 10.0096-8.4992l2.6368-15.4368c20.9664-113.152 124.6208-215.9872 311.808-307.968a10.624 10.624 0 0 0 5.7088-11.6992l-13.7216-66.7136c-0.1536-0.6912-0.1536-0.6912-0.384-1.3312a10.1376 10.1376 0 0 0-12.8768-6.2208c-133.12 46.976-241.5616 70.4-325.2224 70.4-80.5632 0-183.7056-21.7088-309.2736-65.2544l-14.592-5.12c-0.5888-0.2048-0.5888-0.2048-1.2032-0.3584z m-11.136 74.6752l12.7744-57.9072-5.5808-1.9456c133.7088 47.488 243.328 71.2704 329.0112 71.2704l9.6256-0.0768c80.9984-1.6384 182.8864-23.6544 305.8176-65.9968l9.1648-3.2256 11.8016 57.3696 3.328-1.6384c-187.2128 91.9808-293.7088 195.712-318.72 311.68l-1.8688 9.6256-1.536 8.9856h-31.7952l-2.048-11.1616c-11.8528-60.672-42.7008-111.488-104.8832-167.1168l-12.032-10.496a787.9168 787.9168 0 0 0-26.3424-21.4272l-14.336-10.9568c-4.9152-3.6864-9.984-7.424-15.1552-11.1616l-16-11.3664-16.8192-11.6224-17.664-11.904-18.5856-12.16-9.6256-6.1952-30.208-19.0976-21.3504-13.1584-16.9728-10.3168z" fill="#333333" p-id="19901"></path></svg>