<?xml version="1.0" standalone="no"?><!DOCTYPE svg PUBLIC "-//W3C//DTD SVG 1.1//EN" "http://www.w3.org/Graphics/SVG/1.1/DTD/svg11.dtd"><svg t="1603094200671" class="icon" viewBox="0 0 1621 1024" version="1.1" xmlns="http://www.w3.org/2000/svg" p-id="8583" xmlns:xlink="http://www.w3.org/1999/xlink" width="31.66015625" height="20"><defs><style type="text/css"></style></defs><path d="M170.666667 0h1280c93.866667 0 170.666667 76.8 170.666666 170.666667v682.666666c0 93.866667-76.8 170.666667-170.666666 170.666667H170.666667c-93.866667 0-170.666667-76.8-170.666667-170.666667V170.666667c0-93.866667 76.8-170.666667 170.666667-170.666667z" fill="#3390DD" p-id="8584"></path><path d="M388.266667 512h72.533333l-38.4-89.6-34.133333 89.6zM1408 341.333333h-187.733333l-46.933334 51.2-42.666666-51.2h-396.8l-38.4 81.066667-34.133334-81.066667h-162.133333v34.133334l-17.066667-34.133334H345.6L213.333333 657.066667h162.133334l17.066666-51.2h46.933334l17.066666 51.2h179.2v-34.133334l12.8 34.133334h89.6l12.8-38.4v38.4h366.933334l46.933333-51.2 42.666667 51.2h187.733333l-119.466667-157.866667L1408 341.333333z m-554.666667 268.8h-51.2v-174.933333L725.333333 610.133333h-46.933333l-76.8-174.933333v174.933333h-106.666667l-17.066666-51.2H366.933333l-17.066666 51.2H290.133333L388.266667 384h76.8l85.333333 209.066667V388.266667h85.333333l68.266667 153.6L768 388.266667h85.333333v226.133333-4.266667z m452.266667 0H1237.333333l-59.733333-76.8-68.266667 76.8h-204.8V388.266667h209.066667l64 72.533333 68.266667-72.533333h64l-102.4 110.933333 98.133333 110.933333z m-349.866667-179.2v38.4h115.2v46.933334h-115.2v46.933333h128l59.733334-68.266667-55.466667-64h-132.266667z" fill="#FFFFFF" p-id="8585"></path></svg>