<?xml version="1.0" encoding="UTF-8"?>
<svg width="30px" height="30px" viewBox="0 0 30 30" version="1.1" xmlns="http://www.w3.org/2000/svg" xmlns:xlink="http://www.w3.org/1999/xlink">
    <title>通用/footer/ic/youtube</title>
    <g id="通用/footer/ic/youtube" stroke="none" stroke-width="1" fill="none" fill-rule="evenodd">
        <path d="M26.4522363,8.96692667 C27,11.0817771 27,15.5 27,15.5 C27,15.5 27,19.918219 26.4522363,22.0330734 C26.1472953,23.2023038 25.2550597,24.1230742 24.1256506,24.4343856 C22.0757705,25 15,25 15,25 C15,25 7.92705925,25 5.87434957,24.4343856 L5.87434945,24.4343856 C4.74104524,24.1200828 3.85480352,23.205381 3.5477637,22.0330733 C3,19.9182229 3,15.5 3,15.5 C3,15.5 3,11.081781 3.5477637,8.96692664 C3.85270468,7.79769618 4.74494028,6.87692584 5.87434945,6.56561435 C7.92705527,6 15,6 15,6 C15,6 22.0757588,6 24.1256504,6.56561435 L24.1256506,6.56561441 C25.2589548,6.8799172 26.1451966,7.79461901 26.4522364,8.9669267 L26.4522363,8.96692667 Z M12.600007,19.6566147 L19.79999,15.5 L12.600007,11.3433854 L12.600007,19.6566147 L12.600007,19.6566147 Z" id="youtube" fill="#333333" fill-rule="nonzero"></path>
    </g>
</svg>