<?xml version="1.0" encoding="UTF-8"?>
<svg width="32px" height="32px" viewBox="0 0 32 32" version="1.1" xmlns="http://www.w3.org/2000/svg" xmlns:xlink="http://www.w3.org/1999/xlink">
    <title>关闭</title>
    <g id="wap" stroke="none" stroke-width="1" fill="none" fill-rule="evenodd">
        <g id="5.1-商详-查看大图" transform="translate(-327.000000, -16.000000)">
            <g id="关闭" transform="translate(327.000000, 16.000000)">
                <circle id="Oval" fill="#FFFFFF" opacity="0.704008557" cx="16" cy="16" r="16"></circle>
                <g id="Group" transform="translate(9.000000, 9.000000)">
                    <g id="Group-2" fill="#000000" opacity="0">
                        <rect id="Rectangle" x="0" y="0" width="14" height="14"></rect>
                    </g>
                    <path d="M7.4723113,-1.73534771 C7.61958723,-1.73534771 7.73897797,-1.61595698 7.73897797,-1.46868104 L7.7381607,6.25565229 L15.5393917,6.25646955 C15.6866677,6.25646955 15.8060584,6.37586029 15.8060584,6.52313622 L15.8060584,7.48980289 C15.8060584,7.63707882 15.6866677,7.75646955 15.5393917,7.75646955 L7.7381607,7.75565229 L7.73897797,15.5568833 C7.73897797,15.7041592 7.61958723,15.82355 7.4723113,15.82355 L6.50564463,15.82355 C6.3583687,15.82355 6.23897797,15.7041592 6.23897797,15.5568833 L6.2381607,7.75565229 L-1.48617263,7.75646955 C-1.63344857,7.75646955 -1.7528393,7.63707882 -1.7528393,7.48980289 L-1.7528393,6.52313622 C-1.7528393,6.37586029 -1.63344857,6.25646955 -1.48617263,6.25646955 L6.2381607,6.25565229 L6.23897797,-1.46868104 C6.23897797,-1.61595698 6.3583687,-1.73534771 6.50564463,-1.73534771 L7.4723113,-1.73534771 Z" id="Combined-Shape" fill="#333333" transform="translate(7.026610, 7.044101) rotate(-315.000000) translate(-7.026610, -7.044101) "></path>
                </g>
            </g>
        </g>
    </g>
</svg>