<?xml version="1.0" encoding="UTF-8"?>
<svg width="30px" height="30px" viewBox="0 0 30 30" version="1.1" xmlns="http://www.w3.org/2000/svg" xmlns:xlink="http://www.w3.org/1999/xlink">
    <title>通用/footer/ic/snapchat black</title>
    <g id="通用/footer/ic/snapchat-black" stroke="none" stroke-width="1" fill="none" fill-rule="evenodd">
        <path d="M15.2117353,5 L15.1567346,5 L14.778606,5.0042 C14.2900176,5.0042 13.3128388,5.07419991 12.2632541,5.54459918 L12.2632543,5.5445991 C11.6714129,5.80776144 11.1286973,6.17309368 10.6590704,6.62446642 C10.1053977,7.15833387 9.65393476,7.81633302 9.3184303,8.58073284 C8.8266333,9.69979878 8.9435103,11.5851266 9.03701068,13.0999358 L9.03746901,13.1022692 L9.06771942,13.5992697 C8.99576031,13.6328697 8.87888393,13.6683363 8.70654822,13.6683363 C8.42925365,13.6683363 8.09924992,13.5782697 7.72662005,13.4009371 L7.72662004,13.4009371 C7.60934948,13.3474985 7.48199551,13.3208957 7.35353294,13.3230037 C7.13123966,13.3230037 6.89748568,13.3892704 6.69444195,13.5101371 C6.43914829,13.6627371 6.27414643,13.8778708 6.22922814,14.1163376 C6.19989438,14.2740709 6.20126946,14.5858044 6.54227244,14.902205 C6.73019127,15.0762716 7.00565334,15.2368042 7.36178102,15.3796042 C7.45528201,15.4169374 7.56574121,15.4524042 7.68353465,15.4902042 C8.09053858,15.6218043 8.70746266,15.8206035 8.86788225,16.2042041 C8.94946653,16.3992706 8.91463285,16.6554702 8.76429766,16.965337 C8.76017261,16.973737 8.75604757,16.982137 8.7528392,16.9910037 C8.71525535,17.0796705 8.36462558,17.8860711 7.64549381,18.7363371 C7.2371142,19.219337 6.78702489,19.62347 6.30851949,19.9370692 L6.30851956,19.9370692 C5.7399399,20.3141996 5.10094239,20.5676104 4.43162337,20.6814021 L4.43162337,20.6814021 C4.17218252,20.7244117 3.98635803,20.9597054 4.00078562,21.2269344 C4.00536902,21.3039344 4.02278594,21.3809343 4.053953,21.4546674 L4.05441133,21.4560674 C4.15982923,21.7057336 4.40320738,21.9180673 4.79921185,22.1047335 C5.28321799,22.3329341 6.00693404,22.5247334 6.95066131,22.6750003 C6.99832856,22.7669335 7.04782912,22.9984002 7.08174615,23.1565995 C7.11795491,23.3245994 7.15508033,23.4982001 7.20870594,23.6820669 C7.26599816,23.8813335 7.41495826,24.1193344 7.7985876,24.1193344 C7.94388088,24.1193344 8.11071545,24.0857344 8.30459264,24.0479344 C8.58784516,23.9914678 8.97514232,23.9144677 9.45868922,23.9144677 C9.72681725,23.9144677 10.0045711,23.9382677 10.2841578,23.9854012 C10.8231632,24.0768678 11.2879198,24.4100686 11.8255495,24.796001 C12.6129742,25.360667 13.503527,26 14.8643271,26 C14.9019109,26 14.9390364,25.9986 14.9757033,25.9962667 L14.9757035,25.9962667 C15.0288358,25.9987508 15.0820171,26 15.1352052,26 C16.4969298,26 17.3874847,25.360667 18.1739828,24.796001 L18.1748995,24.7950676 C18.7129884,24.4096008 19.1768265,24.0764002 19.715834,23.9854009 C19.9954207,23.9387342 20.2731745,23.9144677 20.5413025,23.9144677 C21.0033077,23.9144677 21.3690612,23.974201 21.6958563,24.0390676 C21.9089831,24.0810676 22.0744442,24.1020676 22.2014041,24.1020676 L22.2270711,24.1020676 C22.507115,24.1020676 22.7129101,23.9457343 22.7917432,23.6727346 C22.8439937,23.4926014 22.8811192,23.3236671 22.9182446,23.1524023 C22.9503283,23.0040023 23.0012039,22.7660024 23.048871,22.6731349 C23.9930474,22.5224016 24.7167655,22.3310687 25.2007636,22.1028681 C25.5958516,21.9166681 25.8392293,21.7052689 25.9451049,21.4565358 C25.9767302,21.3818692 25.9955221,21.3048691 25.9991889,21.226469 L25.9991889,21.2264688 C26.0138586,20.9590655 25.8279755,20.7234964 25.5683512,20.6804689 C22.627201,20.1886015 21.3021305,17.1207442 21.2475864,16.9905402 L21.2475864,16.9905402 C21.2439352,16.9818339 21.2399601,16.9732721 21.2356696,16.9648736 C21.0853347,16.6550068 21.050501,16.3992744 21.1320851,16.2042062 C21.2925034,15.8201401 21.9089695,15.6213395 22.3164326,15.4902064 C22.4342257,15.4524064 22.5456024,15.416473 22.6381863,15.3791398 C23.0396915,15.2186065 23.3266098,15.044073 23.5159047,14.8457399 C23.7418659,14.6091393 23.7858657,14.3828069 23.7831163,14.2344063 C23.7762413,13.8760057 23.506279,13.5577389 23.0768169,13.4014058 C22.9315236,13.3407392 22.7660627,13.3085391 22.5978523,13.3085391 C22.4832676,13.3085391 22.3136833,13.3244057 22.1528065,13.400939 C21.8085947,13.5642722 21.5001327,13.6534066 21.2361297,13.6664721 L21.2361297,13.6664721 C21.1315284,13.663434 21.0284312,13.6403183 20.932252,13.5983388 L20.9583773,13.1652713 L20.9625024,13.1008713 C21.0564618,11.5851392 21.173339,9.69887209 20.6819992,8.5788792 C20.3446618,7.81121249 19.8918232,7.15181265 19.3358583,6.61654657 L19.3358583,6.61654657 C18.8642575,6.16482724 18.3195258,5.79949501 17.7257145,5.53667925 L17.7257144,5.53667921 C16.9317718,5.18722207 16.0766706,5.00468208 15.2117322,5" id="snapchat-black" fill="#333333" fill-rule="nonzero"></path>
    </g>
</svg>