<?xml version="1.0" standalone="no"?><!DOCTYPE svg PUBLIC "-//W3C//DTD SVG 1.1//EN" "http://www.w3.org/Graphics/SVG/1.1/DTD/svg11.dtd"><svg t="1608620813162" class="icon" viewBox="0 0 1024 1024" version="1.1" xmlns="http://www.w3.org/2000/svg" p-id="12228" xmlns:xlink="http://www.w3.org/1999/xlink" width="200" height="200"><defs><style type="text/css"></style></defs><path d="M251.8016 99.84L512 360.004267l260.232533-260.164267a12.8 12.8 0 0 1 18.090667 0l33.621333 33.621333a12.8 12.8 0 0 1 0 18.090667l-269.243733 269.243733-33.621333 33.621334a12.731733 12.731733 0 0 1-4.881067 3.072l-2.730667 0.580266h-2.833066a12.731733 12.731733 0 0 1-7.645867-3.652266L200.0896 151.552a12.8 12.8 0 0 1 0-18.090667l33.621333-33.621333a12.8 12.8 0 0 1 18.090667 0z" fill="#333333" p-id="12229"></path><path d="M251.8016 543.573333L512 803.7376l260.232533-260.164267a12.8 12.8 0 0 1 18.090667 0l33.621333 33.621334a12.8 12.8 0 0 1 0 18.090666l-269.243733 269.243734-33.621333 33.621333a12.731733 12.731733 0 0 1-4.881067 3.072l-2.730667 0.580267h-2.833066a12.731733 12.731733 0 0 1-7.645867-3.652267L200.0896 595.285333a12.8 12.8 0 0 1 0-18.090666l33.621333-33.621334a12.8 12.8 0 0 1 18.090667 0z" fill="#D8D8D8" p-id="12230"></path></svg>