<?xml version="1.0" standalone="no"?><!DOCTYPE svg PUBLIC "-//W3C//DTD SVG 1.1//EN" "http://www.w3.org/Graphics/SVG/1.1/DTD/svg11.dtd"><svg t="1603871452719" class="icon" viewBox="0 0 1024 1024" version="1.1" xmlns="http://www.w3.org/2000/svg" p-id="7038" xmlns:xlink="http://www.w3.org/1999/xlink" width="200" height="200"><defs><style type="text/css"></style></defs><path d="M0 512c0 282.760533 229.239467 512 512 512 282.760533 0 512-229.239467 512-512 0-282.760533-229.239467-512-512-512C229.239467 0 0 229.239467 0 512z" fill="#FFD684" p-id="7039"></path><path d="M102.4 512c0 226.2016 183.3984 409.6 409.6 409.6s409.6-183.3984 409.6-409.6S738.2016 102.4 512 102.4C285.934933 102.8096 102.8096 285.934933 102.4 512z" fill="#FBB11B" p-id="7040"></path><path d="M510.805333 102.4C284.5696 103.082667 101.717333 286.993067 102.4 513.194667c0.682667 225.28 183.125333 407.722667 408.3712 408.3712 224.392533 2.491733 408.302933-177.390933 410.794667-401.749334v-9.045333C920.917333 284.5696 737.006933 101.751467 510.805333 102.4z" fill="#FFAB00" p-id="7041"></path><path d="M563.575467 750.933333v-60.8256a192.853333 192.853333 0 0 0 38.673066-9.386666l7.0656-2.730667c23.210667-9.557333 41.233067-22.869333 54.0672-39.867733 12.868267-16.9984 19.285333-36.864 19.285334-59.665067 0-19.524267-4.027733-35.601067-12.0832-48.264533a89.429333 89.429333 0 0 0-32.494934-30.378667 214.596267 214.596267 0 0 0-44.578133-18.432c-16.110933-4.7104-32.221867-8.874667-48.3328-12.4928l14.370133 3.413333v-117.76l5.802667 0.8192c27.477333 4.676267 53.589333 15.735467 78.370133 33.211734l6.724267 4.949333 25.326933-50.9952a161.860267 161.860267 0 0 0-39.424-24.132267 242.4832 242.4832 0 0 0-48.878933-15.4624 259.754667 259.754667 0 0 0-21.0944-3.4816l-2.798933-0.273066V238.933333h-58.6752v60.416l-4.164267 0.546134c-13.312 1.979733-25.941333 5.2224-37.751467 9.693866l-6.9632 2.833067c-23.04 9.9328-41.1648 23.586133-54.3744 40.96a95.744 95.744 0 0 0-19.8656 59.665067c0 20.241067 4.027733 36.7616 12.0832 49.629866 8.055467 12.834133 18.909867 23.313067 32.529067 31.4368 13.585067 8.157867 28.4672 14.574933 44.578133 19.2512 16.110933 4.7104 32.221867 8.942933 48.298667 12.765867l-9.762133-2.389333v112.708266h-0.238934c-14.336-1.024-27.989333-3.345067-40.96-6.894933l-7.714133-2.286933a214.1184 214.1184 0 0 1-59.8016-30.9248L375.466667 646.826667c19.182933 14.813867 41.915733 26.146133 68.164266 33.8944 16.418133 4.881067 33.723733 8.192 51.848534 10.0352l9.4208 0.785066V750.933333h58.709333z m-54.0672-291.396266l-0.6144-0.170667-8.2944-2.6624c-13.653333-4.539733-24.4736-10.478933-32.529067-17.92-8.021333-7.406933-12.049067-17.237333-12.049067-29.559467 0-18.090667 7.0656-31.982933 21.265067-41.745066 7.748267-5.3248 16.964267-9.216 27.648-11.605334l4.573867-0.9216v104.584534z m50.039466 174.421333v-97.1776l4.334934 1.262933c11.6736 3.584 21.367467 8.055467 29.0816 13.482667l3.6864 2.798933a32.802133 32.802133 0 0 1 12.3904 26.8288c0 18.090667-7.099733 31.914667-21.2992 41.506134-7.099733 4.778667-15.701333 8.3968-25.873067 10.786133l-2.321067 0.477867z" fill="#FFFFFF" p-id="7042"></path></svg>