<?xml version="1.0" encoding="UTF-8"?>
<svg width="180px" height="49px" viewBox="0 0 180 49" version="1.1" xmlns="http://www.w3.org/2000/svg" xmlns:xlink="http://www.w3.org/1999/xlink">
    <title>通用/topbar/web/logo / black</title>
    <defs>
        <polygon id="path-1" points="0.737996424 0.0770143314 48.906868 0.0770143314 48.906868 37.0969516 0.737996424 37.0969516"></polygon>
        <polygon id="path-3" points="0.682199602 0.275010027 49.3065068 0.275010027 49.3065068 7.99150439 0.682199602 7.99150439"></polygon>
    </defs>
    <g id="通用/topbar/web/logo-/-black" stroke="none" stroke-width="1" fill="none" fill-rule="evenodd">
        <g id="Group-3" transform="translate(0.000000, 0.011655)">
            <g id="编组" transform="translate(0.000000, 0.973793)">
                <g transform="translate(5.007407, 0.000000)">
                    <mask id="mask-2" fill="white">
                        <use xlink:href="#path-1"></use>
                    </mask>
                    <g id="Clip-2"></g>
                    <path d="M25.3863616,0.0751291899 C25.4245133,0.0821984704 25.4602805,0.089267751 25.4984322,0.0916241779 C25.7154198,0.101049885 25.9324074,0.108119166 26.1446261,0.1199013 C26.4069189,0.134039861 26.6644427,0.152891276 26.9267354,0.174099118 C27.1461075,0.192950533 27.3678641,0.214158375 27.5896207,0.237722643 C27.8304532,0.265999765 28.0736701,0.294276888 28.3145025,0.329623291 C28.6864813,0.386177535 29.0560757,0.445088207 29.4232855,0.515781012 C30.2816982,0.673661612 31.1281884,0.883383602 31.9627563,1.1378777 C32.4992642,1.30282758 33.0310031,1.48662888 33.5579731,1.68928159 C33.6509678,1.72227156 33.741578,1.76704367 33.8226503,1.82831077 C33.9609501,1.93670641 34.0539448,2.07573559 34.0777896,2.25246761 C34.0920965,2.37264538 34.0754051,2.48339744 34.0205621,2.59179307 C33.9275674,2.78030722 33.7773452,2.90519785 33.57228,2.96410852 C33.4554405,2.99474207 33.3457544,2.98295993 33.2336839,2.94290068 C33.0023893,2.85571288 32.7734793,2.76852509 32.5398003,2.68369372 C31.6193912,2.35850682 30.6822907,2.09458701 29.7261144,1.88957787 C29.256372,1.78825152 28.7866295,1.6987073 28.312118,1.62801449 C27.9615996,1.57852953 27.6086966,1.53847027 27.2557936,1.49605459 C26.8742769,1.44892605 26.4879912,1.42300535 26.10409,1.39944108 C25.5938113,1.37352039 25.0811482,1.36173825 24.5684851,1.37116396 C24.234658,1.37823324 23.8960619,1.38530252 23.5574658,1.40179751 C23.1735646,1.42064893 22.7872789,1.4536389 22.4033777,1.49605459 C22.0075541,1.53611384 21.609346,1.58559881 21.2159069,1.6468659 C20.5458681,1.75290511 19.8805983,1.88957787 19.2248664,2.05688418 C18.0850852,2.34436825 16.9715333,2.70961442 15.891364,3.16911766 C14.1125423,3.9278871 12.4529445,4.88695284 10.9221086,6.05574056 C9.70602405,6.98652917 8.59485657,8.03042626 7.5886062,9.18036257 C6.01961865,10.9736034 4.7773048,12.9671405 3.84020433,15.1468354 C3.39430665,16.1789503 3.04378816,17.2416989 2.76480405,18.3280116 C2.60504392,18.9336133 2.4786665,19.5462843 2.37136492,20.1613117 C2.30698397,20.5265579 2.2569099,20.8894476 2.21398927,21.2546938 C2.1639152,21.7071278 2.12337905,22.1572053 2.09714977,22.6096392 C2.0709205,23.1374789 2.06138258,23.6676749 2.0709205,24.1955145 C2.07568946,24.5277707 2.08522737,24.8576705 2.10191873,25.1852138 C2.12099457,25.5669549 2.15437728,25.9463397 2.19252895,26.3280808 C2.2569099,26.9171875 2.34275117,27.5015814 2.45482171,28.0812624 C2.69565414,29.3372379 3.04855712,30.5649363 3.50399271,31.7643576 C3.76866994,32.4571471 4.06434541,33.1334416 4.39340359,33.797954 C4.41009494,33.8309439 4.42917078,33.8639339 4.44824662,33.9016367 C4.47209141,33.8969239 4.49593621,33.8945675 4.519781,33.8874982 C5.13259225,33.6966276 5.75255694,33.522252 6.37729058,33.3761536 C6.95671911,33.2347679 7.54330109,33.1122337 8.13226754,33.0132638 C8.50663083,32.9496403 8.87860964,32.8883732 9.25297293,32.8341754 C9.56057079,32.7917597 9.86816866,32.7587697 10.1757665,32.7234233 C10.4261369,32.6975026 10.6741227,32.6715819 10.9244931,32.6503741 C11.1319428,32.6315227 11.3441615,32.6150277 11.5563802,32.605602 C11.9522038,32.5820377 12.3480274,32.5631863 12.743851,32.5490477 C12.9894524,32.539622 13.2302848,32.5372656 13.4758862,32.5372656 C14.0457768,32.5301963 14.6156675,32.5372656 15.1879426,32.5655427 C15.5909196,32.5843941 15.9938966,32.6126713 16.3944892,32.6385919 C16.6806268,32.6574434 16.9643798,32.6810076 17.2457484,32.7092848 C17.5438084,32.7352054 17.8418683,32.7681954 18.1399282,32.8035418 C18.4522951,32.8365318 18.7670464,32.8742346 19.0794132,32.9142939 C19.4084714,32.9543531 19.7351451,33.0014817 20.0642033,33.0462538 C20.3670322,33.0910259 20.6674766,33.1334416 20.967921,33.1805701 C21.2635965,33.2206294 21.554503,33.2677579 21.847794,33.31253 C22.1720832,33.3643714 22.4987569,33.4162128 22.8254306,33.4680542 C23.1473353,33.5175392 23.4692401,33.571737 23.7911448,33.6212219 C24.1178185,33.6730633 24.4421077,33.7249047 24.7687814,33.7767461 C25.0954551,33.8285875 25.4221288,33.8827853 25.746418,33.9322703 C26.0659383,33.9864681 26.3854586,34.0359531 26.7049788,34.0877945 C27.0244991,34.1372794 27.3416349,34.1914772 27.6611551,34.2409622 C27.9806754,34.2928036 28.3001956,34.344645 28.6173314,34.39413 C28.9416207,34.4483278 29.2635254,34.4978127 29.5878146,34.5496541 C29.9144883,34.6014955 30.245931,34.6533369 30.5749891,34.7051783 C30.9112008,34.7570197 31.2474124,34.8088611 31.5860085,34.8607025 C31.8840684,34.9054746 32.1845129,34.9502467 32.4825728,34.9926624 C32.7925551,35.0397909 33.1073064,35.084563 33.4196733,35.1293351 C33.6915039,35.1693944 33.9657191,35.2047408 34.2375498,35.2400872 C34.4831511,35.2754336 34.7335215,35.3060672 34.9815074,35.3367007 C35.2366467,35.3696907 35.491786,35.3979678 35.7493098,35.4286013 C35.9686819,35.454522 36.1904385,35.4757299 36.4098106,35.5016506 C36.6434896,35.5252149 36.8747841,35.5487791 37.1060787,35.569987 C37.3111439,35.5888384 37.5138247,35.6076898 37.7188899,35.6265412 L38.3531615,35.6736697 C38.6130697,35.6925212 38.872978,35.7113726 39.1352708,35.7278676 C39.2759551,35.7372933 39.4190238,35.746719 39.5597081,35.7537883 C40.0652178,35.7702832 40.568343,35.7867782 41.0738526,35.8032732 C41.7939655,35.8268375 42.5140783,35.8150554 43.2318066,35.7938475 C43.5489424,35.7844218 43.8660782,35.7679268 44.1760606,35.7561447 C44.2189812,35.730224 44.2332881,35.6901647 44.2547484,35.6571748 C44.6982616,34.9478903 45.1012386,34.2150415 45.461295,33.4656978 C46.112258,32.1083959 46.6129987,30.6968962 46.9706706,29.2359116 C47.1042015,28.6797948 47.221041,28.1142524 47.3140357,27.5487099 C47.3784166,27.1763945 47.4284907,26.804079 47.4714113,26.4270507 C47.5167164,26.0288146 47.5500991,25.628222 47.5787129,25.2252731 C47.6216335,24.5324836 47.6264025,23.8373376 47.6073266,23.1445481 C47.5954042,22.7345299 47.5763284,22.3245116 47.5334078,21.9215626 C47.4976406,21.5657421 47.4642579,21.2146345 47.4189528,20.8635269 C47.3617252,20.3969544 47.2830374,19.9327383 47.1900427,19.4708787 C47.0183602,18.6131393 46.7989881,17.7695385 46.5271574,16.9377198 C46.3340146,16.3462566 46.1146424,15.7642192 45.8714255,15.1916075 C45.8332738,15.1020633 45.8046601,15.012519 45.7879687,14.9159055 C45.7212033,14.5247387 46.0001874,14.1948389 46.40078,14.1830568 C46.4961592,14.1807004 46.5867694,14.1948389 46.6749951,14.2278289 C46.8228329,14.2796703 46.92775,14.3762838 46.9921309,14.5223823 C47.15666,14.9159055 47.3164201,15.3117853 47.4666423,15.7123778 C47.7957005,16.5983943 48.0770691,17.5009058 48.2916723,18.4222687 C48.4085118,18.9265441 48.5134289,19.4355323 48.5945012,19.9492333 C48.6445752,20.2602817 48.6922648,20.57133 48.732801,20.8870912 C48.7709527,21.1792881 48.7971819,21.4738415 48.8257957,21.7683948 C48.847256,21.9969683 48.8663318,22.2255417 48.8782542,22.4564715 C48.8877922,22.6308471 48.8854077,22.8052227 48.8901766,22.9819547 C48.8925611,23.0337961 48.8997146,23.0856375 48.906868,23.1351224 L48.906868,24.5772557 C48.902099,24.6267406 48.8925611,24.6715127 48.8901766,24.7209977 C48.8854077,24.8906604 48.8877922,25.0626796 48.8806387,25.2370552 C48.8567939,25.6140835 48.8257957,25.9887554 48.7852595,26.3657837 C48.7423389,26.7852276 48.6851114,27.2046716 48.618346,27.6217592 C48.5205823,28.2509251 48.3918204,28.8753783 48.2439827,29.4904057 C47.8243143,31.2129537 47.216272,32.8648089 46.4222403,34.4506842 C46.0764908,35.1434737 45.6878206,35.8150554 45.287228,36.4772113 C45.2347695,36.5620427 45.172773,36.6445176 45.1107765,36.7222797 C45.0607025,36.7906161 44.9963215,36.8471703 44.9224027,36.8966553 C44.8222545,36.9649917 44.7125685,37.0097638 44.5933445,37.0168331 C44.3954327,37.0309716 44.1975209,37.0427537 43.9996091,37.0521795 C43.7492387,37.0639616 43.4988684,37.0710309 43.248498,37.082813 C43.2151153,37.0851694 43.1817326,37.0922387 43.1459654,37.0969516 L40.6851825,37.0969516 C40.6374929,37.0922387 40.5945723,37.082813 40.5492671,37.0804566 C40.0389885,37.0568923 39.5239409,37.0356845 39.0088933,37.0097638 C38.8896694,37.0050509 38.7728299,36.9956252 38.6536059,36.9861995 C38.4199269,36.9673481 38.1838634,36.9508531 37.9477999,36.9343581 C37.7570416,36.9178631 37.5662832,36.9013681 37.3755249,36.8825167 C37.1132321,36.8589525 36.8509393,36.8353882 36.5862621,36.8071111 C36.371659,36.7859032 36.1594403,36.762339 35.9448371,36.7387747 C35.6801599,36.7081411 35.4202516,36.6775076 35.1579589,36.646874 C34.9028195,36.6138841 34.6476802,36.5808941 34.3925409,36.5502605 C34.1612464,36.519627 33.9299519,36.4889934 33.6986574,36.4560035 C33.4268267,36.4206571 33.154996,36.3829542 32.8855498,36.3476078 C32.6184881,36.309905 32.3538109,36.2698457 32.0891337,36.2321429 C31.7886892,36.1873708 31.4858603,36.1449551 31.1830314,36.0978266 C30.882587,36.0554109 30.5845271,36.0082824 30.2864671,35.9611538 C29.9550245,35.9116689 29.6235818,35.8621839 29.2969081,35.8103425 C28.9654654,35.7585011 28.6364073,35.7066597 28.3097336,35.6548183 C27.9878288,35.6029769 27.6683086,35.553492 27.3487883,35.5016506 C27.0244991,35.4498092 26.7002099,35.3956114 26.3735362,35.34377 C26.0540159,35.2919286 25.7344956,35.2400872 25.4173599,35.1882458 C25.0978396,35.1387608 24.7783193,35.084563 24.4587991,35.0350781 C24.1345099,34.9808802 23.8078362,34.9313953 23.4811625,34.8795539 C23.1568732,34.8277125 22.837353,34.7782275 22.5130638,34.7263861 L21.5139668,34.5755748 C21.1252967,34.5143077 20.739011,34.4553971 20.3503408,34.3964864 C19.9902844,34.3470014 19.6326125,34.29516 19.2749405,34.2456751 C18.8934238,34.1938337 18.5119071,34.134923 18.1280058,34.0925073 C17.6630323,34.0383095 17.1956743,33.9888245 16.7283163,33.9487653 C16.3158014,33.9110625 15.9009019,33.8874982 15.4907715,33.8662903 C15.0567962,33.8450825 14.6204364,33.8309439 14.1864611,33.8238747 C13.3042037,33.8097361 12.4219463,33.8356568 11.5373043,33.8969239 C11.1343273,33.9228446 10.7337347,33.9534781 10.3331422,34.0006067 C9.97785472,34.0430224 9.62256726,34.0830816 9.26727981,34.1325666 C8.76415462,34.2032594 8.26579839,34.2928036 7.76744216,34.3917735 C6.88518473,34.5685055 6.01246521,34.7829404 5.15166809,35.0445038 C4.8702995,35.1293351 4.59369987,35.2188794 4.31710024,35.31078 C4.21933658,35.3414136 4.12157292,35.3555521 4.0190403,35.3343443 C3.80205266,35.2895722 3.64229253,35.1764637 3.53737543,34.9785238 C3.26554476,34.4601099 3.00802096,33.9322703 2.77195749,33.3997178 C2.20683583,32.1296037 1.76093815,30.817074 1.43187998,29.4691978 C1.30550256,28.9507839 1.19343202,28.4300136 1.10759076,27.9045304 C1.05990116,27.609977 1.01221157,27.3154237 0.9740599,27.0185139 C0.935908227,26.7451684 0.902525513,26.4718229 0.878680718,26.1984773 C0.847682483,25.8662212 0.823837688,25.533965 0.799992892,25.2017088 C0.788070494,24.9919868 0.783301535,24.7822648 0.773763617,24.5725428 C0.771379137,24.4971372 0.766610178,24.4240879 0.737996424,24.3510387 L0.737996424,23.3613394 C0.771379137,23.2835773 0.771379137,23.198746 0.776148097,23.1186274 C0.790454974,22.8287869 0.799992892,22.5413029 0.816684249,22.2538188 C0.842913524,21.8155234 0.890603115,21.377228 0.943061666,20.9389326 C0.997904696,20.4864986 1.06943908,20.0364211 1.15051139,19.5863436 C1.26973537,18.9477519 1.41280414,18.3138731 1.58448667,17.6870635 C1.97315684,16.2637817 2.4905889,14.8876284 3.14155182,13.5609601 C4.1001126,11.5980565 5.30665926,9.79303355 6.76357627,8.15531689 C8.18949505,6.55530305 9.80855667,5.16972406 11.6112232,3.99622348 C13.3781226,2.84393075 15.2666304,1.93434998 17.2791311,1.27690689 C18.9101151,0.741997991 20.5840198,0.390890389 22.2936916,0.216514801 C22.7515117,0.169386264 23.2093318,0.131683434 23.6671519,0.11283202 C23.831681,0.108119166 23.9938256,0.101049885 24.1559702,0.0916241779 C24.1988908,0.089267751 24.239427,0.0821984704 24.2799631,0.0751291899 L25.3863616,0.0751291899 Z" id="Fill-1" fill="#000000" mask="url(#mask-2)"></path>
                </g>
                <path d="M20.0287594,14.4181737 C20.0033426,14.4281885 19.9759708,14.4206774 19.948599,14.4181737 C19.755041,14.3906329 19.5634382,14.3881292 19.3679251,14.4056551 C18.9162899,14.4432107 18.5057124,14.6259811 18.155744,15.006544 C18.0306156,15.1467514 17.9211283,15.3044847 17.827282,15.4822477 C17.7060639,15.707581 17.602442,15.9454328 17.5359675,16.2083217 C17.5261918,16.2433735 17.5144611,16.273418 17.49882,16.3259958 C17.4870892,16.2784254 17.4812238,16.2508847 17.4753584,16.2258476 C17.4499417,16.0906476 17.4303904,15.9529439 17.3971532,15.8227514 C17.2837556,15.3370329 17.0432745,14.9915218 16.6835304,14.778707 C16.4489147,14.6384996 16.2045234,14.5458625 15.9503564,14.4882774 C15.6727278,14.4281885 15.3950992,14.41567 15.1135604,14.4231811 L15.0236243,14.4231811 C15.017759,14.3906329 15.0314449,14.3856255 15.0431757,14.3781144 C15.1643938,14.3280403 15.2856119,14.2954922 15.4107403,14.2704552 C15.5632405,14.2454181 15.7176958,14.2404107 15.870196,14.2504255 C16.1302284,14.2679515 16.37853,14.3355514 16.6111906,14.4907811 C16.7871524,14.6084551 16.9376975,14.7686922 17.0706464,14.9564699 C17.2329222,15.1918181 17.363916,15.4496995 17.4636277,15.7351217 C17.4714482,15.7601588 17.483179,15.7851958 17.49882,15.8227514 C17.5144611,15.775181 17.5242367,15.7426328 17.5340124,15.7100847 C17.6786921,15.2418921 17.9054872,14.8588255 18.2280838,14.5734033 C18.4431482,14.3806181 18.6836293,14.2704552 18.9417066,14.2253885 C19.2955853,14.1602922 19.6416434,14.2178774 19.9779259,14.3655959 C19.993567,14.373107 20.0111632,14.3881292 20.0287594,14.4006477 C20.0307145,14.4006477 20.0287594,14.4056551 20.0287594,14.4181737" id="Fill-3" fill="#000000"></path>
                <path d="M21.2421007,18.4380895 C21.2302546,18.3454524 21.2201007,18.2503117 21.2082546,18.1576747 C21.1981007,18.0575265 21.1727161,17.9623858 21.1388699,17.8697488 C21.0931776,17.7520747 21.0305622,17.656934 20.9476391,17.5868303 C20.908716,17.5542821 20.864716,17.5267414 20.820716,17.5017043 C20.6261006,17.3915414 20.4247159,17.3264451 20.216562,17.3014081 C20.1539466,17.293897 20.0930235,17.2838821 20.0337927,17.276371 C20.0236389,17.251334 20.0337927,17.2388155 20.0456389,17.2338081 C20.1251773,17.1762229 20.2097927,17.1486821 20.2944082,17.1336599 C20.4111774,17.116134 20.5262544,17.1211414 20.6413313,17.1561933 C20.7851775,17.2037636 20.9070237,17.3114229 21.0051776,17.4691562 C21.0864084,17.5943414 21.1524084,17.7345488 21.2099469,17.884771 C21.221793,17.9123117 21.2336392,17.9423562 21.2471776,17.977408 C21.2573315,17.9548747 21.2674853,17.9398525 21.2725623,17.9198228 C21.3250238,17.7320451 21.4011777,17.5668006 21.4993316,17.4290969 C21.6330239,17.2388155 21.7921009,17.1336599 21.9765625,17.1036155 C22.1508702,17.073571 22.320101,17.116134 22.4808703,17.2162821 C22.4961011,17.2237933 22.5113318,17.2388155 22.5333318,17.2563414 C22.5181011,17.2663562 22.5096395,17.276371 22.5028703,17.2788747 C22.452101,17.2813784 22.3996395,17.2788747 22.3471779,17.2838821 C22.2084087,17.293897 22.0713317,17.318934 21.941024,17.386534 C21.7396393,17.4916895 21.5721008,17.6644451 21.44687,17.9223265 C21.3876392,18.045008 21.3351777,18.1726969 21.2945623,18.3104006 C21.2827161,18.3529635 21.2691776,18.3955265 21.2573315,18.4380895 L21.2421007,18.4380895 Z" id="Fill-5" fill="#000000"></path>
                <path d="M37.3375894,9.38012455 C38.193135,8.76055933 39.0037831,8.16411221 39.8318914,7.58153596 C40.9717874,6.77933771 42.1615694,6.05805283 43.4835494,5.53096003 C44.6384112,5.06859792 45.7009838,5.21193017 46.743602,5.78988281 C48.84131,6.95041169 50.5898156,8.49470112 52.3133783,10.0713559 C52.3956902,10.143022 52.4705193,10.2239354 52.5777743,10.3302787 C51.8020464,10.7024802 51.0737102,11.1186061 50.1533128,10.9174785 C50.0136319,10.887425 49.8415251,11.0469399 49.684384,11.0446281 C49.0408541,11.0330691 48.3948299,11.0284454 47.7562886,10.9544675 C47.5742046,10.9313494 47.3696718,10.6909211 47.279877,10.5082881 C47.1002872,10.1407102 46.9980208,9.74076699 46.8483627,9.36163006 C46.7585679,9.14200806 46.64383,8.93625693 46.5216092,8.68426958 C46.1300038,9.03797659 46.3644682,9.39630722 46.2996163,9.71302526 C46.2646961,9.87254019 46.2447417,10.1291512 46.1474639,10.1661401 C45.9878286,10.2193118 45.7134553,10.1869464 45.5837516,10.0852268 C45.0624425,9.67603629 44.5735594,9.22523324 44.0771933,8.79292467 C43.8402346,8.58717354 43.6082645,8.38604602 43.3638229,8.19416575 C43.0545295,7.95142564 42.7028329,7.93755478 42.48084,8.24733739 C41.952048,8.99174038 41.0940082,9.06803013 40.28336,9.25759859 C39.7520737,9.38243636 39.2157988,9.49340326 38.6845125,9.68990716 C39.0411977,9.7222725 39.3928942,9.75001423 39.7470851,9.79393863 C41.6901463,10.0389905 43.4760665,10.7140392 45.1622146,11.6040863 C46.0900949,12.0918783 46.9855493,12.6259065 47.8435892,13.2107946 C48.2277117,13.474341 48.6716974,13.8141771 48.916139,14.0684763 C49.1206718,14.2580447 49.477357,14.6672352 49.552186,14.7227187 C51.1360678,16.4565766 52.0839025,18.4331746 52.2884353,20.6987489 C52.2485264,20.733426 52.2111119,20.7727268 52.1687088,20.807404 C51.5251789,20.4606324 50.8641889,20.1346671 50.2381191,19.7601538 C49.7093271,19.4457476 49.2403983,19.0481161 48.7116063,18.7475808 C48.2850806,18.5025289 48.1653542,18.1904344 48.1828143,17.7627495 C48.2002744,17.2657102 48.1977801,16.7663592 48.2027687,16.2693199 C48.1628599,16.2600727 48.1179624,16.2462018 48.0780536,16.2346427 C48.015696,16.3548569 47.9383727,16.4658238 47.8984638,16.5906616 C47.7986918,16.8865733 47.7163798,17.1917323 47.6265849,17.4922677 C47.5642274,17.7165133 47.3971092,17.7881794 47.197565,17.6633416 C46.7286362,17.3720535 46.272179,17.0645827 45.7708243,16.7363056 C45.9529083,16.6068442 46.0651519,16.5305545 46.2023385,16.4357703 C45.9554026,16.0173326 45.7359041,15.6012067 45.4690138,15.2151343 C45.2669753,14.9215344 45.1746861,14.4221833 44.9726477,14.5655155 C44.8753699,14.1748196 44.8130123,13.8488543 44.7082517,13.5321362 C44.6558713,13.3679977 44.5261676,13.2223536 44.4288899,13.0674623 C44.2991862,13.1738056 44.0971477,13.2593426 44.049756,13.3911158 C43.8951092,13.8372952 43.5484013,14.059229 43.0719896,14.2349266 C42.7477303,13.388804 42.3685965,12.5912294 41.6826634,11.9601051 C41.5404882,11.8329555 41.3708757,11.7312358 41.1563657,11.5740327 C41.076548,12.2213397 40.9144184,12.766927 40.340729,13.1298812 C39.7595566,13.4997709 39.1484526,13.4096103 38.4026564,13.2339127 C38.4151279,13.4997709 38.3777134,13.7309519 38.4375766,13.9390149 C38.9888173,15.8994302 39.597427,17.8482865 40.1037703,19.8248845 C40.5053529,21.392292 40.8071634,22.9805058 41.0965025,24.5710315 C41.3683814,26.0552138 41.5903742,27.5463316 41.794907,29.0397612 C42.0967175,31.2452285 42.3661021,33.4576311 42.6429697,35.6654102 C42.6803842,35.935892 42.7028329,36.2017502 42.7427417,36.5438982 C41.9994398,36.4722321 41.3209896,36.4051895 40.6375509,36.3404589 C39.6323472,36.2387392 39.6622788,36.2364274 39.62237,35.2955205 C39.5425524,33.2056438 39.4677233,31.1111435 39.3130766,29.0258904 C39.17589,27.2273018 39.011266,25.4240896 38.7194327,23.6416837 C38.3627475,21.477829 37.8838416,19.330157 37.4099242,17.1847969 C37.2228516,16.3248034 36.9160524,15.4879279 36.6441735,14.6418053 C36.6017704,14.5192793 36.4321578,14.3458935 36.3024541,14.3343345 C35.6414641,14.2580447 35.1600639,13.9575094 34.8008844,13.4558465 C34.7709527,13.4119221 34.7135838,13.388804 34.6886408,13.3772449 C33.7283345,14.4776667 32.7705226,15.5734649 31.8127107,16.6646395 C31.7528474,16.646145 31.683007,16.6276505 31.6206494,16.6068442 C31.5882235,16.24389 31.5607862,15.8832475 31.5258659,15.4948634 C31.1641921,15.5711531 31.0120397,15.804646 30.939705,16.0635688 C30.7551266,16.7039403 30.5805255,17.3489354 30.4408446,18.000866 C30.221346,19.0573634 29.8646608,20.0514419 29.0689785,20.8605756 C28.8345141,21.0963803 28.5576466,21.2998196 28.2708019,21.4870763 C27.9290825,21.7182573 27.8118503,21.660462 27.7270441,21.2720779 C27.6896295,21.0825094 27.6572036,20.8906291 27.6197891,20.7033725 C27.5674088,20.6987489 27.5150284,20.6987489 27.4626481,20.6941252 C27.4077734,20.8998764 27.3005184,21.1102511 27.3080014,21.3160023 C27.3853247,23.3041593 26.2778547,24.7305464 24.7613191,25.9581178 C24.6390983,26.0575257 24.504406,26.1430626 24.3747023,26.2309114 C24.3447706,26.2517177 24.2948846,26.2517177 24.1552037,26.2887067 C24.2050897,25.8263446 24.2624587,25.4009715 24.3023675,24.9755983 C24.5642692,22.1991139 25.4721951,19.5937034 26.8665099,17.1501197 C28.0662691,15.0394367 29.9120526,13.4489111 32.0696238,12.1727917 C32.8378687,11.7150532 33.665977,11.3336044 34.4666479,10.9174785 C34.541477,10.875866 34.6113174,10.8226943 34.7909072,10.704792 C34.0301451,10.7348455 33.4065696,10.7487164 32.7780055,10.7810817 C32.1943388,10.8157589 32.1718901,10.801888 32.3165596,10.2563007 C32.3340198,10.1961937 32.3315255,10.131463 32.2566964,9.98813071 C31.9249542,10.2239354 31.5607862,10.4296865 31.2714471,10.704792 C30.0841594,11.8468264 28.5850839,12.1427381 26.9587991,12.1473617 C26.5422507,12.1473617 26.4474672,11.9416106 26.4973532,11.6295162 C26.5572165,11.2734974 26.6420227,10.9197904 26.6345398,10.5059763 C26.4998475,10.6423731 26.3601666,10.7718345 26.2429344,10.9151667 C26.0708276,11.1186061 25.9136866,11.3243572 25.7640285,11.5416674 C25.1429473,12.4409617 24.207584,12.5773585 23.1849202,12.4363381 C22.1672451,12.3045649 21.1545585,12.1311791 20.0296283,11.9577933 C20.2441383,11.7104296 20.3888078,11.5208611 20.555926,11.3474753 C21.7107878,10.1499575 22.9255128,9.01485848 24.3697137,8.10400514 C25.6193589,7.31336594 26.9637877,7.13998015 28.3980113,7.39427931 C30.2886922,7.72486821 32.1369699,8.20341299 33.9453388,8.81604278 C34.3918189,8.96862227 34.8457818,9.11657815 35.3496308,9.1951797 C35.0303602,8.93856874 34.7335382,8.65883966 34.3918189,8.42997042 C33.8281066,8.05314531 33.5437562,7.59771863 33.7532776,6.93885263 C33.7857035,6.8440684 33.7657491,6.73541331 33.773232,6.56433933 C33.1247135,6.62213459 32.5161038,6.71923064 31.9099884,6.71923064 C31.4909457,6.71923064 31.0519486,6.63138184 30.642883,6.50885588 C30.2013916,6.37477087 29.7923261,6.15283706 29.3633061,5.97482765 C28.874423,5.78063556 28.817054,5.64423874 29.0664842,5.20730655 C29.1338304,5.08246879 29.2036708,4.9530074 29.3408574,4.71026729 C28.7970996,4.92064205 28.3581025,5.05241525 27.9664971,5.26279001 C27.5175227,5.49859468 27.0535826,5.58413167 26.5821595,5.44311123 C25.8712834,5.22580104 25.1828561,4.96225464 24.4869459,4.71489091 C24.4869459,4.65247203 24.4894402,4.59236495 24.4894402,4.52994607 C25.4971381,4.12769104 26.4898703,3.69075885 27.5175227,3.33936365 C28.2234102,3.09431174 28.9717007,2.94866767 29.7100141,2.79377637 C30.750138,2.5810898 31.5533032,3.0203338 32.2666736,3.66070531 C33.69092,4.93682472 34.7909072,6.44181337 35.8459969,7.98379099 C35.8734342,8.02540358 35.913343,8.06932798 35.9482633,8.10400514 C35.9682177,8.12018781 36.0031379,8.12481143 36.0330695,8.13637049 C36.6017704,7.25788249 37.135551,6.35627638 37.7366778,5.50090649 C38.6695467,4.17623906 39.6373358,2.87468974 41.0241677,1.89448208 C41.5878799,1.49685067 42.1939953,1.40437824 42.8425138,1.5708286 C43.8277631,1.82743957 44.8204953,2.0748033 45.7708243,2.42388669 C47.0952986,2.91630233 48.3773698,3.49887858 49.8016162,4.09070207 C49.4798513,4.32188312 49.2728242,4.53225788 49.0184054,4.64784841 C48.5170507,4.87209403 48.0007302,5.05935068 47.4794211,5.22348923 C47.0104924,5.37375691 46.6313585,5.17494121 46.3120878,4.85591135 C46.0950835,4.64091298 45.8805736,4.4259146 45.611189,4.16699182 C45.5762687,4.31494769 45.5438428,4.38661382 45.5388542,4.45827994 C45.5064283,4.75187988 45.3368158,4.89058851 45.0350052,4.80273971 C44.5037189,4.6455366 43.9873984,4.46752719 43.463595,4.29876502 C43.2416021,4.22709889 43.0245979,4.13231466 42.7976164,4.08607845 C42.4833343,4.01903595 42.3087332,4.1623682 42.4359426,4.44209727 C42.6853728,4.99461999 42.348642,5.27203725 41.9171278,5.52633641 C41.7350438,5.63730331 41.555454,5.75751746 41.3683814,5.86386074 C40.951833,6.0973536 40.5302959,6.22450318 40.0039982,6.13203076 C39.3130766,6.01181662 38.7917675,6.17826697 38.4799797,6.91573453 C38.382702,7.14922739 38.1731806,7.38040844 37.9486934,7.5237407 C37.1505168,8.03233901 36.9833986,8.46464758 37.3375894,9.38012455" id="Fill-7" fill="#000000"></path>
                <path d="M0,39.0416172 C0,39.0416172 7.53917801,29.6045982 25.0795506,31.8991744 C42.6223158,34.1961685 50.0227212,37.0468591 65.096292,31.5364911 C65.096292,31.5364911 57.971039,39.2930776 41.9356309,39.0416172 C25.9026154,38.7877389 18.6385899,32.4093489 0,39.0416172" id="Fill-9" fill="#000000"></path>
                <g transform="translate(0.000000, 38.567208)">
                    <mask id="mask-4" fill="white">
                        <use xlink:href="#path-3"></use>
                    </mask>
                    <g id="Clip-12"></g>
                    <path d="M0.682199602,4.29278316 C0.682199602,4.29278316 6.28334209,-1.77118681 19.8057257,1.00041301 C33.3233403,3.76450171 38.2425216,7.0093015 49.3065068,2.28230922 C49.3065068,2.28230922 45.2743518,8.02079773 34.9638622,7.99325699 C22.4453445,7.95820514 18.4394189,-0.922431309 0.682199602,4.29278316" id="Fill-11" fill="#000000" mask="url(#mask-4)"></path>
                </g>
            </g>
            <g id="Group" transform="translate(68.471274, 13.897316)" fill="#000000">
                <path d="M16.8907032,4.1105803 C15.9048699,3.26043088 14.896411,2.63190071 13.8652561,2.22477898 C12.8342418,1.81793833 11.7488415,1.6143072 10.6091958,1.6143072 C8.04054864,1.6143072 5.95357551,2.42848038 4.34827643,4.05640514 C2.74262601,5.68447044 1.940117,7.80559289 1.940117,10.4192104 C1.940117,11.7307269 2.13672152,12.9110567 2.53021162,13.9601997 C2.92370173,15.0094129 3.52272014,15.9410008 4.32789926,16.7549631 C5.12359246,17.5508671 6.03494364,18.1569824 7.06153121,18.5728874 C8.08804852,18.9890032 9.18925867,19.1970611 10.3650914,19.1970611 C11.5047371,19.1970611 12.6171899,19.0026348 13.7025199,18.6135715 C14.7879202,18.2247892 15.8142969,17.6503639 16.7822123,16.8905767 L16.7822123,19.0070616 C15.8053731,19.6039017 14.7719698,20.0630906 13.682213,20.3841364 C12.5921049,20.7051119 11.5135907,20.8656699 10.4464596,20.8656699 C9.00839376,20.8656699 7.63349718,20.6078636 6.32219142,20.0924619 C5.01067485,19.5768493 3.88452024,18.8533194 2.94400862,17.9216613 C1.97609324,16.963021 1.24349899,15.8507088 0.746225872,14.5841626 C0.248671691,13.3178974 9.98541192e-16,11.9297205 9.98541192e-16,10.4192104 C9.98541192e-16,8.93596347 0.255417236,7.5521431 0.766462506,6.26774925 C1.27743751,4.98349593 2.01242081,3.8753997 2.9712016,2.94388215 C3.90257862,2.03042298 5.02648472,1.31595738 6.34256858,0.800344815 C7.65851191,0.284943047 9.02645215,0.0271367638 10.4464596,0.0271367638 C11.7127248,0.0271367638 12.8861685,0.2013264 13.967142,0.549424608 C15.0477642,0.897522817 16.0314192,1.41988093 16.9178259,2.11621788 L16.8907032,4.1105803 Z" id="Fill-13"></path>
                <path d="M23.4950973,0.474724728 L25.2722672,0.474724728 L25.2722672,13.4447206 C25.2722672,15.4073228 25.7200027,16.8657657 26.6154738,17.8200495 C27.5108043,18.774263 28.8810633,19.2512292 30.7261805,19.2512292 C32.5441048,19.2512292 33.9008025,18.774263 34.7962033,17.8200495 C35.6916743,16.8657657 36.1393396,15.4073228 36.1393396,13.4447206 L36.1393396,0.474724728 L37.9437025,0.474724728 L37.9437025,12.8613013 C37.9437025,15.5473631 37.346792,17.5533897 36.1529009,18.8781163 C34.9589395,20.2033347 33.1500093,20.8656629 30.7261805,20.8656629 C28.2930064,20.8656629 26.4798602,20.2033347 25.2858285,18.8781163 C24.0919374,17.5533897 23.4950973,15.5473631 23.4950973,12.8613013 L23.4950973,0.474724728 Z" id="Fill-15"></path>
                <path d="M47.3835792,9.83575589 L48.6180841,9.83575589 C50.8068728,9.83575589 52.2788771,9.55757244 53.0340971,9.00141634 C53.7892467,8.4453305 54.1669972,7.47073984 54.1669972,6.07778488 C54.1669972,5.4900793 54.080851,4.94973307 53.909191,4.45653539 C53.7372498,3.96382957 53.4795138,3.52290986 53.1358424,3.13384652 C52.7831066,2.73599992 52.3036811,2.45556796 51.6977766,2.29283169 C51.0916613,2.12988463 50.0650737,2.04844623 48.6180841,2.04844623 L47.3835792,2.04844623 L47.3835792,9.83575589 Z M45.5790758,20.3366014 L45.5790758,0.474696622 L49.2015035,0.474696622 C50.6305049,0.474696622 51.6818964,0.551708256 52.3558185,0.70545046 C53.0295298,0.859333197 53.6151976,1.11236139 54.1127518,1.46523769 C54.7367147,1.91747024 55.2204967,2.53700635 55.564379,3.32363523 C55.9079099,4.11054517 56.0799213,4.9834608 56.0799213,5.94210106 C56.0799213,7.83268047 55.5508176,9.21853855 54.49254,10.1003077 C53.4343327,10.9822877 51.7609458,11.4232074 49.4728009,11.4232074 L47.3835792,11.4232074 L47.3835792,20.3366014 L45.5790758,20.3366014 Z" id="Fill-17"></path>
                <path d="M60.730637,16.9991237 L62.2771936,16.1715297 C62.5666197,17.1484392 63.0661413,17.9059076 63.7763207,18.4439351 C64.4862892,18.9823139 65.3386169,19.2512222 66.3337253,19.2512222 C67.5907153,19.2512222 68.5723326,18.880428 69.2777339,18.1387695 C69.9831352,17.3971811 70.3359412,16.3705936 70.3359412,15.059077 C70.3359412,14.1006475 70.0983715,13.3045327 69.6236538,12.6712947 C69.1488659,12.0382675 68.1288833,11.3058138 66.5643386,10.4735823 C64.5652683,9.41523442 63.2357636,8.48371687 62.5757542,7.67874855 C61.9153233,6.87385049 61.5852834,5.90621617 61.5852834,4.77542399 C61.5852834,3.36441064 62.0621794,2.21598167 63.0166037,1.32957495 C63.9706767,0.443238494 65.2076409,3.99416477e-15 66.7270748,3.99416477e-15 C67.7220427,3.99416477e-15 68.5879317,0.210165874 69.3252338,0.630708421 C70.0621845,1.0513915 70.661484,1.68209992 71.1227106,2.52332555 L69.7254694,3.36441064 C69.4359731,2.79483372 69.0267434,2.36044875 68.4975695,2.06209893 C67.9685361,1.76360858 67.3420436,1.61429314 66.618584,1.61429314 C65.6418151,1.61429314 64.8638289,1.90154092 64.2851174,2.4759662 C63.7061951,3.05032122 63.4167691,3.82563725 63.4167691,4.8025467 C63.4167691,6.19550166 64.5652683,7.49345687 66.8627586,8.69620152 C67.2785934,8.91325347 67.5954232,9.0808381 67.8124751,9.1981122 C69.5036394,10.1299108 70.634291,11.0093612 71.2042193,11.8369552 C71.774007,12.6645492 72.0590062,13.7387069 72.0590062,15.059077 C72.0590062,16.841025 71.5386156,18.2539356 70.498818,19.2987221 C69.4584583,20.343368 68.0430884,20.8656559 66.2522869,20.8656559 C64.9499049,20.8656559 63.8349928,20.542221 62.9079723,19.895773 C61.9809518,19.2491142 61.2551031,18.2835879 60.730637,16.9991237" id="Fill-19"></path>
                <polygon id="Fill-21" points="78.8665677 20.3366295 78.8665677 0.474724728 80.6710711 0.474724728 80.6710711 8.53347229 91.4836873 8.53347229 91.4836873 0.474724728 93.2881907 0.474724728 93.2881907 20.3366295 91.4836873 20.3366295 91.4836873 10.0799587 80.6710711 10.0799587 80.6710711 20.3366295"></polygon>
                <polygon id="Fill-23" points="101.005122 20.3366295 101.005122 0.474724728 110.840899 0.474724728 110.840899 2.17066707 102.809485 2.17066707 102.809485 8.38415685 110.840899 8.38415685 110.840899 10.0799587 102.809485 10.0799587 102.809485 18.6406872 110.840899 18.6406872 110.840899 20.3366295"></polygon>
            </g>
        </g>
    </g>
</svg>