<?xml version="1.0" standalone="no"?><!DOCTYPE svg PUBLIC "-//W3C//DTD SVG 1.1//EN" "http://www.w3.org/Graphics/SVG/1.1/DTD/svg11.dtd"><svg t="1603094969979" class="icon" viewBox="0 0 1621 1024" version="1.1" xmlns="http://www.w3.org/2000/svg" p-id="8972" xmlns:xlink="http://www.w3.org/1999/xlink" width="31.66015625" height="20"><defs><style type="text/css"></style></defs><path d="M179.2 8.533333h1258.666667c93.866667 0 170.666667 76.8 170.666666 170.666667v661.333333c0 93.866667-76.8 170.666667-170.666666 170.666667H179.2c-93.866667 0-170.666667-76.8-170.666667-170.666667V179.2c0-93.866667 76.8-170.666667 170.666667-170.666667z" fill="#FFFFFF" p-id="8973"></path><path d="M1442.133333 1024H179.2C81.066667 1024 0 942.933333 0 844.8V179.2C0 81.066667 81.066667 0 179.2 0h1258.666667C1540.266667 0 1621.333333 81.066667 1621.333333 179.2v661.333333c0 102.4-81.066667 183.466667-179.2 183.466667zM179.2 21.333333C89.6 21.333333 17.066667 93.866667 17.066667 183.466667v661.333333c0 89.6 72.533333 162.133333 162.133333 162.133333h1258.666667c89.6 0 162.133333-72.533333 162.133333-162.133333V179.2c0-89.6-72.533333-162.133333-162.133333-162.133333H179.2z" fill="#D8D8D8" p-id="8974"></path><path d="M857.6 328.533333c-38.4-4.266667-76.8 0-115.2 0h-4.266667V640h38.4v-128h81.066667c38.4-4.266667 85.333333-42.666667 85.333333-98.133333 0-46.933333-42.666667-85.333333-85.333333-85.333334z m0 145.066667H776.533333V366.933333c0-4.266667 4.266667 0 8.533334 0h64c25.6 0 51.2 25.6 51.2 51.2 4.266667 25.6-12.8 51.2-42.666667 55.466667z m238.933333-38.4c-21.333333-12.8-46.933333-17.066667-68.266666-12.8-21.333333 0-38.4 8.533333-55.466667 17.066667-8.533333 4.266667-17.066667 12.8-21.333333 21.333333 12.8 8.533333 21.333333 12.8 34.133333 21.333333 25.6-34.133333 64-34.133333 81.066667-21.333333 21.333333 12.8 29.866667 34.133333 25.6 51.2h-4.266667c-34.133333-12.8-68.266667-17.066667-98.133333-4.266667-51.2 17.066667-59.733333 68.266667-42.666667 98.133334 25.6 46.933333 102.4 55.466667 136.533333 8.533333 0-4.266667 4.266667-4.266667 8.533334-4.266667v29.866667h38.4v-4.266667-140.8c4.266667-25.6-8.533333-46.933333-34.133334-59.733333z m-51.2 174.933333c-17.066667 4.266667-34.133333 4.266667-46.933333-8.533333-17.066667-12.8-21.333333-34.133333-4.266667-51.2 8.533333-8.533333 17.066667-12.8 29.866667-17.066667 21.333333-4.266667 38.4 0 59.733333 4.266667 4.266667 0 8.533333 4.266667 12.8 8.533333 0 29.866667-21.333333 59.733333-51.2 64z m268.8-183.466666l-64 153.6-64-153.6h-42.666666c29.866667 68.266667 59.733333 136.533333 89.6 200.533333-17.066667 34.133333-34.133333 72.533333-51.2 106.666667h38.4c46.933333-102.4 89.6-204.8 136.533333-311.466667-12.8 4.266667-25.6 4.266667-42.666667 4.266667z" fill="#888888" p-id="8975"></path><path d="M332.8 482.133333c0-12.8 0-21.333333 4.266667-34.133333L277.333333 396.8c-12.8 25.6-21.333333 55.466667-21.333333 81.066667 0 29.866667 8.533333 55.466667 17.066667 81.066666L337.066667 512c-4.266667-8.533333-4.266667-21.333333-4.266667-29.866667z" fill="#FFB900" p-id="8976"></path><path d="M439.466667 371.2c25.6 0 51.2 12.8 68.266666 25.6l51.2-51.2c-29.866667-29.866667-72.533333-46.933333-119.466666-46.933333-72.533333 0-132.266667 38.4-166.4 98.133333l59.733333 46.933333c17.066667-42.666667 55.466667-72.533333 106.666667-72.533333z" fill="#FE2727" p-id="8977"></path><path d="M439.466667 588.8c-51.2 0-89.6-29.866667-106.666667-76.8l-59.733333 46.933333c29.866667 59.733333 93.866667 102.4 162.133333 102.4 51.2 0 89.6-17.066667 119.466667-42.666666l-59.733334-42.666667c-12.8 8.533333-29.866667 12.8-55.466666 12.8z" fill="#00AC47" p-id="8978"></path><path d="M435.2 448v68.266667h98.133333c-4.266667 25.6-17.066667 42.666667-38.4 55.466666l59.733334 42.666667c34.133333-29.866667 51.2-81.066667 51.2-136.533333 0-12.8 0-21.333333-4.266667-34.133334" fill="#2485FC" p-id="8979"></path></svg>