<?xml version="1.0" encoding="UTF-8"?>
<svg width="153px" height="219px" viewBox="0 0 153 219" version="1.1" xmlns="http://www.w3.org/2000/svg" xmlns:xlink="http://www.w3.org/1999/xlink">
    <title>商详/wap/尺码引导/尺码图2 胖 copy</title>
    <defs>
        <linearGradient x1="54.4416726%" y1="93.3633079%" x2="43.3984172%" y2="-5.62224225%" id="linearGradient-1">
            <stop stop-color="#AAA9A9" stop-opacity="0.423432037" offset="0%"></stop>
            <stop stop-color="#717171" offset="100%"></stop>
        </linearGradient>
        <filter id="filter-2">
            <feColorMatrix in="SourceGraphic" type="matrix" values="0 0 0 0 0.117647 0 0 0 0 0.627451 0 0 0 0 0.941176 0 0 0 1.000000 0"></feColorMatrix>
        </filter>
    </defs>
    <g id="商详/wap/尺码引导/尺码图2-胖-copy" stroke="none" stroke-width="1" fill="none" fill-rule="evenodd">
        <g id="Group-9" transform="translate(0.000000, 15.000000)">
            <g id="Group-44" transform="translate(0.000000, 0.500000)">
                <path d="M26.6913004,1.78121709 C27.4268364,4.81963075 28.5543522,7.74742687 30.0684209,10.4241034 C31.568714,13.1088086 33.500644,15.5080492 35.7264545,17.5254809 C37.9614487,19.5388983 40.5061863,21.1201045 43.1302381,22.5010394 C44.4439339,23.1883846 45.7818413,23.8271116 47.1552315,24.3498686 C47.8410917,24.610355 48.5365531,24.8476474 49.2416157,25.0033149 C49.4169421,25.0505949 49.5935208,25.0773572 49.7700996,25.1050116 C49.9470958,25.1402486 50.1228396,25.15586 50.298166,25.1621045 C50.644227,25.1888668 51.0282753,25.1710253 51.3868595,25.1732555 C54.3093837,25.2294495 57.0544943,23.9042762 59.6071633,22.4234287 C60.8912205,21.6767604 62.1414647,20.8587259 63.3700019,20.0059005 C63.986149,19.5803799 64.6006263,19.152629 65.1817081,18.6941015 C65.7511015,18.2141642 66.3104762,17.7159393 66.8164181,17.1570532 C67.8458346,16.0580145 68.7345725,14.8099991 69.4980772,13.4803586 C70.2703483,12.1560705 70.9086199,10.7443589 71.4621504,9.29696431 C72.5604451,6.39816068 73.3214452,3.34190549 73.6913004,0.229449464 C73.3886536,3.3512723 72.6936097,6.43250564 71.6520873,9.37725122 C71.1165069,10.8433795 70.4870016,12.2751628 69.7234969,13.6275512 C68.9670887,14.9826159 68.0812729,16.2623001 67.0455947,17.3970218 C66.5367307,17.9741955 65.9719292,18.4916001 65.3946044,18.9907171 C64.7980772,19.4697623 64.1819301,19.8992973 63.5666179,20.3297244 C62.3359935,21.1919166 61.0824097,22.02021 59.7895862,22.7793673 C58.4984325,23.5403089 57.1705437,24.2437114 55.7696022,24.7758353 C54.3778445,25.31911 52.8779688,25.6291067 51.391034,25.6188479 C51.0161694,25.6148335 50.6646817,25.631783 50.2781287,25.6018984 C50.0856871,25.5943157 49.8961676,25.5755821 49.71124,25.5385609 C49.5242252,25.5082303 49.3376278,25.4787918 49.1568746,25.4297276 C48.4238433,25.2633552 47.7171109,25.0180341 47.021232,24.749965 C45.6286394,24.2129348 44.2836354,23.5630568 42.9624257,22.8645607 C40.3325296,21.4586476 37.7514745,19.8662905 35.5185675,17.7855213 C33.2923396,15.7123348 31.3679235,13.2631379 29.8939294,10.5347209 C28.4270318,7.80139752 27.3608803,4.83702624 26.6913004,1.78121709" id="Fill-1" fill="#717171"></path>
                <g id="Group-7" transform="translate(73.134136, 28.817145)" fill="url(#linearGradient-1)">
                    <path d="M1.06663571,0.249367028 C1.67516426,0.440610035 2.28070982,0.640563119 2.90042455,0.791664029 C3.51678343,0.954125911 4.12941358,1.13173575 4.7562129,1.23701408 C6.0090658,1.46044651 7.28168095,1.56042305 8.54683865,1.73916899 C9.81087773,1.91488533 11.077154,2.16709888 12.280042,2.62986909 C13.4844214,3.08506532 14.6041587,3.77467624 15.5631877,4.64530529 C16.5251998,5.51555565 17.3179275,6.56076496 17.9835056,7.67262529 C18.6666087,8.78334952 19.1065987,10.0216953 19.5260807,11.2429997 C19.9384782,12.4714993 20.3053851,13.7140108 20.6495467,14.9625815 C20.9922169,16.2115309 21.3102775,17.4680542 21.6089487,18.7279859 C21.9057555,19.9829944 22.2678151,21.2224764 22.6455353,22.4570352 C24.0619551,27.0618133 25.8096849,31.5841192 26.8616204,36.3210729 L27.0662887,37.2972345 L27.4149904,37.767405 C28.1487586,38.7827114 28.8019862,39.846191 29.3878228,40.9530742 C30.0746547,42.2402722 30.6540991,43.591849 31.0676151,45.0006093 C31.2842543,45.7019599 31.4330306,46.4252751 31.5676377,47.1406375 C31.6407208,47.4981294 31.7018719,47.8578935 31.7566842,48.2191723 C31.8133609,48.5796938 31.8767493,48.9394579 31.9192568,49.3018729 C32.1191167,50.7477457 32.2485036,52.2027074 32.323451,53.6591838 C32.4010086,55.1152816 32.4256182,56.5736515 32.4364315,58.0286132 C32.4423975,58.756094 32.4479906,59.4824387 32.4670071,60.2068899 C32.487888,60.9374004 32.5371072,61.6368575 32.6802904,62.3541134 C32.9245221,63.7897614 33.1411613,65.2356343 33.2052954,66.7004421 C33.2340066,67.4320886 33.2250577,68.170173 33.1098399,68.9033343 C33.0512989,69.2687789 32.9606908,69.6330873 32.8160161,69.9814904 L32.3772887,70.9292345 L32.5333838,71.4632137 C33.0789408,73.4062441 33.4099348,75.4058375 33.4577303,77.4267132 C33.4808485,78.5370588 33.3943419,79.6527061 33.1631608,80.7426019 C32.915946,81.8287107 32.5210736,82.8735413 32.0326102,83.8657327 C31.5426552,84.8579242 30.9658208,85.804293 30.3132933,86.6915849 C29.6555455,87.5739536 28.9340365,88.4192098 28.0715815,89.1054124 C27.6442692,89.4390463 27.1535685,89.7582896 26.5979879,89.8052482 C26.0629153,89.8927277 25.5341815,90.0226215 25.0061935,90.1513791 C24.4774598,90.2805155 23.9494718,90.4141963 23.4132806,90.5100071 C23.145185,90.5550723 22.8744792,90.5952144 22.602282,90.5998439 C22.3345593,90.602031 22.0440913,90.5812025 21.8211133,90.4138176 C22.0459557,90.5777942 22.3349322,90.5940783 22.6019092,90.5876404 C22.8729878,90.5804451 23.1425749,90.5368947 23.409179,90.4880426 C23.9431329,90.3846577 24.4688837,90.2441604 24.9953802,90.1078288 C25.5222496,89.9714971 26.0494919,89.8344081 26.5868017,89.7385972 C27.1297046,89.6852006 27.5957957,89.3712591 28.0167692,89.0345957 C28.8594619,88.3457422 29.5656832,87.4959416 30.2059059,86.6116794 C30.8423999,85.7217367 31.4020821,84.7749891 31.8737663,83.7862059 C32.3417218,82.7974228 32.7347298,81.7669828 32.9700126,80.6982941 C33.1914991,79.6280907 33.2724125,78.5283487 33.2451928,77.4312576 C33.1851603,75.2382116 32.7809661,73.0497099 32.1347773,70.9608061 L32.1202353,70.9127113 L32.1388789,70.8714331 L32.5885636,69.8834074 C32.7209335,69.5603771 32.8059485,69.2138675 32.860388,68.8620561 C32.9677754,68.1565398 32.9741142,67.4324673 32.9420471,66.7121818 C32.8723199,65.2689598 32.6500877,63.8329331 32.3995171,62.4048591 C32.2533509,61.6947984 32.1940641,60.9400513 32.1720646,60.2167361 C32.1493194,59.4866044 32.1411162,58.7591236 32.1314215,58.0320214 C32.1142693,56.5778172 32.0836938,55.1262638 31.9997974,53.6777401 C31.9188839,52.2292163 31.783904,50.7844795 31.5788239,49.350725 C31.5351977,48.990961 31.4710636,48.6346052 31.4128954,48.277492 C31.3569645,47.9196214 31.2946947,47.5628869 31.220493,47.2091821 C31.0836487,46.4964705 30.9352453,45.7939838 30.7197247,45.1077812 C30.3035986,43.7315889 29.7379504,42.4008406 29.0690165,41.1265183 C28.4030655,39.8521961 27.6353202,38.6206669 26.7758482,37.4815402 L26.7490014,37.4455638 L26.7407982,37.4058004 C25.7575324,32.3357779 23.884219,27.4922174 22.3830328,22.5399703 C22.009787,21.3001097 21.6510833,20.0538112 21.3580052,18.7889564 C21.0656729,17.5290248 20.7554426,16.2751523 20.4191113,15.027339 C20.0816613,13.7806618 19.7222119,12.5396651 19.3176448,11.3145738 C18.9037559,10.0940268 18.4794266,8.87272249 17.8097469,7.77866102 C17.1553549,6.67854035 16.3771692,5.64772161 15.4345466,4.79072572 C14.4941612,3.93410853 13.4001521,3.25396508 12.2181451,2.79346707 C11.0365109,2.32804597 9.78477663,2.06712234 8.52707639,1.88231722 C7.26825753,1.6941038 5.9952695,1.58352369 4.73682351,1.34835159 C4.10517685,1.23701408 3.4910552,1.05410245 2.8750692,0.887096183 C2.25498159,0.730693487 1.64906315,0.526196014 1.04128035,0.329651221 C0.428650201,0.145603495 0.454005558,0.0702423894 1.06663571,0.249367028 Z M21.7122718,39.9275572 C20.5418238,40.4486471 19.420595,41.0746366 18.3627546,41.7915138 C17.3041685,42.5042254 16.308225,43.3195644 15.4647866,44.2731285 C14.6176194,45.2153317 13.917737,46.3116654 13.5724567,47.5295614 C13.3953421,48.1354799 13.316293,48.7675285 13.3248691,49.397305 C13.3293436,49.7116252 13.360292,50.025188 13.3975793,50.3478396 C13.4292735,50.6682189 13.4725267,50.9874622 13.5198816,51.3059481 C13.8856699,53.8591369 14.6578896,56.3396155 15.6463757,58.7189815 C16.1482626,59.9069603 16.7213682,61.0638858 17.3492861,62.1908941 C17.9393806,63.2528941 18.5817534,64.2870024 19.2963522,65.2701104 L19.2161115,65.3013386 C20.1516496,64.8980241 21.1543048,64.7514676 22.1412993,64.7230651 C24.1201357,64.6708047 26.0821928,64.9593733 27.9808615,65.4513034 C27.0158665,65.2774805 26.046397,65.1415276 25.072453,65.0661665 C24.1003734,64.9820953 23.1234465,64.9495272 22.1554685,65.0127699 C21.1927107,65.084344 20.2202582,65.2233266 19.3533287,65.6156587 C18.924152,65.8114461 18.5270424,66.0765355 18.2238968,66.4260747 L17.2607661,67.5523256 L16.485274,68.4467642 C16.100505,68.8956316 15.7263942,69.3503885 15.3908086,69.8264132 C15.1234587,70.2210176 14.861702,70.6504623 14.8471599,71.08483 L14.9373952,72.5583479 C14.9996649,73.5486459 15.0775954,74.537429 15.2476254,75.5114429 C15.4016219,76.4881077 15.6626329,77.4507606 16.1037415,78.3407033 C15.5876855,77.4909027 15.2837941,76.5206758 15.0679007,75.5470406 C14.8594647,74.5684824 14.7487215,73.5728826 14.6514017,72.5814486 C14.606284,72.0777789 14.5503531,71.6081921 14.5249977,71.0795283 C14.5458786,70.5042844 14.841194,70.0494669 15.1118997,69.6302471 C15.6853782,68.7982453 16.3420073,68.0586461 16.9807386,67.3027629 L17.9572927,66.1874943 C18.308166,65.7917538 18.7526305,65.5065934 19.2161115,65.3013386 L19.2872887,65.2722345 L19.0274907,64.9457785 C17.578111,63.0738966 16.3852854,60.9966352 15.4036354,58.8280468 C14.3316259,56.4607992 13.5668636,53.9424507 13.1652795,51.3608594 C13.1145688,51.0385866 13.0675868,50.7151776 13.0336554,50.3902539 C12.9952495,50.0683597 12.9531148,49.7366193 12.9545517,49.4018494 C12.9534425,49.1122297 12.9699546,48.8221819 13.0047327,48.5345859 L13.0786611,48.6391117 C12.3019669,47.5605769 11.6878453,46.3744915 11.1740264,45.1452345 C10.6792241,43.9133266 10.2742841,42.6090871 10.233641,41.2677352 C10.5666165,42.5572054 11.0200299,43.781918 11.5178152,45.0001928 C11.7631656,45.6098982 12.0286511,46.211651 12.2885435,46.8175694 L13.0108407,48.4855654 C13.0568048,48.1272637 13.1312343,47.7730296 13.2353796,47.4284488 C13.6138456,46.1480674 14.3536254,45.0149999 15.2365884,44.0584062 C17.0435304,42.1671833 19.3221566,40.8315118 21.7122718,39.9275572 Z" id="Combined-Shape"></path>
                </g>
                <path d="M15.4528964,131.035882 C15.3824234,130.065276 15.4372357,129.087097 15.5636396,128.120278 C15.6001812,127.879425 15.6322482,127.635165 15.7172633,127.39772 C15.791465,127.171637 15.8574635,126.936086 15.9238348,126.703565 L16.310504,125.299349 L17.0797408,122.489024 L17.4619355,121.082914 C17.5868479,120.612191 17.7289125,120.147906 17.8105716,119.681349 C17.9798559,118.744826 17.9608394,117.774599 17.7248109,116.857769 C17.6081017,116.398028 17.4376988,115.956844 17.2206867,115.534216 C16.9928614,115.085836 16.838492,114.597693 16.7721207,114.095538 C16.7046307,113.594141 16.7307318,113.075702 16.8418479,112.585287 C16.9421507,112.11267 17.0361147,111.637782 17.1237398,111.161 L17.6286097,108.291218 C17.9712799,106.377652 18.3180516,104.460678 18.7729566,102.563396 C18.9959345,101.616648 19.2815552,100.669901 19.5839551,99.7530703 C19.877406,98.8301807 20.156315,97.9016107 20.4262749,96.9696324 C20.962839,95.1056758 21.4568956,93.2273287 21.913292,91.3402714 C22.1474562,90.3976896 22.3700613,89.4520781 22.5781243,88.5034371 C22.7805943,87.5540386 22.9905218,86.6046402 23.1165528,85.6404724 C23.0304192,86.6095632 22.8536774,87.5688079 22.6750713,88.5238868 C22.4942279,89.4797231 22.2984697,90.4325299 22.0911524,91.3826857 C21.6701789,93.2814826 21.2066979,95.1704334 20.7022009,97.0491592 C20.4505117,97.9887115 20.1842804,98.9252342 19.8908295,99.8530468 C19.5906668,100.782374 19.320334,101.69769 19.1025762,102.644816 C18.6614676,104.530358 18.3281192,106.443925 17.9951437,108.357869 L17.4731217,111.228787 C17.3821407,111.707462 17.2848209,112.185381 17.1804165,112.662163 C17.0748934,113.119252 17.0491652,113.587324 17.1080791,114.050473 C17.1662473,114.512486 17.3060746,114.964653 17.5148834,115.381222 C17.7386072,115.822406 17.9168404,116.29275 18.0365326,116.776349 C18.2841202,117.743167 18.2863574,118.766033 18.090972,119.73626 C17.9955166,120.225918 17.8437573,120.689824 17.7121332,121.155246 L17.3057018,122.554538 L16.4853814,125.350852 L16.0576962,126.744464 C15.9842403,126.976607 15.9126487,127.207235 15.8287523,127.440135 C15.7433644,127.658265 15.703467,127.898739 15.6605866,128.136183 C15.5110646,129.091641 15.4219479,130.064519 15.4528964,131.035882" id="Fill-8" fill="#717171"></path>
                <path d="M35.6630542,25.1995024 C33.4739175,26.5560023 31.2612898,27.8738749 29.0057817,29.1160077 C27.8715024,29.7272279 26.7446805,30.344886 25.5473857,30.8417391 C24.3254813,31.2666394 23.0741199,31.5487702 21.8671303,31.9778362 C20.6586493,32.3962986 19.4818625,32.9132228 18.3885992,33.5785969 C17.2938444,34.2409415 16.2863419,35.0471918 15.3892097,35.9647795 C14.9447452,36.427171 14.5163143,36.9092549 14.1460515,37.429966 C13.775043,37.9518133 13.4554909,38.5111517 13.1829208,39.0932121 C12.6374078,40.2588477 12.2772126,41.5089332 12.0352181,42.778711 C11.5571951,45.3258407 11.5325855,47.9407574 11.6302781,50.5337096 C11.6515319,51.1846933 11.698141,51.829239 11.7167847,52.4855244 C11.7406485,53.1437033 11.718649,53.7977165 11.6873277,54.4502149 C11.6258037,55.7559692 11.5061115,57.0545281 11.3729959,58.3515723 C11.1067646,60.9452819 10.7670774,63.5283879 10.4176955,66.1092218 L9.88374156,69.9783897 L9.61937468,71.9199796 C9.50266547,72.583839 9.26141671,73.2227042 8.92508537,73.8005989 C7.66477502,76.0345445 6.82320092,78.5172953 6.26985756,81.0386734 C5.99616886,82.3027707 5.80712231,83.585803 5.69787055,84.8756519 C5.59607626,86.1670156 5.56139908,87.4651958 5.57929698,88.7633761 C5.61210979,91.360494 5.81979999,93.9553397 6.04426946,96.5482919 C6.1565042,97.8453361 6.27433203,99.1427589 6.36494014,100.44359 C6.44920942,101.7448 6.52788559,103.051312 6.43802323,104.365776 C6.41751522,104.694108 6.37090611,105.022819 6.30938208,105.349636 C6.24524795,105.663199 6.20311331,105.981306 6.16731751,106.3032 C6.09759029,106.946231 6.05321841,107.594564 6.01518538,108.243654 L5.91525544,110.193196 L5.86678197,111.169104 C5.85522291,111.335731 5.85447716,111.485317 5.83434203,111.666336 C5.80935955,111.842431 5.74895414,112.013603 5.65760028,112.166218 C5.56475493,112.323757 5.43350368,112.441533 5.33245513,112.554006 C5.22618635,112.672539 5.1210362,112.792965 5.01961478,112.917557 C4.81528043,113.164469 4.61877642,113.420469 4.42488252,113.678364 C4.03784047,114.194909 3.66235747,114.721679 3.28873884,115.249964 C2.55156915,116.3107 1.78345101,117.367649 1.07051805,118.433308 C0.739779803,118.980907 0.475785801,119.570163 0.322535045,120.193123 C0.165182688,120.814568 0.126031035,121.463658 0.163318324,122.107825 C0.198368375,122.753128 0.300535545,123.395023 0.408668682,124.036161 L0.570868387,124.999192 C0.620833353,125.321844 0.67862865,125.636543 0.784897422,125.941395 C0.988113145,126.553373 1.34830835,127.099836 1.77375631,127.581919 C2.19995002,128.065139 2.67536295,128.503294 3.13660671,128.95584 C4.06580594,129.853735 4.92229495,130.835701 5.62516034,131.925976 C4.90887153,130.844412 4.04306069,129.874942 3.10453964,128.989922 C2.63919428,128.543058 2.15818826,128.110583 1.72267273,127.628878 C1.28790294,127.148688 0.913165695,126.595787 0.69801804,125.972449 C0.586156175,125.663809 0.522767784,125.336234 0.468328343,125.016991 L0.29345096,124.056989 C0.176368875,123.416609 0.0645070091,122.771684 0.0201351358,122.116914 C-0.0264739748,121.462901 0.00372872885,120.796012 0.156979484,120.152223 C0.306501511,119.508056 0.570122641,118.894564 0.90869122,118.332196 C1.63131887,117.240407 2.38340348,116.198606 3.12057317,115.128023 C3.49232744,114.597087 3.86631894,114.067666 4.25373387,113.546198 C4.44762777,113.285653 4.64450465,113.027001 4.85107623,112.774788 C4.95361627,112.647923 5.06100367,112.524089 5.16988255,112.401769 C5.28398165,112.274526 5.39547064,112.172656 5.46706224,112.048064 C5.54163681,111.921957 5.59085603,111.780324 5.61099117,111.634146 C5.62665183,111.491377 5.62963481,111.314903 5.63932951,111.156607 L5.68444713,110.181835 L5.7769196,108.229642 C5.81196966,107.57828 5.85447716,106.927296 5.92159428,106.275555 C5.95739008,105.949874 5.99915184,105.622678 6.06403173,105.298133 C6.12145415,104.985327 6.1661989,104.668356 6.18409679,104.346462 C6.26762032,103.0604 6.18521541,101.758812 6.09572592,100.463661 C6.00027046,99.1669956 5.87722241,97.8710876 5.7605132,96.5744221 C5.52523041,93.9807125 5.3067269,91.3801863 5.26347364,88.7675418 C5.23998265,87.4621662 5.26943961,86.1537611 5.3671323,84.8483856 C5.47228246,83.54301 5.65834603,82.2444511 5.93091611,80.963691 C6.2046048,79.684067 6.55025797,78.4184548 6.99285808,77.1869256 C7.4339667,75.9557751 7.94517543,74.7458317 8.60851629,73.6101133 C8.92657686,73.0689524 9.15365645,72.4732589 9.26514544,71.8548434 L9.53510541,69.9280227 L10.0839743,66.0615057 C10.4434238,63.4844588 10.7928057,60.9047611 11.0687316,58.3186255 C11.2059488,57.0261257 11.3304884,55.730975 11.3968597,54.435067 C11.4307912,53.7878703 11.454655,53.1387802 11.4337741,52.4953706 C11.4181135,51.8500674 11.3733687,51.1952968 11.355098,50.5443132 C11.2671,47.9403787 11.3010314,45.3076631 11.7943422,42.730995 C12.0445399,41.4468266 12.4148027,40.1789422 12.9756035,38.9924782 C13.2560039,38.4001929 13.5845049,37.8302509 13.9663268,37.2978001 C14.3492672,36.7642131 14.7851556,36.2783423 15.2370776,35.8110277 C16.1502433,34.8843512 17.1756437,34.0716631 18.2868049,33.4051528 C19.3979661,32.7375064 20.5874306,32.2126296 21.8108265,31.8062855 C23.0301209,31.3889592 24.2926684,31.1189468 25.502641,30.7144962 C26.6842751,30.2396077 27.8275034,29.6317957 28.9636471,29.0361022 C31.2310871,27.8223718 33.4590026,26.5302507 35.6630542,25.1995024" id="Fill-10" fill="#717171"></path>
                <path d="M82.2950219,79.5714155 C82.2991235,82.2644872 82.3464784,84.957945 82.4042737,87.6502445 C82.5414909,93.0321408 82.8002647,98.4186704 83.4557752,103.756165 L83.4490635,103.727207 C83.890545,105.046909 84.2000295,106.394796 84.4867687,107.747702 C84.7694064,109.101767 85.0106551,110.46394 85.2175996,111.831905 C85.6236581,114.568606 85.8995841,117.331177 85.9193463,120.108805 L85.9010756,120.02811 C86.1900521,120.720393 86.3612007,121.404182 86.5282478,122.105732 C86.6923118,122.803421 86.820953,123.50806 86.9391537,124.213857 C87.1740636,125.625452 87.3217213,127.048629 87.4410406,128.47142 C87.674459,131.319706 87.7721517,134.174555 87.768423,137.030176 C87.7490336,142.741032 87.2967388,150.478506 86.4126572,156.114072 C86.1807302,157.521419 85.9264309,158.924905 85.6139634,160.316808 L85.3648844,161.357357 C85.269056,161.701761 85.1821766,162.047324 85.0796366,162.389798 C84.9756051,162.731499 84.8596416,163.073201 84.7623218,163.404864 C84.6683578,163.74116 84.6031051,164.08595 84.5688008,164.43383 C84.533005,164.783639 84.5374794,165.128816 84.5576146,165.485961 L84.6004949,166.555082 L84.6653748,168.692937 C84.7063908,170.118431 84.7246616,171.543925 84.7474069,172.969419 C84.7861856,175.820407 84.8037107,178.671781 84.7854399,181.522769 C84.7571016,184.372985 84.7365936,187.227448 84.5028023,190.068783 C84.7104924,187.225517 84.7045265,184.372213 84.7071366,181.522769 C84.6985605,178.672167 84.6553073,175.821951 84.5904274,172.972508 L84.4755825,168.699115 L84.4039909,166.56319 L84.3577547,165.496772 C84.3368738,165.142715 84.3294164,164.772442 84.3652122,164.41298 C84.3991436,164.051973 84.4651421,163.694055 84.5609704,163.345404 C84.6623918,162.99405 84.7731351,162.663159 84.8749294,162.324546 C84.9748593,161.985934 85.0591286,161.641529 85.1523468,161.300214 L85.3954599,160.264298 C85.7000971,158.877414 85.9473118,157.477017 86.1721542,156.073531 C87.0282703,150.449548 87.4529725,142.721727 87.4462608,137.030176 C87.4361932,134.184593 87.3276872,131.336308 87.0830826,128.504625 C86.9618989,127.088398 86.7970891,125.676803 86.5763484,124.276406 C86.4618764,123.577173 86.3377097,122.87987 86.178493,122.191833 C86.0215135,121.509975 85.8425345,120.808039 85.5878623,120.189887 L85.5692187,120.145485 L85.5692187,120.108805 C85.5632527,117.358204 85.3026146,114.606831 84.9118438,111.880168 C84.7123568,110.517223 84.4785655,109.159683 84.2033853,107.810637 C83.9252222,106.464681 83.6220765,105.116793 83.1955099,103.821802 L83.1906626,103.805586 L83.1887982,103.792459 C82.5549143,98.4341145 82.3214959,93.0417934 82.2085154,87.6544917 C82.151093,84.9602617 82.1641435,82.2648733 82.1883803,79.5706433 C82.2193287,76.8764133 82.2745139,74.1825693 82.3755624,71.4902698 C82.3099368,74.1837276 82.2901746,76.8775716 82.2950219,79.5714155 Z" id="Fill-12" fill="#717171"></path>
                <path d="M21.4512652,194.168314 L21.5262127,178.588267 L21.528077,178.604097 C21.0343933,176.925319 20.5940304,175.230325 20.2230219,173.516798 C20.0391956,172.659262 19.876623,171.796321 19.7643883,170.922955 C19.6525264,170.047658 19.6051715,169.171589 19.5574438,168.294362 C19.4709373,166.540294 19.4545309,164.785068 19.4619884,163.030614 C19.4750389,161.275773 19.5149363,159.522478 19.5917481,157.767637 L19.592121,157.784626 C19.4638527,156.251795 19.2181295,152.697367 18.973152,151.173416 C18.7255644,149.649852 18.474621,148.124357 18.2620834,146.591913 C17.8388727,143.527023 17.5931495,140.428929 17.6144032,137.326974 C17.6524363,134.22386 17.9302265,131.135032 18.3314378,128.065896 C18.5406195,126.531907 18.7923087,125.004095 19.0902341,123.485164 C19.3918883,121.966233 19.7244909,120.458499 20.1626165,118.964665 L20.1544133,119.020264 C20.146583,117.650755 20.2137001,116.282404 20.3535274,114.922161 C20.5023037,113.562691 20.7230445,112.213646 20.9993433,110.877728 C21.2760149,109.541809 21.6134649,108.220177 21.9934224,106.913217 C22.3655495,105.606257 22.8107597,104.315513 23.1866156,103.022838 L23.1828869,103.076893 C22.8666907,100.422432 22.6616106,97.7540705 22.5862903,95.08069 C22.5146987,92.4076957 22.5650365,89.7316125 22.7361852,87.0644097 C22.9043508,84.3964348 23.2216657,81.7435178 23.5125065,79.091373 C23.6512152,77.7651076 23.7932798,76.4365256 23.8037202,75.1025381 C23.8122963,74.4349652 23.7552468,73.770095 23.6579269,73.109858 C23.6172838,72.7781952 23.5773864,72.4473045 23.5497938,72.1144833 L23.5337603,71.8642882 L23.5326416,71.7391907 C23.5333874,71.717955 23.5348789,71.6971054 23.5382347,71.676642 C23.5382347,71.6615839 23.5509124,71.6187264 23.5732848,71.6434371 C23.6564354,71.7882259 23.6877568,71.9550226 23.7332473,72.1144833 C23.687011,71.9557948 23.6530796,71.7878398 23.5710476,71.6461398 C23.5527768,71.6252902 23.5438278,71.6604256 23.5419635,71.6774142 C23.5393534,71.6974915 23.5382347,71.7183411 23.5378619,71.7391907 L23.5397262,71.8642882 L23.5572513,72.1137111 C23.587454,72.4457601 23.6299615,72.7766508 23.6732147,73.1075414 C23.7735175,73.766234 23.8439905,74.4334208 23.842499,75.1025381 C23.8503293,76.4400005 23.7261627,77.7724436 23.6042332,79.1014117 C23.3450866,81.7585758 23.0758724,84.4138094 22.9267232,87.0767651 C22.7682522,89.7393346 22.7298463,92.4084679 22.8137427,95.0733541 C22.900995,97.7386263 23.1176341,100.397721 23.4453894,103.042144 L23.4483724,103.070329 L23.4412878,103.096198 C23.0646862,104.413197 22.6291706,105.690041 22.2630095,106.996615 C21.8905095,108.298942 21.5608898,109.614397 21.2913027,110.942207 C21.0228343,112.270017 20.8091781,113.60941 20.6671135,114.957297 C20.5347436,116.305956 20.4739654,117.660407 20.4877617,119.014472 L20.4877617,119.041113 L20.4799313,119.070071 C19.6499163,122.018357 19.1181996,125.069733 18.6994633,128.118792 C18.2863202,131.17287 17.996225,134.250887 17.9451415,137.330449 C17.9108372,140.412713 18.1408997,143.493818 18.5491955,146.550213 C18.7542756,148.078797 18.9981345,149.601975 19.2390104,151.127856 C19.4769033,152.653737 19.7174063,156.215115 19.8400815,157.764162 L19.8408272,157.77227 L19.8404543,157.781151 C19.7558122,159.529041 19.7084573,161.281179 19.6879493,163.032158 C19.6722887,164.78391 19.6816105,166.536047 19.7599138,168.284324 C19.8035399,169.15769 19.8471661,170.033758 19.9538077,170.897472 C20.0641781,171.762344 20.2155645,172.623354 20.3867131,173.480118 C20.7342306,175.192873 21.1529669,176.892114 21.6242782,178.573595 L21.6268883,178.582089 L21.6265155,178.589425 L21.4512652,194.168314 Z" id="Fill-14" fill="#717171"></path>
                <path d="M53.3617112,139.430548 C53.2927947,140.802249 53.1742352,142.175961 52.9302559,143.533226 C52.8193453,144.213819 52.7075483,144.894414 52.5483324,145.567166 C52.3939917,146.240308 52.2773189,146.9213 52.0853096,147.587381 L51.5549268,149.594648 L50.9274955,151.579533 L50.6102347,152.571191 L50.2535356,153.551848 L49.5414665,155.513949 C49.0240672,156.808391 48.5009066,158.10205 47.9591363,159.388631 C47.3810315,160.662633 46.8064706,161.938996 46.2048821,163.203954 L44.3203602,166.968552 L44.3187083,166.818031 C44.8364886,167.805854 45.0616852,168.861297 45.2305997,169.907329 C45.3933058,170.957307 45.4704655,172.012083 45.5077351,173.066497 C45.5773987,175.175329 45.4994703,177.281524 45.3621536,179.382645 C45.223064,181.483767 45.0139484,183.580218 44.7512072,185.670802 C44.4897957,187.761385 44.1929289,189.848451 43.8260399,191.926117 C44.1233493,189.839839 44.3789983,187.750049 44.59343,185.656746 C44.802986,183.563841 44.9797457,181.46781 45.0931253,179.370255 C45.2025156,177.273098 45.2507438,175.17205 45.1531444,173.078607 C45.0981388,172.032877 45.0156525,170.987956 44.8524889,169.955711 C44.6831163,168.928199 44.4512554,167.892463 43.9622304,166.972391 L43.9228429,166.898344 L43.9605786,166.82187 L45.8162907,163.057295 C46.4130018,161.794705 46.9631881,160.514816 47.550594,159.249081 C48.0985642,157.969193 48.6283671,156.683016 49.1515229,155.395268 L49.8737768,153.44498 L50.2344608,152.469442 L50.5565924,151.483691 C51.4500261,148.864581 52.1728556,146.198327 52.6789738,143.499544 C53.1465265,140.806703 53.5241581,138.046949 53.0396795,135.331243 C53.3834314,136.671872 53.3827584,138.060067 53.3617112,139.430548 Z" id="Fill-16" fill="#717171" transform="translate(48.597671, 163.628680) rotate(-3.000000) translate(-48.597671, -163.628680) "></path>
                <path d="M53.3570285,136.680289 C53.2123538,137.246452 53.1691005,137.834454 53.1314404,138.417923 C53.0997462,139.003041 53.0941531,139.589394 53.1016106,140.174924 C53.1165255,141.347219 53.220557,142.515394 53.3313003,143.67986 C53.5744134,146.007968 53.9730145,148.313413 54.4625966,150.593311 C54.5766957,151.165243 54.7045911,151.733878 54.8406897,152.300453 C54.9730596,152.86744 55.100955,153.436488 55.2512227,153.998118 L55.6867383,155.695783 C55.8269385,156.280076 55.8936827,156.884148 55.8955471,157.487396 C55.8892082,158.099297 55.8340231,158.671229 55.8082948,159.25511 C55.79599,159.837343 55.7788379,160.419988 55.7956171,161.00181 C55.8176166,162.165864 55.9179195,163.327445 56.1218809,164.467188 C56.3258424,165.606931 56.6308524,166.723599 57.0316908,167.799886 C57.2322964,168.338441 57.4541557,168.867519 57.6849641,169.394125 C57.9112979,169.922791 58.1767834,170.430442 58.3699315,170.999901 C58.5619611,171.562768 58.688365,172.152006 58.7454145,172.748661 C58.8043285,173.350673 58.7711428,173.942795 58.776363,174.52544 C58.776363,175.69856 58.7841933,176.872915 58.7991082,178.047271 C58.8576493,182.743044 58.9482574,187.440466 59.0440857,192.137064 C58.8539206,187.443763 58.685382,182.749225 58.5839606,178.050979 C58.5578595,176.877036 58.538843,175.701856 58.5276568,174.526676 C58.5179621,173.93579 58.5433174,173.349024 58.4758274,172.782862 C58.4109476,172.21299 58.2808149,171.653008 58.0887854,171.120633 C57.8978745,170.593616 57.6279145,170.081432 57.3974791,169.550293 C57.1618234,169.020803 56.9336252,168.485957 56.7266807,167.93916 C56.312419,166.846803 55.9932398,165.706236 55.7788379,164.543418 C55.5636902,163.380188 55.4548113,162.195944 55.4261001,161.012111 C55.4022363,160.419576 55.4283374,159.827866 55.4428794,159.236568 C55.4723364,158.647742 55.5312503,158.049851 55.5394535,157.486984 C55.5405721,156.915876 55.4809124,156.344357 55.3518984,155.792204 L54.9271962,154.097423 C54.7787928,153.531672 54.6542532,152.959741 54.5241206,152.388633 C54.3906321,151.818762 54.2657197,151.247242 54.1538578,150.67119 C53.6933598,148.372749 53.3376391,146.046289 53.1314404,143.702523 C53.0341206,142.530228 52.9759524,141.352988 52.9893758,140.175336 C53.0117482,139.003041 53.050527,137.809318 53.3570285,136.680289" id="Fill-18" fill="#717171"></path>
                <path d="M64.5712551,171.052443 C65.1037175,171.429248 65.656688,171.770078 66.2301665,172.070386 C66.7984248,172.379026 67.3853267,172.649038 67.9871436,172.873606 C69.1877943,173.321986 70.4514605,173.613963 71.7207198,173.593135 C72.9899791,173.598436 74.2420862,173.253442 75.3651793,172.646008 C75.9162855,172.32525 76.4591884,171.97306 76.9346013,171.533012 C77.1915107,171.334574 77.4092685,171.092206 77.6467885,170.870289 C77.8738681,170.63701 78.0841684,170.387069 78.3097565,170.148488 C77.5766884,171.235733 76.6351844,172.197629 75.5076168,172.898979 C74.9419686,173.247382 74.3256097,173.506034 73.6898615,173.696898 C73.0503845,173.881325 72.3855521,173.959715 71.7240756,173.971834 C70.3959024,173.983573 69.0848813,173.666981 67.8816205,173.14324 C66.6772411,172.619499 65.5455719,171.926859 64.5712551,171.052443" id="Fill-20" fill="#717171"></path>
                <path d="M80.5647426,58.2502324 C80.7821275,57.7454266 80.9599878,57.226609 81.129645,56.704383 C81.3060139,56.1851866 81.4738067,55.6629607 81.631159,55.1380838 C81.942135,54.0883301 82.2512466,53.0351682 82.4604283,51.9695091 C82.6860164,50.9140749 82.6819148,49.8177413 82.6625254,48.725952 C82.649102,48.1787319 82.6133062,47.6315118 82.56707,47.0846704 C82.5320199,46.5355568 82.4712416,45.9894728 82.4141921,45.4407379 C82.6852707,46.5105627 82.8526906,47.6053816 82.9488918,48.7092892 C83.036144,49.810546 83.0525505,50.9386904 82.8258437,52.0429767 C82.6017471,53.1355234 82.2799578,54.1943659 81.9018647,55.2308651 C81.5148227,56.2620625 81.1255434,57.3000766 80.5647426,58.2502324" id="Fill-22" fill="#717171"></path>
                <path d="M21.3409321,47.1980529 C21.2462224,47.7884447 21.1574787,48.376943 21.0996834,48.9692282 C21.0310747,49.5592413 20.9818555,50.1515266 20.9602289,50.7430545 C20.9404666,51.334961 20.9303991,51.9261102 20.9725337,52.512715 C21.006838,53.101592 21.0761924,53.6768358 21.2167654,54.2513222 C21.4572685,55.4055968 21.8316328,56.5265459 22.3081644,57.6043234 C22.7772385,58.6885387 23.4368506,59.67202 24.0442605,60.6986731 C23.6930143,60.2215123 23.3104467,59.7663161 22.9700137,59.2747648 C22.6344282,58.7805625 22.3249437,58.2662893 22.0501363,57.7315662 C21.5023861,56.6613628 21.1067679,55.5112539 20.8528415,54.3327425 C20.5802714,53.148172 20.5631193,51.9166427 20.675354,50.7241195 C20.7860973,49.5270519 20.9993806,48.3432387 21.3409321,47.1980529" id="Fill-24" fill="#717171"></path>
                <path d="M82.4837329,75.0782916 C82.4837329,75.0782916 52.287368,72.1024747 23.9177075,75.4569906 C22.8222069,67.4671986 22.1275448,57.5592961 22.1275448,57.5592961 C22.1275448,57.5592961 23.663781,57.9470839 24.4490513,53.0005172 C25.9767115,44.5358366 24.9919543,30.6284937 24.9919543,30.6284937 L29.6014089,28.6130575 C29.6014089,28.6130575 31.7144795,45.8991531 32.669407,46.2948936 C39.3386114,49.0593965 53.8131639,51.8988817 71.9049563,46.1085737 C73.2674338,45.6726911 74.7220109,33.3528545 74.4788978,28.3407729 L79.8922663,29.9593325 C79.8922663,29.9593325 78.1904745,47.2291441 79.3027543,52.8289665 C79.7043384,54.8512193 81.7018184,55.3760962 81.7018184,55.3760962 C81.7018184,55.3760962 83.876786,58.2500431 82.4837329,75.0782916" id="Fill-26" fill="#FEFEFE"></path>
                <path d="M82.4716891,75.0635223 C82.5801951,73.4086076 82.6931756,71.7809592 82.7606656,70.1196066 C82.835613,68.4665853 82.8687987,66.8116706 82.8656735,65.1575133 C82.8449348,63.504492 82.8143593,61.8488199 82.6540239,60.2052661 C82.615618,59.7943777 82.5622972,59.3853827 82.5171796,58.9756304 C82.4534183,58.5685289 82.4019618,58.1587766 82.3210484,57.7562195 C82.2464739,57.3513903 82.1540014,56.9514841 82.0462411,56.5568797 C81.9299048,56.1732576 81.800145,55.7619905 81.609607,55.448049 L81.6726225,55.4904633 C81.1230078,55.3219422 80.6308156,55.0371606 80.2068592,54.6550532 C79.7843942,54.2744607 79.4581304,53.7776076 79.2828802,53.2288727 C78.9991239,52.1215568 78.9390914,51.0138621 78.8712285,49.9016231 C78.7638411,47.6782811 78.8007555,45.4549392 78.8730929,43.2357629 C79.0319367,38.7966529 79.350743,34.3681465 79.7616489,29.9464567 L79.8548672,30.0869541 L74.4392614,28.4778619 L74.6197319,28.3335776 C74.689832,29.9430485 74.6182404,31.545324 74.5198019,33.14457 C74.4161433,34.7430586 74.2669941,36.3377602 74.0772018,37.9282961 C73.8847994,39.5184533 73.6573469,41.1048235 73.3426422,42.6790753 C73.1815611,43.4656332 73.0055651,44.2502976 72.7460456,45.0205714 C72.6807929,45.2133292 72.606964,45.4045722 72.5193389,45.593543 C72.4276122,45.7813777 72.3358854,45.9711059 72.1569065,46.1430353 C72.1095516,46.1846922 72.0562308,46.2263491 71.9846392,46.2547515 C71.9182678,46.2820178 71.8850821,46.2876983 71.8339985,46.3054972 L71.550988,46.393734 L70.9853399,46.5709652 C64.9522566,48.4523419 58.6611453,49.502853 52.3476616,49.6433504 C46.0464827,49.7599897 39.6621532,49.0177396 33.7062546,46.8326462 C33.3259242,46.6898767 32.9873557,46.5588468 32.5820428,46.3823731 C32.4567575,46.2820178 32.4254362,46.1854496 32.3747255,46.08926 C32.3299808,45.9926918 32.2945578,45.8965022 32.2606264,45.8003127 C32.1935093,45.6071762 32.1375784,45.4129036 32.0853762,45.2182523 C31.8795503,44.4400258 31.7240623,43.654604 31.5745403,42.8676674 C31.2795978,41.294173 31.0294001,39.7142407 30.7900157,38.1331722 C30.3160943,34.9698993 29.8943751,31.8001885 29.5009942,28.6255545 L29.6411944,28.7073535 L25.0287568,30.7152158 L25.0846877,30.6216771 C25.2342098,32.9431021 25.3225806,35.2656632 25.3658339,37.5901178 C25.4079685,39.9145724 25.4016297,42.2397844 25.3207163,44.5638604 C25.236447,46.8871789 25.0876707,49.2112548 24.7688644,51.5171531 C24.5820551,52.6646112 24.4373804,53.8219154 24.118947,54.9489237 C23.9656962,55.5116704 23.7677007,56.0676006 23.4820801,56.5841461 C23.3374054,56.8401466 23.1718498,57.0904667 22.9488719,57.2949641 C22.7288769,57.4934024 22.4604084,57.6827519 22.1072978,57.6418524 L22.2109564,57.5536156 C22.420511,60.5430657 22.6703358,63.5313797 22.9522277,66.5159067 C23.0886992,68.0083595 23.2609665,69.4974041 23.4302507,70.9864486 C23.6047553,72.4747358 23.7945476,73.9615082 23.9996276,75.4452509 L23.9079009,75.3732981 L27.5549706,74.9790724 L29.3790648,74.7855572 L31.2068876,74.6336989 L34.8629063,74.337935 L38.524518,74.1171535 C43.4076613,73.8664547 48.2978892,73.674833 53.1888628,73.7119455 C58.0790907,73.7202769 62.9685728,73.8259339 67.8539534,74.0398989 C72.7329951,74.2504555 77.6332905,74.5727284 82.4716891,75.0635223 L82.4716891,75.0635223 Z M82.4955529,75.0926821 C80.0327275,74.8980308 77.6135283,74.7363264 75.1671093,74.6068113 L71.506989,74.415947 L67.8450044,74.259923 C62.9618611,74.0781475 58.0746162,74.0043012 53.1892357,74.0281592 C50.7461725,74.0357332 48.304228,74.084964 45.8615378,74.1251061 C44.6400062,74.1383606 43.420339,74.2004672 42.1991803,74.2356863 C40.9783945,74.2784792 39.7572358,74.3110474 38.5383143,74.3867872 L34.8789398,74.5837107 L31.2244127,74.8541018 L29.3973355,74.9927056 L27.5739871,75.1729663 L23.9269174,75.5406831 L23.8456311,75.5486358 L23.8355636,75.4683516 C23.6401782,73.9815792 23.4604535,72.4925346 23.2967623,71.0019753 L22.8347728,66.5276463 C22.5364744,63.543498 22.2702432,60.5566988 22.0439094,57.5653552 L22.036079,57.4631065 L22.147568,57.4771184 C22.376512,57.5047634 22.6446076,57.3544199 22.8355185,57.1692361 C23.0383613,56.9832948 23.1972052,56.7454718 23.335541,56.4993175 C23.6103484,56.0020857 23.804988,55.4563804 23.9552558,54.9012076 C24.268469,53.7916195 24.4131437,52.63583 24.5980886,51.4929164 C24.9142848,49.1957281 25.0615696,46.8761966 25.1443474,44.5574225 C25.2233965,42.2375123 25.2282438,39.9153298 25.1846177,37.5939048 C25.1402458,35.2724798 25.0503834,32.9506761 24.9001157,30.6353103 L24.8956412,30.5686592 L24.9556737,30.5421503 L29.5617725,28.5187614 L29.6848205,28.4646075 L29.7019727,28.6005604 C30.0987094,31.771786 30.5278861,34.9399821 31.0074006,38.099468 C31.2490223,39.678643 31.502203,41.2563031 31.7990098,42.824117 C31.9496504,43.6072666 32.1066299,44.3904162 32.3102185,45.1557669 C32.361675,45.3466312 32.417233,45.5363594 32.4813672,45.7207859 C32.5138071,45.812431 32.5477385,45.9029401 32.5872631,45.9877687 C32.6234317,46.0684316 32.6789898,46.1608341 32.7121755,46.1831774 L33.238672,46.3910831 C33.420634,46.4641721 33.6066975,46.5274148 33.7905239,46.5967167 C36.7485244,47.6635119 39.8362848,48.3319156 42.944926,48.761739 C46.0554317,49.1949707 49.2009873,49.3559178 52.3402041,49.2881307 C55.4801667,49.2241305 58.6137904,48.9086743 61.7123641,48.3940223 C64.8113106,47.8736898 67.8748343,47.142422 70.88802,46.241497 L71.4529225,46.0710825 L71.7351872,45.9862539 C71.776949,45.9726207 71.8407103,45.9567154 71.864947,45.9442183 C71.8850821,45.9374017 71.9126747,45.9180881 71.9391487,45.8946087 C72.0495191,45.79236 72.1453474,45.6200519 72.2251422,45.4507735 C72.3056827,45.2784654 72.3765286,45.0970686 72.439917,44.9118848 C72.6919791,44.169256 72.8694665,43.3914082 73.0309205,42.6135604 C73.3467438,41.0540778 73.5775522,39.4737668 73.7733104,37.8904262 C73.9660857,36.3063281 74.1189636,34.7165496 74.2267238,33.1244989 C74.3285181,31.5332057 74.4030927,29.9350958 74.3385857,28.3479682 L74.3300096,28.1465003 L74.5190562,28.2036838 L79.9294417,29.8320896 L80.0327275,29.8635217 L80.02266,29.9729657 C79.6072796,34.3867028 79.2843717,38.8136944 79.1214262,43.2448517 C79.0468516,45.4594835 79.0080728,47.6786598 79.1124773,49.8883686 C79.1762385,50.9858384 79.2433556,52.1117106 79.5095869,53.154269 C79.8235458,54.1816795 80.7348472,54.9511959 81.7315364,55.2617291 L81.7777726,55.2761196 L81.7945519,55.3037647 C82.0313262,55.6979903 82.1383407,56.0895651 82.2625074,56.4940157 C82.3698948,56.8980876 82.4612486,57.305189 82.5332131,57.7149413 C82.612635,58.1239363 82.6618542,58.5367182 82.7233783,58.9476067 C82.7658858,59.3607673 82.8165965,59.7731705 82.8523923,60.1867099 C83.0015414,61.8408672 83.0242867,63.500705 83.0283883,65.1575133 C83.0112361,66.8150789 82.9567967,68.4715084 82.8609684,70.1249084 C82.8061561,70.9531231 82.7714789,71.7741426 82.7002602,72.6084166 L82.4955529,75.0926821 Z" id="Fill-28" fill="#717171"></path>
                <path d="M50.3245279,98.3475667 C50.872651,98.7391415 51.3760294,99.2056987 51.779105,99.7707176 C51.9808292,100.05247 52.151605,100.365654 52.2556366,100.720116 C52.3522106,101.070034 52.3473633,101.502887 52.1303513,101.844095 C52.0244554,102.007693 51.8838823,102.152734 51.7392076,102.252332 C51.6019904,102.366699 51.4401636,102.458723 51.2723708,102.535599 C50.9304463,102.684049 50.4990324,102.676475 50.174633,102.488641 C49.8453862,102.310652 49.6093577,102.027385 49.4355989,101.728213 C49.2700434,101.422224 49.1406565,101.099194 49.0847255,100.762152 C49.221197,101.072685 49.3804137,101.368449 49.5866124,101.623313 C49.7842351,101.881965 50.0284668,102.103125 50.300664,102.221658 C50.5728612,102.338676 50.8678037,102.336782 51.1347807,102.205374 C51.265659,102.135693 51.3984018,102.06374 51.5162296,101.959598 C51.6463623,101.866817 51.7377161,101.760781 51.8149008,101.642627 C51.9703888,101.40897 51.9819479,101.107146 51.9148307,100.80911 C51.8458493,100.507666 51.6996831,100.216068 51.5371105,99.9331795 C51.1974233,99.3730837 50.7764498,98.8474494 50.3245279,98.3475667" id="Fill-30" fill="#717171"></path>
                <path d="M35.9310379,28.5175496 C36.4157727,27.2277007 36.5742437,25.8549168 36.5906501,24.4878133 C36.6100395,23.8035041 36.5757352,23.1180589 36.5328548,22.4341285 C36.4866185,21.7494406 36.4202472,21.0655102 36.3300119,20.3830946 C36.4963132,21.0514983 36.599599,21.7350501 36.6756651,22.420874 C36.7483753,23.107834 36.7819339,23.7989598 36.7767136,24.4908429 C36.7524769,25.1815899 36.7084779,25.8749878 36.5783453,26.5562673 C36.4429924,27.234896 36.2449969,27.9048146 35.9310379,28.5175496" id="Fill-32" fill="#717171"></path>
                <path d="M18.9660674,49.0593965 C19.3415504,49.8660254 19.6372386,50.6874236 19.9497061,51.5012478 C20.0984824,51.9106214 20.2569534,52.3154507 20.4165429,52.7191438 C20.580607,53.1217009 20.7409424,53.5231219 20.953107,53.9135606 C20.6167757,53.6193114 20.3710525,53.2341745 20.1547862,52.8479015 C19.9366555,52.4593563 19.759168,52.0503614 19.6014428,51.636822 C19.4489378,51.2202531 19.3113477,50.7995185 19.2054518,50.3689377 C19.0969458,49.9398717 19.0074563,49.5051252 18.9660674,49.0593965" id="Fill-34" fill="#717171"></path>
                <path d="M24.9367691,103.43304 C25.9532205,104.140071 27.0326876,104.745611 28.1304253,105.308358 C29.2277902,105.872998 30.3557307,106.374017 31.4970946,106.836408 C33.7783309,107.7646 36.1237014,108.530329 38.5138165,109.105573 C43.2899453,110.284463 48.2167148,110.764653 53.1244677,110.680961 C55.5798356,110.630215 58.0307291,110.435564 60.4678263,110.121244 C62.8989575,109.768296 65.3218855,109.337337 67.7093906,108.742779 C70.1073361,108.190636 72.4620283,107.460126 74.7988227,106.680763 C75.9677792,106.293354 77.1162277,105.842702 78.276981,105.426512 L81.7018184,104.022675 L78.3109124,105.512476 C77.1598538,105.958205 76.0203543,106.438396 74.8584824,106.856101 L73.1070984,107.458611 L72.2304743,107.759298 L71.3434097,108.024387 L69.5681619,108.554566 C68.9775312,108.734826 68.37385,108.867371 67.7776263,109.026046 C65.3904941,109.667183 62.9533969,110.090569 60.5129439,110.46283 C58.0650334,110.790026 55.6010894,110.998311 53.1311794,111.059281 C48.1950881,111.112299 43.2343873,110.633623 38.4455808,109.387704 C36.0509911,108.774211 33.7033835,107.975156 31.4277402,107.006823 C30.2934609,106.513757 29.1748423,105.983199 28.0886636,105.390157 C27.0024848,104.798629 25.9360684,104.165823 24.9367691,103.43304" id="Fill-36" fill="#717171"></path>
                <path d="M21.4024934,118.497422 C24.0021632,119.910727 26.5876638,121.350919 29.1649611,122.806638 C31.7362926,124.273718 34.2945734,125.763899 36.8375665,127.282103 C39.393983,128.779858 41.8635201,130.422276 44.4400717,131.863226 C45.7261103,132.588434 47.0296739,133.283347 48.3608301,133.911987 C49.0267811,134.224414 49.6998167,134.521314 50.3844113,134.778072 C51.0675144,135.022712 51.7711255,135.272274 52.4657877,135.294996 C53.893518,135.33173 55.2787408,134.716723 56.5614235,134.035443 C57.853428,133.338637 59.0854,132.517239 60.3184907,131.699628 C61.5500898,130.878608 62.7805703,130.049636 64.0405078,129.264972 C65.2944793,128.469704 66.6051275,127.762673 67.9258433,127.094647 C73.2254856,124.446784 78.6873276,122.165122 84.2192697,120.090988 C81.4667221,121.164221 78.7566819,122.346519 76.057828,123.54851 C73.3604656,124.753151 70.6735436,125.98771 68.0548573,127.353678 C66.7453277,128.037608 65.4563061,128.750698 64.2094192,129.543315 C62.9584307,130.329116 61.7350348,131.16036 60.5049271,131.987439 C59.2725822,132.810352 58.0394916,133.64046 56.7284705,134.354308 C56.0737057,134.711042 55.3965686,135.034072 54.6862457,135.283256 C53.97555,135.525245 53.2238383,135.700204 52.4538558,135.672938 C51.6682126,135.641506 50.9582626,135.376416 50.2580074,135.125339 C49.5607351,134.86025 48.8809878,134.557669 48.2105624,134.239941 C46.8700843,133.600697 45.5635377,132.897453 44.2748891,132.164291 C42.9862404,131.43113 41.7169811,130.662371 40.4630096,129.872405 L36.6906546,127.532045 C34.1674238,125.984681 31.6262951,124.467612 29.0747259,122.967585 C26.528377,121.45847 23.9727062,119.96526 21.4024934,118.497422" id="Fill-38" fill="#717171"></path>
            </g>
            <g id="Group-5" transform="translate(19.561538, 49.926606)">
                <g filter="url(#filter-2)" id="Group">
                    <g transform="translate(0.000000, 10.045872)">
                        <g id="Group-2" transform="translate(2.023077, 0.000000)" stroke="#F5A503" stroke-width="1.05">
                            <g id="Group-12" transform="translate(0.217262, 0.500000)">
                                <path d="M0.440018315,0.697247706 C0.440018315,4.39603548 14.0553589,7.39449541 30.8507326,7.39449541 C47.6461063,7.39449541 61.2614469,4.39603548 61.2614469,0.697247706" id="Path"></path>
                            </g>
                            <line x1="61.2716634" y1="1.02752294" x2="131.904968" y2="1.02752294" id="Path-3-Copy" stroke-dasharray="2.8"></line>
                        </g>
                        <g id="Group-2-Copy-2" transform="translate(0.000000, 53.321096)" stroke="#F5A503" stroke-width="1.05">
                            <g id="Group-12" transform="translate(0.334615, 1.334862)">
                                <path d="M0.905723928,0.394495413 C0.905723928,3.25437661 15.3445407,8.09174312 33.1557239,8.09174312 C50.9669071,8.09174312 65.4057239,3.25437661 65.4057239,0.394495413" id="Path"></path>
                            </g>
                            <line x1="66.4433785" y1="1.33486239" x2="133.680005" y2="1.2293578" id="Path-3-Copy" stroke-dasharray="2.8"></line>
                        </g>
                        <g id="Group-2-Copy" transform="translate(1.730769, 33.903665)" stroke="#F5A503" stroke-width="1.05">
                            <g id="Group-12" transform="translate(0.792308, 0.000000)">
                                <path d="M0.717262389,0.697247706 C0.717262389,4.39603548 14.0367911,7.39449541 30.4672624,7.39449541 C46.8977337,7.39449541 60.2172624,4.39603548 60.2172624,0.697247706" id="Path"></path>
                            </g>
                            <line x1="61.7197104" y1="1.02293578" x2="131.931811" y2="1.02293578" id="Path-3-Copy" stroke-dasharray="2.8"></line>
                        </g>
                        <g id="Group-2-Copy-3" transform="translate(2.730769, 13.027523)" stroke="#F5A503" stroke-width="1.05">
                            <g id="Group-12" transform="translate(0.945055, 2.000000)">
                                <path d="M0.0645151363,-2.27373675e-13 C0.0645151363,3.86599325 13.1601862,7 29.3145151,7 C45.4688441,7 58.5645151,3.86599325 58.5645151,-2.27373675e-13" id="Path"></path>
                            </g>
                            <line x1="60.952128" y1="2" x2="130.707692" y2="2.5" id="Path-3-Copy" stroke-dasharray="2.8"></line>
                        </g>
                    </g>
                </g>
                <text id="BUST" font-family="Muli-Regular_Light, Muli" font-size="7" font-weight="300" fill="#333333">
                    <tspan x="115.151948" y="7.5">BUST</tspan>
                </text>
                <text id="Under-bust" font-family="Muli-Regular_Light, Muli" font-size="7" font-weight="300" fill="#333333">
                    <tspan x="88.9943823" y="22.5">UNDER BUST</tspan>
                </text>
                <text id="waist" font-family="Muli-Regular_Light, Muli" font-size="7" font-weight="300" fill="#333333">
                    <tspan x="110.40128" y="53.3990781">WAIST</tspan>
                </text>
                <text id="hip" font-family="Muli-Regular_Light, Muli" font-size="7" font-weight="300" fill="#333333">
                    <tspan x="121.86782" y="73.0229313">HIP</tspan>
                </text>
            </g>
            <path d="M22.3018778,54.4724771 C22.3018778,58.1712648 35.8452641,61.1697248 52.5518778,61.1697248 C69.2584915,61.1697248 82.8018778,58.1712648 82.8018778,54.4724771" id="Path" stroke="#D8D8D8" stroke-width="0.7" opacity="0.800000012" style="mix-blend-mode: darken;" stroke-dasharray="2.8" transform="translate(52.551878, 57.821101) scale(1, -1) translate(-52.551878, -57.821101) "></path>
            <path d="M20.8018778,108.325684 C20.8018778,112.024471 35.2406946,115.022931 53.0518778,115.022931 C70.863061,115.022931 85.3018778,112.024471 85.3018778,108.325684" id="Path" stroke="#D8D8D8" stroke-width="0.7" opacity="0.800000012" style="mix-blend-mode: darken;" stroke-dasharray="2.8" transform="translate(53.051878, 111.674307) scale(1, -1) translate(-53.051878, -111.674307) "></path>
            <path d="M22.8018778,87.8761423 C22.8018778,91.5749301 36.1214065,94.57339 52.5518778,94.57339 C68.9823491,94.57339 82.3018778,91.5749301 82.3018778,87.8761423" id="Path" stroke="#D8D8D8" stroke-width="0.7" opacity="0.800000012" style="mix-blend-mode: darken;" stroke-dasharray="2.8" transform="translate(52.551878, 91.224766) scale(1, -1) translate(-52.551878, -91.224766) "></path>
            <path d="M23.3018778,68 C23.3018778,71.8659932 36.3975488,75 52.5518778,75 C68.7062067,75 81.8018778,71.8659932 81.8018778,68" id="Path" stroke="#D8D8D8" stroke-width="0.7" opacity="0.800000012" style="mix-blend-mode: darken;" stroke-dasharray="2.8" transform="translate(52.551878, 71.500000) scale(1, -1) translate(-52.551878, -71.500000) "></path>
        </g>
        <path d="M74.5478516,44.6130778 C71.3146362,43.6465003 68.7383927,42.3275618 66.8957214,40.8276672 C65.1826574,39.4332702 64.3468323,38.0162964 63.7958984,37.01297 C65.3626941,40.4953986 68.9466784,43.0944146 74.5478516,44.8100179 C74.6148003,44.7248876 74.6148003,44.6592409 74.5478516,44.6130778 Z" id="Path-13" fill="#717171"></path>
    </g>
</svg>