<?xml version="1.0" standalone="no"?><!DOCTYPE svg PUBLIC "-//W3C//DTD SVG 1.1//EN" "http://www.w3.org/Graphics/SVG/1.1/DTD/svg11.dtd"><svg t="1606119759593" class="icon" viewBox="0 0 1621 1024" version="1.1" xmlns="http://www.w3.org/2000/svg" p-id="46147" xmlns:xlink="http://www.w3.org/1999/xlink" width="316.6015625" height="200"><defs><style type="text/css"></style></defs><path d="M179.2 8.533333h1258.666667c93.866667 0 170.666667 76.8 170.666666 170.666667v661.333333c0 93.866667-76.8 170.666667-170.666666 170.666667H179.2c-93.866667 0-170.666667-76.8-170.666667-170.666667V179.2c0-93.866667 76.8-170.666667 170.666667-170.666667z" fill="#FFFFFF" p-id="46148"></path><path d="M1442.133333 1024H179.2C81.066667 1024 0 942.933333 0 844.8V179.2C0 81.066667 81.066667 0 179.2 0h1258.666667C1540.266667 0 1621.333333 81.066667 1621.333333 179.2v661.333333c0 102.4-81.066667 183.466667-179.2 183.466667zM179.2 21.333333C89.6 21.333333 17.066667 93.866667 17.066667 183.466667v661.333333c0 89.6 72.533333 162.133333 162.133333 162.133333h1258.666667c89.6 0 162.133333-72.533333 162.133333-162.133333V179.2c0-89.6-72.533333-162.133333-162.133333-162.133333H179.2z" fill="#D8D8D8" p-id="46149"></path><path d="M1011.2 396.8c8.533333-42.666667 0-72.533333-25.6-98.133333-25.6-29.866667-72.533333-42.666667-128-42.666667h-170.666667c-12.8 0-21.333333 8.533333-25.6 21.333333l-64 426.666667c0 8.533333 4.266667 17.066667 12.8 17.066667h110.933334l17.066666-145.066667 76.8-93.866667 196.266667-85.333333z" fill="#003087" p-id="46150"></path><path d="M1011.2 396.8l-8.533333 8.533333c-21.333333 119.466667-93.866667 162.133333-192 162.133334h-46.933334c-12.8 0-21.333333 8.533333-25.6 21.333333l-25.6 166.4-8.533333 42.666667c0 8.533333 4.266667 17.066667 12.8 17.066666h89.6c12.8 0 21.333333-8.533333 21.333333-17.066666v-4.266667l17.066667-102.4V682.666667c0-8.533333 12.8-17.066667 21.333333-17.066667h12.8c89.6 0 153.6-34.133333 170.666667-136.533333 8.533333-42.666667 4.266667-76.8-17.066667-102.4-4.266667-17.066667-12.8-25.6-21.333333-29.866667z" fill="#3086C8" p-id="46151"></path><path d="M985.6 388.266667c-4.266667-4.266667-8.533333-4.266667-12.8-4.266667-4.266667 0-8.533333 0-12.8-4.266667-12.8-4.266667-29.866667-4.266667-46.933333-4.266666h-123.733334c-4.266667 0-8.533333 0-8.533333 4.266666-8.533333 4.266667-12.8 8.533333-12.8 17.066667l-29.866667 187.733333v4.266667c0-12.8 12.8-21.333333 25.6-21.333333h55.466667c102.4 0 170.666667-42.666667 192-162.133334v-8.533333c-4.266667-4.266667-12.8-8.533333-25.6-8.533333z" fill="#012169" p-id="46152"></path></svg>