<?xml version="1.0" encoding="UTF-8"?>
<svg width="52px" height="52px" viewBox="0 0 52 52" version="1.1" xmlns="http://www.w3.org/2000/svg" xmlns:xlink="http://www.w3.org/1999/xlink">
    <title>icon / web / 52 / 暂停</title>
    <g id="icon-/-web-/-52-/-暂停" stroke="none" stroke-width="1" fill="none" fill-rule="evenodd">
        <g id="播放" transform="translate(6.338426, 3.461640)" fill="#FFFFFF" fill-rule="nonzero">
            <path d="M37.081698,0.901704037 L29.108157,0.901704037 C28.2607665,0.901704037 27.5747837,1.58768682 27.5747837,2.43507732 L27.5747837,42.6417388 C27.5747837,43.4891293 28.2607665,44.175112 29.108157,44.175112 L37.081698,44.175112 C37.9290885,44.175112 38.6150713,43.4891293 38.6150713,42.6417388 L38.6150713,2.43507732 C38.6150713,1.58768682 37.9290885,0.901704037 37.081698,0.901704037 Z M9.90063909,0.901704037 L1.92709804,0.901704037 C1.07970754,0.901704037 0.39372476,1.58768682 0.39372476,2.43507732 L0.39372476,42.6417388 C0.39372476,43.4891293 1.07970754,44.175112 1.92709804,44.175112 L9.90063909,44.175112 C10.7480296,44.175112 11.4340124,43.4891293 11.4340124,42.6417388 L11.4340124,2.43507732 C11.4340124,1.58768682 10.7480296,0.901704037 9.90063909,0.901704037 Z" id="Shape"></path>
        </g>
    </g>
</svg>