<?xml version="1.0" standalone="no"?><!DOCTYPE svg PUBLIC "-//W3C//DTD SVG 1.1//EN" "http://www.w3.org/Graphics/SVG/1.1/DTD/svg11.dtd"><svg t="1603094033754" class="icon" viewBox="0 0 1621 1024" version="1.1" xmlns="http://www.w3.org/2000/svg" p-id="8321" xmlns:xlink="http://www.w3.org/1999/xlink" width="31.66015625" height="20"><defs><style type="text/css"></style></defs><path d="M179.2 8.533333h1258.666667c93.866667 0 170.666667 76.8 170.666666 170.666667v661.333333c0 93.866667-76.8 170.666667-170.666666 170.666667H179.2c-93.866667 0-170.666667-76.8-170.666667-170.666667V179.2c0-93.866667 76.8-170.666667 170.666667-170.666667z" fill="#FFFFFF" p-id="8322"></path><path d="M1442.133333 1024H179.2C81.066667 1024 0 942.933333 0 844.8V179.2C0 81.066667 81.066667 0 179.2 0h1258.666667C1540.266667 0 1621.333333 81.066667 1621.333333 179.2v661.333333c0 102.4-81.066667 183.466667-179.2 183.466667zM179.2 21.333333C89.6 21.333333 17.066667 93.866667 17.066667 183.466667v661.333333c0 89.6 72.533333 162.133333 162.133333 162.133333h1258.666667c89.6 0 162.133333-72.533333 162.133333-162.133333V179.2c0-89.6-72.533333-162.133333-162.133333-162.133333H179.2z" fill="#D8D8D8" p-id="8323"></path><path d="M640 810.666667c166.4 0 298.666667-132.266667 298.666667-298.666667s-132.266667-298.666667-298.666667-298.666667-298.666667 132.266667-298.666667 298.666667 132.266667 298.666667 298.666667 298.666667z" fill="#EB001B" p-id="8324"></path><path d="M981.333333 810.666667c166.4 0 298.666667-132.266667 298.666667-298.666667s-132.266667-298.666667-298.666667-298.666667-298.666667 132.266667-298.666666 298.666667 132.266667 298.666667 298.666666 298.666667z" fill="#F79E1B" p-id="8325"></path><path d="M938.666667 503.466667c0-98.133333-51.2-187.733333-128-238.933334-76.8 55.466667-115.2 110.933333-128 226.133334-12.8 110.933333 51.2 217.6 128 268.8 76.8-51.2 128-157.866667 128-256z" fill="#FF5F00" p-id="8326"></path></svg>