<?xml version="1.0" standalone="no"?><!DOCTYPE svg PUBLIC "-//W3C//DTD SVG 1.1//EN" "http://www.w3.org/Graphics/SVG/1.1/DTD/svg11.dtd"><svg t="1603095028380" class="icon" viewBox="0 0 2688 1024" version="1.1" xmlns="http://www.w3.org/2000/svg" p-id="9104" xmlns:xlink="http://www.w3.org/1999/xlink" width="52.5" height="20"><defs><style type="text/css"></style></defs><path d="M179.2 8.533333h2325.333333c93.866667 0 170.666667 76.8 170.666667 170.666667v661.333333c0 93.866667-76.8 170.666667-170.666667 170.666667H179.2c-93.866667 0-170.666667-76.8-170.666667-170.666667V179.2c0-93.866667 76.8-170.666667 170.666667-170.666667z" fill="#FFFFFF" p-id="9105"></path><path d="M2508.8 1024H179.2C81.066667 1024 0 942.933333 0 844.8V179.2C0 81.066667 81.066667 0 179.2 0h2325.333333C2606.933333 0 2688 81.066667 2688 179.2v661.333333c0 102.4-81.066667 183.466667-179.2 183.466667zM179.2 21.333333C89.6 21.333333 17.066667 93.866667 17.066667 183.466667v661.333333c0 89.6 72.533333 162.133333 162.133333 162.133333h2325.333333c89.6 0 162.133333-72.533333 162.133334-162.133333V179.2c0-89.6-72.533333-162.133333-162.133334-162.133333H179.2z" fill="#D8D8D8" p-id="9106"></path><path d="M2120.533333 396.8c0-42.666667 46.933333-68.266667 85.333334-46.933333l132.266666 72.533333c38.4 21.333333 38.4 76.8 0 98.133333l-132.266666 72.533334c-38.4 21.333333-85.333333-4.266667-85.333334-46.933334v-8.533333c0-8.533333-8.533333-17.066667-17.066666-8.533333l-115.2 64c-8.533333 4.266667-8.533333 17.066667 0 21.333333l115.2 64c8.533333 4.266667 17.066667 0 17.066666-8.533333v-17.066667c0-8.533333 8.533333-12.8 17.066667-8.533333l25.6 12.8c4.266667 4.266667 8.533333 8.533333 8.533333 17.066666v8.533334c0 42.666667-46.933333 68.266667-85.333333 46.933333l-132.266667-72.533333c-38.4-21.333333-38.4-76.8 0-98.133334l132.266667-72.533333c38.4-21.333333 85.333333 4.266667 85.333333 46.933333v8.533334c0 8.533333 8.533333 17.066667 17.066667 8.533333l115.2-64c8.533333-4.266667 8.533333-17.066667 0-21.333333l-115.2-64c-8.533333-4.266667-17.066667 0-17.066667 8.533333v17.066667c0 8.533333-8.533333 12.8-17.066666 8.533333l-25.6-12.8c-4.266667-4.266667-8.533333-8.533333-8.533334-17.066667v-8.533333zM1322.666667 422.4c59.733333 0 102.4 46.933333 102.4 106.666667s-46.933333 106.666667-102.4 106.666666c-25.6 0-51.2-8.533333-64-25.6v110.933334h-55.466667V426.666667h51.2v25.6c17.066667-17.066667 42.666667-29.866667 68.266667-29.866667z m430.933333 4.266667l51.2 119.466666 51.2-119.466666h55.466667l-132.266667 290.133333h-55.466667l51.2-110.933333-85.333333-179.2h64zM401.066667 422.4c25.6 0 51.2 12.8 68.266666 29.866667V426.666667h51.2v204.8H469.333333v-25.6c-17.066667 17.066667-38.4 29.866667-68.266666 29.866666-59.733333 0-102.4-42.666667-102.4-106.666666C298.666667 469.333333 345.6 422.4 401.066667 422.4z m516.266666 0c64 0 110.933333 46.933333 110.933334 106.666667v12.8h-162.133334c4.266667 29.866667 25.6 46.933333 55.466667 46.933333 21.333333 0 38.4-8.533333 51.2-25.6H1024c-12.8 42.666667-55.466667 72.533333-106.666667 72.533333-64 0-110.933333-42.666667-110.933333-106.666666 0-59.733333 51.2-106.666667 110.933333-106.666667z m631.466667 0c25.6 0 51.2 12.8 68.266667 29.866667V426.666667h51.2v204.8h-51.2v-25.6c-17.066667 17.066667-38.4 29.866667-68.266667 29.866666-59.733333 0-102.4-46.933333-102.4-106.666666s46.933333-106.666667 102.4-106.666667zM669.866667 349.866667v38.4h-12.8c-17.066667 0-25.6 8.533333-25.6 25.6v12.8h68.266666V375.466667h55.466667V426.666667h34.133333v46.933333h-34.133333v93.866667c0 17.066667 4.266667 25.6 25.6 25.6h12.8V640h-29.866667c-42.666667 0-59.733333-17.066667-59.733333-59.733333v-102.4h-68.266667V640h-55.466666v-162.133333h-29.866667V426.666667h29.866667v-21.333334c0-42.666667 21.333333-55.466667 64-55.466666h25.6z m486.4 72.533333c12.8 0 21.333333 4.266667 21.333333 4.266667v51.2s-21.333333-12.8-38.4-8.533334c-17.066667 4.266667-29.866667 21.333333-29.866667 42.666667v123.733333h-55.466666V426.666667H1109.333333v21.333333s12.8-25.6 46.933334-25.6zM409.6 469.333333c-34.133333 0-59.733333 25.6-59.733333 59.733334 0 34.133333 25.6 59.733333 59.733333 59.733333 34.133333 0 59.733333-25.6 59.733333-59.733333S443.733333 469.333333 409.6 469.333333z m904.533333 0c-34.133333 0-59.733333 25.6-59.733333 59.733334 0 34.133333 25.6 59.733333 59.733333 59.733333 34.133333 0 59.733333-25.6 59.733334-59.733333 0-34.133333-25.6-59.733333-59.733334-59.733334z m243.2 0c-34.133333 0-59.733333 25.6-59.733333 59.733334 0 34.133333 25.6 59.733333 59.733333 59.733333 34.133333 0 59.733333-25.6 59.733334-59.733333s-25.6-59.733333-59.733334-59.733334z m-640 0c-25.6 0-46.933333 17.066667-55.466666 42.666667h106.666666c0-25.6-25.6-42.666667-51.2-42.666667z" p-id="9107"></path></svg>