<?xml version="1.0" encoding="UTF-8"?>
<svg width="30px" height="30px" viewBox="0 0 30 30" version="1.1" xmlns="http://www.w3.org/2000/svg" xmlns:xlink="http://www.w3.org/1999/xlink">
    <title>通用/footer/ic/facebook</title>
    <g id="通用/footer/ic/facebook" stroke="none" stroke-width="1" fill="none" fill-rule="evenodd">
        <path d="M20,5.15143265 L20,8.48316286 L18.182851,8.48316286 C17.5192713,8.48316286 17.0717414,8.63460523 16.8402595,8.93748951 C16.6087776,9.24037468 16.4930367,9.69470132 16.4930367,10.3004717 L16.4930367,12.6856899 L19.8842469,12.6856899 L19.4328586,16.4212729 L16.4930427,16.4212729 L16.4930427,26 L12.9513812,26 L12.9513812,16.4212729 L10,16.4212729 L10,12.6856899 L12.9513812,12.6856899 L12.9513812,9.93449526 C12.9513812,8.36959114 13.3526151,7.1559369 14.1550847,6.29357009 C14.9575524,5.43119003 16.0262265,5 17.361107,5 C18.4953655,5 19.3749952,5.05048071 20,5.15144236 L20,5.15143265 Z" id="facebook" fill="#333333" fill-rule="nonzero"></path>
    </g>
</svg>