<?xml version="1.0" encoding="UTF-8"?>
<svg width="14px" height="14px" viewBox="0 0 14 14" version="1.1" xmlns="http://www.w3.org/2000/svg" xmlns:xlink="http://www.w3.org/1999/xlink">
    <title>topbar/ic/搜索 copy</title>
    <g id="wap" stroke="none" stroke-width="1" fill="none" fill-rule="evenodd">
        <g id="6.1-搜索-输入中" transform="translate(-345.000000, -103.000000)">
            <g id="Group-3" transform="translate(16.000000, 86.000000)">
                <g id="topbar/ic/搜索-copy" transform="translate(329.000000, 17.000000)">
                    <g id="Group" transform="translate(-2.000000, -2.000000)" fill="#E9E9E9" opacity="0">
                        <rect id="Rectangle" x="0" y="0" width="18" height="18"></rect>
                    </g>
                    <circle id="Oval" fill="#999999" cx="7" cy="7" r="7"></circle>
                    <path d="M7.3714,2.75 C7.45623094,2.75 7.525,2.81876906 7.525,2.9036 L7.524,6.474 L11.0964,6.475 C11.1812309,6.475 11.25,6.54376906 11.25,6.6286 L11.25,7.3714 C11.25,7.45623094 11.1812309,7.525 11.0964,7.525 L7.524,7.524 L7.525,11.0964 C7.525,11.1812309 7.45623094,11.25 7.3714,11.25 L6.6286,11.25 C6.54376906,11.25 6.475,11.1812309 6.475,11.0964 L6.474,7.524 L2.9036,7.525 C2.81876906,7.525 2.75,7.45623094 2.75,7.3714 L2.75,6.6286 C2.75,6.54376906 2.81876906,6.475 2.9036,6.475 L6.474,6.474 L6.475,2.9036 C6.475,2.81876906 6.54376906,2.75 6.6286,2.75 L7.3714,2.75 Z" id="Combined-Shape" fill="#FFFFFF" transform="translate(7.000000, 7.000000) rotate(-315.000000) translate(-7.000000, -7.000000) "></path>
                </g>
            </g>
        </g>
    </g>
</svg>