<?xml version="1.0" encoding="UTF-8"?>
<svg width="20px" height="20px" viewBox="0 0 20 20" version="1.1" xmlns="http://www.w3.org/2000/svg" xmlns:xlink="http://www.w3.org/1999/xlink">
    <title>icon /web/20/结算步骤/2 ing</title>
    <g id="icon-/web/20/结算步骤/2-ing" stroke="none" stroke-width="1" fill="none" fill-rule="evenodd">
        <g id="Group-2" fill="#000000" opacity="0">
            <rect id="Rectangle" x="0" y="0" width="20" height="20"></rect>
        </g>
        <g id="Group-15">
            <circle id="Oval" stroke="#333333" stroke-width="1.3" fill="#333333" cx="10" cy="10" r="9.35"></circle>
            <path d="M13.416,15.04 L13.416,13.85 L8.71,13.851 L11.372,10.98 C11.8865,10.4246667 12.272375,9.91399479 12.529625,9.44798437 L12.632,9.251 C12.884,8.733 13.01,8.18933333 13.01,7.62 C13.01,7.06933333 12.884,6.59566667 12.632,6.199 C12.38,5.80233333 12.023,5.49666667 11.561,5.282 C11.099,5.06733333 10.5553333,4.96 9.93,4.96 C9.30466667,4.96 8.691,5.06733333 8.089,5.282 C7.487,5.49666667 6.98533333,5.786 6.584,6.15 L6.584,6.15 L7.102,7.228 C7.55933333,6.864 8.019,6.591 8.481,6.409 C8.943,6.227 9.40733333,6.136 9.874,6.136 C10.4153333,6.136 10.833,6.269 11.127,6.535 C11.421,6.801 11.568,7.186 11.568,7.69 C11.568,8.082 11.4676667,8.47633333 11.267,8.873 C11.0663333,9.26966667 10.7466667,9.71066667 10.308,10.196 L10.308,10.196 L6.878,13.962 L6.878,15.04 L13.416,15.04 Z" id="2" fill="#FFFFFF" fill-rule="nonzero"></path>
        </g>
    </g>
</svg>