<?xml version="1.0" encoding="UTF-8"?>
<svg width="114px" height="34px" viewBox="0 0 114 34" version="1.1" xmlns="http://www.w3.org/2000/svg" xmlns:xlink="http://www.w3.org/1999/xlink">
    <title>通用/footer/ic/APP Store</title>
    <g id="通用/footer/ic/APP-Store" stroke="none" stroke-width="1" fill="none" fill-rule="evenodd">
        <g id="APP-Store">
            <rect id="矩形" stroke="#333333" stroke-width="0.6" x="0.3" y="0.3" width="113.4" height="33.4"></rect>
            <g transform="translate(10.778441, 5.544610)" fill="#333333" id="路径">
                <path d="M14.632447,11.4532234 L14.632447,11.4532287 C14.6528707,9.77415408 15.532636,8.22276554 16.9631137,7.34331825 L16.9631138,7.34331843 C16.0558394,6.052857 14.5960864,5.2623404 13.0195526,5.20771532 C11.3559946,5.03882619 9.74394779,6.20416122 8.89951531,6.20416122 C8.03818073,6.20416122 6.73857884,5.22460424 5.32836776,5.25838206 L5.32836759,5.25838207 C3.48349129,5.31665311 1.80445621,6.33856663 0.905154558,7.95047487 C-1.00329266,11.2674641 0.423820525,16.1289312 2.25626763,18.8041417 C3.16826896,20.121477 4.23987052,21.5806791 5.64081249,21.5300123 C7.01725893,21.4709011 7.5323708,20.6526333 9.18748431,20.6526333 C10.8248645,20.6526333 11.3061985,21.5308568 12.7324738,21.497079 C14.2102538,21.4717456 15.139144,20.1797437 16.0173675,18.8548084 L16.0173679,18.8548079 C16.6780213,17.9230182 17.1854605,16.8916004 17.5204815,15.7996068 L17.5204815,15.7996069 C15.7736665,15.0606378 14.6369634,13.3499327 14.6324773,11.4532517 L14.632447,11.4532234 Z"></path>
                <path d="M11.9302209,3.45210067 L11.930221,3.45210052 C12.7371449,2.49085745 13.1343873,1.25121451 13.0364448,0 L13.036445,0 C11.808997,0.124135823 10.6744611,0.709664227 9.86217368,1.63822461 L9.86217355,1.63822475 C9.05947516,2.55276601 8.65250513,3.74847139 8.73061635,4.96280076 L8.7306162,4.96280076 C9.9725418,4.97615521 11.1520411,4.41939337 11.9310653,3.45208745 L11.9302209,3.45210067 Z"></path>
            </g>
            <text id="App-Store" font-family="Helvetica" font-size="12" font-weight="normal" fill="#333333">
                <tspan x="37" y="25">App Store</tspan>
            </text>
            <text id="Download-on-the" font-family="Muli-Regular, Muli" font-size="8" font-weight="normal" fill="#333333">
                <tspan x="37" y="12">Download on the</tspan>
            </text>
        </g>
    </g>
</svg>