<?xml version="1.0" encoding="UTF-8"?>
<svg width="30px" height="30px" viewBox="0 0 30 30" version="1.1" xmlns="http://www.w3.org/2000/svg" xmlns:xlink="http://www.w3.org/1999/xlink">
    <title>通用/footer/ic/pinterest</title>
    <g id="通用/footer/ic/pinterest" stroke="none" stroke-width="1" fill="none" fill-rule="evenodd">
        <path d="M14.9991688,4.00158081 L14.9991686,4.00158081 C8.9253392,4.00074083 4.00084318,8.92164015 4,14.9927429 C3.99937355,19.5191905 6.77465673,23.5832727 10.9920862,25.2318764 C10.8984553,24.3642007 10.8079984,23.0254104 11.0317603,22.0784224 C11.2301307,21.2202642 12.3219615,16.6153966 12.3219615,16.6153966 C12.3219615,16.6153966 11.995047,15.9555189 11.995047,14.9847373 C11.995047,13.4571839 12.8821595,12.3135017 13.9835121,12.3135017 C14.9214074,12.3135017 15.3768659,13.0177942 15.3768659,13.86009 C15.3768659,14.8023192 14.7769937,16.2140767 14.464362,17.5179697 C14.2009261,18.6140646 15.0102774,19.505534 16.0909994,19.505534 C18.0445513,19.505534 19.5474055,17.4434162 19.5474055,14.4692079 C19.5474055,11.8376283 17.6525713,9.99758479 14.9547336,9.99758479 C11.8252419,9.99758479 9.99071232,12.3420541 9.99071232,14.7705943 C9.99071232,15.7175822 10.35254,16.7280199 10.8095854,17.2784468 C10.8984553,17.3878976 10.914325,17.4814861 10.8841727,17.5956957 L10.8841722,17.5956977 C10.7833085,18.0122554 10.6806841,18.4283818 10.5763013,18.8440721 C10.5271054,19.0471113 10.417605,19.0867675 10.2097128,18.993179 C8.83540252,18.3539225 7.97844232,16.3457371 7.97844232,14.735699 C7.97844232,11.2649961 10.4969531,8.08298979 15.2435605,8.08298979 C19.0570334,8.08298979 22.0230679,10.7986403 22.0230679,14.4327263 C22.0230679,18.220678 19.6331011,21.2741985 16.3147607,21.2741985 C15.1991255,21.2741985 14.1533167,20.6936331 13.794663,20.0099617 C13.794663,20.0099617 13.2439867,22.1069769 13.1106818,22.6225063 C12.8631155,23.5790117 12.1934169,24.7734538 11.7427194,25.5031262 L11.7427201,25.5031264 C17.5436414,27.3025522 23.7055968,24.0608312 25.5058332,18.2625402 C25.8339403,17.2057569 26.0005392,16.1055154 26,14.9990158 L26,14.998053 C26.0020965,8.92608276 21.0792721,4.0020826 15.00455,4 C15.0029627,4 15.0013754,4 14.9997881,4 L14.9991688,4.00158081 Z" id="pinterest" fill="#333333" fill-rule="nonzero"></path>
    </g>
</svg>