<?xml version="1.0" encoding="UTF-8"?>
<svg width="114px" height="34px" viewBox="0 0 114 34" version="1.1" xmlns="http://www.w3.org/2000/svg" xmlns:xlink="http://www.w3.org/1999/xlink">
    <title>通用/footer/ic/Google Play</title>
    <g id="通用/footer/ic/Google-Play" stroke="none" stroke-width="1" fill="none" fill-rule="evenodd">
        <g id="Google-Play">
            <rect id="矩形" stroke="#333333" stroke-width="0.6" x="0.3" y="0.3" width="113.4" height="33.4"></rect>
            <text id="GET-IT-ON" font-family="Muli-Regular, Muli" font-size="8" font-weight="normal" fill="#333333">
                <tspan x="36" y="12">G</tspan>
                <tspan x="41.848" y="12">et it on</tspan>
            </text>
            <text font-family="Helvetica" font-size="12" font-weight="normal" fill="#333333">
                <tspan x="36" y="25">Google Play</tspan>
            </text>
            <g id="编组-23" transform="translate(12.000000, 7.000000)" fill="#333333">
                <path d="M0.00285000415,9.70533819 L0.00285000415,1.59612639 C-0.00475000691,1.36280605 0.00285000415,1.12948571 0.0256500373,0.896925374 L0.0256500371,0.896925313 C0.0246599842,0.636244043 0.160169639,0.394056925 0.382850557,0.258524384 C0.656450955,0.144524218 0.762851109,0.456124671 0.91485133,0.608124892 L9.67006407,9.59133796 L9.67006407,9.59133796 C9.9111293,9.7337028 9.99114079,10.0445332 9.84877715,10.285599 C9.80223658,10.364406 9.73522823,10.4291427 9.65486375,10.4729389 C6.82765964,13.3077431 4.01565555,16.1653472 1.19605145,19.0077514 C0.679250699,19.5245521 0.230850047,19.4105519 0.0484497818,18.6885509 L0.0484498075,18.688551 C0.00909362523,18.460261 -0.0036580652,18.2281774 0.0104497522,17.99695 C0.00284974114,15.230546 0.00284974114,12.471742 0.00284974114,9.70533798 L0.00285000415,9.70533819 Z" id="路径"></path>
                <path d="M1.17325171,0.000124069828 C1.41645206,-0.0036759357 1.65433241,0.0799241859 1.84205268,0.235724413 C5.497658,2.30292742 9.13806329,4.37773044 12.7936686,6.42973342 C13.2268692,6.67293378 13.3028693,6.84013402 12.9076688,7.20493455 C12.1704677,7.89653556 11.4788667,8.63373663 10.7644657,9.35573768 C10.5820654,9.53813794 10.4376652,9.65213811 10.2020648,9.40133774 C7.20766048,6.30053323 4.20794206,3.19972872 1.20365175,0.0989242135 L1.20365176,0.09892423 C1.18653357,0.0685592171 1.17616454,0.0348599962 1.17325171,0.000124086263 L1.17325171,0.000124069828 Z" id="路径"></path>
                <path d="M2.32085338,18.7873517 C4.93525718,16.1121475 7.48126088,13.5205437 9.99686454,10.9061399 C10.3844651,10.5109394 10.5972654,10.5109394 10.9544659,10.9137399 L10.9544662,10.9137403 C11.4673215,11.4988253 12.0101849,12.0569096 12.5808686,12.5857427 C12.9228691,12.9125432 12.9456691,13.0721434 12.4820684,13.3229438 C9.46486405,14.9721462 6.4704597,16.6517486 3.46845533,18.316151 C3.13557485,18.5745514 2.73885427,18.7371917 2.32085338,18.7873517 L2.32085338,18.7873517 Z" id="路径"></path>
                <path d="M17.8172766,9.78893831 L17.8172766,9.78893808 C17.8163243,10.120732 17.6321052,10.4248393 17.3384752,10.5793392 C16.1376735,11.2633402 14.9368717,11.9321412 13.74367,12.6161422 L13.74367,12.6161422 C13.5536412,12.7318046 13.3058292,12.6715184 13.1901665,12.4814896 C13.1897316,12.4807751 13.1892989,12.4800592 13.1888685,12.4793419 C12.5048675,11.7649409 11.8208665,11.0505399 11.1216655,10.3513388 L11.1216655,10.3513389 C10.9634858,10.2488836 10.9183127,10.0375979 11.0207679,9.87941676 C11.0485609,9.83650757 11.08564,9.80039179 11.1292655,9.77373742 C11.9401867,8.96813625 12.7457879,8.15493507 13.546069,7.33413387 L13.546069,7.33413387 C13.6935725,7.12485183 13.9828055,7.07477013 14.1920878,7.22227358 C14.1946339,7.22406812 14.1971619,7.22588828 14.1996714,7.22773377 C15.2028728,7.82053464 16.2136743,8.39053546 17.2244758,8.96053629 L17.2244758,8.96053629 C17.5601677,9.10567008 17.7882274,9.42436853 17.8172766,9.7889375 L17.8172766,9.78893831 Z" id="路径"></path>
            </g>
        </g>
    </g>
</svg>