<?xml version="1.0" encoding="UTF-8"?>
<svg width="164px" height="164px" viewBox="0 0 164 164" version="1.1" xmlns="http://www.w3.org/2000/svg" xmlns:xlink="http://www.w3.org/1999/xlink">
    <title>售罄</title>
    <g id="售罄" stroke="none" stroke-width="1" fill="none" fill-rule="evenodd">
        <g id="Group-7">
            <circle id="椭圆形" fill="#000000" opacity="0.5" cx="82" cy="82" r="82"></circle>
            <path d="M32.36,90.18 C33.52,90.18 34.5266667,90.0066667 35.38,89.66 C36.2333333,89.3133333 36.8866667,88.8233333 37.34,88.19 C37.7933333,87.5566667 38.02,86.8133333 38.02,85.96 C38.02,85.1866667 37.82,84.5433333 37.42,84.03 C37.02,83.5166667 36.4466667,83.0966667 35.7,82.77 C34.9533333,82.4433333 33.9866667,82.14 32.8,81.86 C31.6533333,81.6066667 30.8433333,81.3333333 30.37,81.04 C29.8966667,80.7466667 29.66,80.32 29.66,79.76 C29.66,79.1066667 29.9266667,78.59 30.46,78.21 C30.9933333,77.83 31.72,77.64 32.64,77.64 C34.1733333,77.64 35.5733333,78.1466667 36.84,79.16 L36.84,79.16 L37.7,77.28 C37.1266667,76.7466667 36.39,76.33 35.49,76.03 C34.59,75.73 33.64,75.58 32.64,75.58 C31.5466667,75.58 30.5833333,75.7666667 29.75,76.14 C28.9166667,76.5133333 28.2733333,77.0266667 27.82,77.68 C27.3666667,78.3333333 27.14,79.08 27.14,79.92 C27.14,81.0933333 27.5466667,81.9866667 28.36,82.6 C29.1733333,83.2133333 30.4733333,83.7133333 32.26,84.1 C33.4066667,84.3533333 34.23,84.6233333 34.73,84.91 C35.23,85.1966667 35.48,85.6066667 35.48,86.14 C35.48,86.7666667 35.21,87.2533333 34.67,87.6 C34.13,87.9466667 33.3666667,88.12 32.38,88.12 C31.4866667,88.12 30.6633333,87.9966667 29.91,87.75 C29.1566667,87.5033333 28.4333333,87.12 27.74,86.6 L27.74,86.6 L26.86,88.48 C27.5266667,89.0266667 28.3366667,89.4466667 29.29,89.74 C30.2433333,90.0333333 31.2666667,90.18 32.36,90.18 Z M47.74,90.18 C49.1266667,90.18 50.3266667,89.8833333 51.34,89.29 C52.3533333,88.6966667 53.1333333,87.85 53.68,86.75 C54.2266667,85.65 54.5,84.3533333 54.5,82.86 C54.5,81.38 54.23,80.09 53.69,78.99 C53.15,77.89 52.37,77.0466667 51.35,76.46 C50.33,75.8733333 49.1266667,75.58 47.74,75.58 C46.3533333,75.58 45.15,75.8733333 44.13,76.46 C43.11,77.0466667 42.3266667,77.89 41.78,78.99 C41.2333333,80.09 40.96,81.38 40.96,82.86 C40.96,84.3533333 41.2366667,85.65 41.79,86.75 C42.3433333,87.85 43.13,88.6966667 44.15,89.29 C45.17,89.8833333 46.3666667,90.18 47.74,90.18 Z M47.74,88.12 C46.42,88.12 45.3933333,87.6666667 44.66,86.76 C43.9266667,85.8533333 43.56,84.5533333 43.56,82.86 C43.56,81.1666667 43.9266667,79.8733333 44.66,78.98 C45.3933333,78.0866667 46.42,77.64 47.74,77.64 C49.06,77.64 50.0866667,78.09 50.82,78.99 C51.5533333,79.89 51.92,81.18 51.92,82.86 C51.92,84.5533333 51.5533333,85.8533333 50.82,86.76 C50.0866667,87.6666667 49.06,88.12 47.74,88.12 Z M67.38,90 L67.38,87.88 L60.72,87.88 L60.72,75.76 L58.14,75.76 L58.14,90 L67.38,90 Z M75.58,90 C77.9133333,90 79.7233333,89.3766667 81.01,88.13 C82.2966667,86.8833333 82.94,85.1266667 82.94,82.86 C82.94,80.6066667 82.2966667,78.86 81.01,77.62 C79.7233333,76.38 77.9133333,75.76 75.58,75.76 L75.58,75.76 L70.34,75.76 L70.34,90 L75.58,90 Z M75.42,87.9 L72.92,87.9 L72.92,77.86 L75.42,77.86 C78.7,77.86 80.34,79.5266667 80.34,82.86 C80.34,86.22 78.7,87.9 75.42,87.9 L75.42,87.9 Z M99.38,90.18 C100.766667,90.18 101.966667,89.8833333 102.98,89.29 C103.993333,88.6966667 104.773333,87.85 105.32,86.75 C105.866667,85.65 106.14,84.3533333 106.14,82.86 C106.14,81.38 105.87,80.09 105.33,78.99 C104.79,77.89 104.01,77.0466667 102.99,76.46 C101.97,75.8733333 100.766667,75.58 99.38,75.58 C97.9933333,75.58 96.79,75.8733333 95.77,76.46 C94.75,77.0466667 93.9666667,77.89 93.42,78.99 C92.8733333,80.09 92.6,81.38 92.6,82.86 C92.6,84.3533333 92.8766667,85.65 93.43,86.75 C93.9833333,87.85 94.77,88.6966667 95.79,89.29 C96.81,89.8833333 98.0066667,90.18 99.38,90.18 Z M99.38,88.12 C98.06,88.12 97.0333333,87.6666667 96.3,86.76 C95.5666667,85.8533333 95.2,84.5533333 95.2,82.86 C95.2,81.1666667 95.5666667,79.8733333 96.3,78.98 C97.0333333,78.0866667 98.06,77.64 99.38,77.64 C100.7,77.64 101.726667,78.09 102.46,78.99 C103.193333,79.89 103.56,81.18 103.56,82.86 C103.56,84.5533333 103.193333,85.8533333 102.46,86.76 C101.726667,87.6666667 100.7,88.12 99.38,88.12 Z M115.66,90.18 C117.593333,90.18 119.066667,89.6733333 120.08,88.66 C121.093333,87.6466667 121.6,86.1733333 121.6,84.24 L121.6,84.24 L121.6,75.76 L119.06,75.76 L119.06,84.38 C119.06,85.5933333 118.77,86.52 118.19,87.16 C117.61,87.8 116.766667,88.12 115.66,88.12 C114.526667,88.12 113.673333,87.8033333 113.1,87.17 C112.526667,86.5366667 112.24,85.6066667 112.24,84.38 L112.24,84.38 L112.24,75.76 L109.7,75.76 L109.7,84.24 C109.7,86.1866667 110.203333,87.6633333 111.21,88.67 C112.216667,89.6766667 113.7,90.18 115.66,90.18 Z M131.52,90 L131.52,77.88 L136.18,77.88 L136.18,75.76 L124.28,75.76 L124.28,77.88 L128.92,77.88 L128.92,90 L131.52,90 Z" id="SOLDOUT" fill="#F9F9F9" fill-rule="nonzero"></path>
            <line x1="26" y1="102" x2="138" y2="102" id="路径" stroke="#FFFFFF" opacity="0.5"></line>
            <line x1="26" y1="62" x2="138" y2="62" id="路径备份" stroke="#FFFFFF" opacity="0.5"></line>
        </g>
    </g>
</svg>