<?xml version="1.0" encoding="UTF-8"?>
<svg width="14px" height="14px" viewBox="0 0 14 14" version="1.1" xmlns="http://www.w3.org/2000/svg" xmlns:xlink="http://www.w3.org/1999/xlink">
    <title>icon /web/14 / close / white</title>
    <g id="icon-/web/14-/-close-/-white" stroke="none" stroke-width="1" fill="none" fill-rule="evenodd">
        <g id="Group-2" fill="#000000" opacity="0">
            <rect id="Rectangle" x="0" y="0" width="14" height="14"></rect>
        </g>
        <path d="M7.44570175,-1.77944884 C7.59297769,-1.77944884 7.71236842,-1.66005811 7.71236842,-1.51278218 L7.71155116,6.21155116 L15.5127822,6.21236842 C15.6600581,6.21236842 15.7794488,6.33175915 15.7794488,6.47903509 L15.7794488,7.44570175 C15.7794488,7.59297769 15.6600581,7.71236842 15.5127822,7.71236842 L7.71155116,7.71155116 L7.71236842,15.5127822 C7.71236842,15.6600581 7.59297769,15.7794488 7.44570175,15.7794488 L6.47903509,15.7794488 C6.33175915,15.7794488 6.21236842,15.6600581 6.21236842,15.5127822 L6.21155116,7.71155116 L-1.51278218,7.71236842 C-1.66005811,7.71236842 -1.77944884,7.59297769 -1.77944884,7.44570175 L-1.77944884,6.47903509 C-1.77944884,6.33175915 -1.66005811,6.21236842 -1.51278218,6.21236842 L6.21155116,6.21155116 L6.21236842,-1.51278218 C6.21236842,-1.66005811 6.33175915,-1.77944884 6.47903509,-1.77944884 L7.44570175,-1.77944884 Z" id="Combined-Shape" fill="#FFFFFF" transform="translate(7.000000, 7.000000) rotate(-315.000000) translate(-7.000000, -7.000000) "></path>
    </g>
</svg>