<?xml version="1.0" encoding="UTF-8"?>
<svg width="30px" height="30px" viewBox="0 0 30 30" version="1.1" xmlns="http://www.w3.org/2000/svg" xmlns:xlink="http://www.w3.org/1999/xlink">
    <title>通用/footer/ic/instagram</title>
    <g id="通用/footer/ic/instagram" stroke="none" stroke-width="1" fill="none" fill-rule="evenodd">
        <path d="M20.9088622,11.3636364 L20.9088622,11.3636364 C20.1556205,11.3633854 19.5452036,10.7526597 19.5454545,9.99954529 C19.5457056,9.24642841 20.1565326,8.63611273 20.9097719,8.63636364 L20.9097719,8.63636364 C21.6627627,8.63661471 22.2729782,9.24713663 22.2727273,10 C22.2724762,10.7528659 21.661853,11.3629803 20.9088648,11.3627294 M15.0000004,20.4545455 L15.0000002,20.4545455 C11.987545,20.4545455 9.54545455,18.0124675 9.54545455,15 C9.54545455,11.9875449 11.9875326,9.54545455 15.0000002,9.54545455 L14.9999998,9.54545455 C18.012455,9.54545455 20.4545455,11.9875325 20.4545455,15 C20.4545455,18.0124551 18.0124674,20.4545455 14.9999998,20.4545455 M19.5454482,5 L10.4545525,5 L10.4545523,5 C7.44209347,5 5,7.44208183 5,10.4545531 C5,10.4545531 5,10.4545531 5,10.4545531 L5,19.5454486 L5,19.5454478 C5,22.5579066 7.44208104,25 10.4545523,25 L19.5454479,25 L19.5454477,25 C22.5579065,25 25,22.557919 25,19.5454478 C25,19.5454478 25,19.5454478 25,19.5454478 L25,10.4545522 L25,10.4545522 C25,7.44209344 22.557919,5 19.5454477,5 M15.0000002,11.3636364 L15.0000001,11.3636364 C12.991695,11.3636364 11.3636364,12.99169 11.3636364,15 C11.3636364,17.008305 12.99169,18.6363636 15.0000001,18.6363636 L14.9999999,18.6363636 C17.008305,18.6363636 18.6363636,17.0083125 18.6363636,15 C18.6363636,12.991695 17.0083124,11.3636364 14.9999999,11.3636364" id="instagram" fill="#333333" fill-rule="nonzero"></path>
    </g>
</svg>