<?xml version="1.0" encoding="UTF-8"?>
<svg width="24px" height="24px" viewBox="0 0 24 24" version="1.1" xmlns="http://www.w3.org/2000/svg" xmlns:xlink="http://www.w3.org/1999/xlink">
    <title>通用/topbar/web/ic/购物袋 / black</title>
    <defs>
        <filter id="filter-1">
            <feColorMatrix in="SourceGraphic" type="matrix" values="0 0 0 0 0.200000 0 0 0 0 0.200000 0 0 0 0 0.200000 0 0 0 1.000000 0"></feColorMatrix>
        </filter>
    </defs>
    <g id="通用/topbar/web/ic/购物袋-/-black" stroke="none" stroke-width="1" fill="none" fill-rule="evenodd">
        <rect id="Rectangle" fill="#E9E9E9" opacity="0" x="-3" y="-3" width="30" height="30"></rect>
        <g filter="url(#filter-1)" id="Group-2" opacity="0">
            <g>
                <rect id="Rectangle" fill="#E9E9E9" x="0" y="0" width="24" height="24"></rect>
            </g>
        </g>
        <g id="Group" transform="translate(0.318848, 1.390000)">
            <path d="M19.4195422,5.90848016 C19.7423674,5.90848016 20.039541,6.02950786 20.265239,6.23071223 C20.4909371,6.4319166 20.6451596,6.71329765 20.6820824,7.03400434 L20.6820824,7.03400434 L22.1599093,19.8702005 C22.2000482,20.2188414 22.0950725,20.5507459 21.8929019,20.805525 C21.6974574,21.0518277 21.4111776,21.2260514 21.0773567,21.2736359 L21.0773567,21.2736359 L2.62418687,21.2864364 C2.27324305,21.2864364 1.95552305,21.1441883 1.725539,20.9142042 C1.50231466,20.6909799 1.36174459,20.3851013 1.35367415,20.0464138 L1.35367415,20.0464138 L2.66705842,7.05060226 C2.70008837,6.72626407 2.85316569,6.44073355 3.07948945,6.23628757 C3.30581321,6.03184159 3.60538341,5.90848016 3.93139911,5.90848016 L3.93139911,5.90848016 Z" id="矩形" stroke="#333333" stroke-width="1.36864"></path>
            <path d="M16.7217187,6.01119154e-14 L16.7217187,5.36128633 C16.7217187,7.75393266 14.579774,9.78125078 11.8639896,9.78125078 C9.14820517,9.78125078 6.90227286,7.75393266 6.90227286,5.36128633 L6.87939734,6.01119154e-14" id="矩形" stroke="#333333" stroke-width="1.36864" stroke-linecap="round" transform="translate(11.800558, 4.890625) rotate(-180.000000) translate(-11.800558, -4.890625) "></path>
            <circle id="椭圆形" fill="#333333" cx="6.87939734" cy="10.1856729" r="1.175"></circle>
            <circle id="椭圆形备份" fill="#333333" cx="16.7217188" cy="10.1856729" r="1.175"></circle>
        </g>
    </g>
</svg>