<?xml version="1.0" encoding="UTF-8"?>
<svg width="18px" height="18px" viewBox="0 0 18 18" version="1.1" xmlns="http://www.w3.org/2000/svg" xmlns:xlink="http://www.w3.org/1999/xlink">
    <title>icon-wap-18-加disable</title>
    <g id="icon-wap-18-加disable" stroke="none" stroke-width="1" fill="none" fill-rule="evenodd">
        <g id="Group" fill="#E9E9E9" opacity="0">
            <rect id="Rectangle" x="0" y="0" width="18" height="18"></rect>
        </g>
        <path d="M13.35,4 C13.5156854,4 13.65,4.13431458 13.65,4.3 L13.649,8.35 L17.7,8.35 C17.8656854,8.35 18,8.48431458 18,8.65 L18,9.35 C18,9.51568542 17.8656854,9.65 17.7,9.65 L13.649,9.65 L13.65,13.7 C13.65,13.8656854 13.5156854,14 13.35,14 L12.65,14 C12.4843146,14 12.35,13.8656854 12.35,13.7 L12.349,9.65 L8.3,9.65 C8.13431458,9.65 8,9.51568542 8,9.35 L8,8.65 C8,8.48431458 8.13431458,8.35 8.3,8.35 L12.349,8.35 L12.35,4.3 C12.35,4.13431458 12.4843146,4 12.65,4 L13.35,4 Z" id="Combined-Shape" fill="#D8D8D8"></path>
    </g>
</svg>