<?xml version="1.0" encoding="UTF-8"?>
<svg width="120px" height="120px" viewBox="0 0 120 120" version="1.1" xmlns="http://www.w3.org/2000/svg" xmlns:xlink="http://www.w3.org/1999/xlink">
    <title>通用/状态插画/下架（大）</title>
    <g id="通用/状态插画/下架（大）" stroke="none" stroke-width="1" fill="none" fill-rule="evenodd">
        <g id="Group-4" transform="translate(14.092427, 9.500000)">
            <path d="M1.46734514,85.6162917 L1.46734514,85.6162938 C1.46734514,93.1230718 21.0631353,99.2085268 45.2358129,99.2085268 C69.4084904,99.2085268 89.0042806,93.1230718 89.0042806,85.6162938 L89.0042806,85.6162938 C89.0042806,78.1095158 69.4084904,72.0240608 45.2358129,72.0240608 C21.0631353,72.0240608 1.46734514,78.1095158 1.46734514,85.6162938 L1.46734514,85.6162917 Z" id="路径" fill="#FFF8EB" fill-rule="nonzero"></path>
            <g id="Group-2" transform="translate(0.000000, 21.816021)" fill="#FFFFFF" stroke="#FFAB00" stroke-linejoin="round" stroke-width="2.4">
                <polygon id="Path-8" points="10.1776262 11.4456061 10.1776262 55.4429456 48.6888278 67.9436723 48.6888278 22.8912123"></polygon>
                <polygon id="Path-8" points="10.1776262 11.4456061 -2.50842551e-13 26.8086233 38.5112016 39.30935 48.6888278 22.8912123"></polygon>
                <polygon id="Path-8" transform="translate(64.414133, 39.694639) scale(-1, 1) translate(-64.414133, -39.694639) " points="48.6888278 11.4456061 48.6888278 55.4429456 80.1394392 67.9436723 80.1394392 22.8912123"></polygon>
                <polygon id="Path-8" transform="translate(70.259948, 24.661905) scale(-1, 1) translate(-70.259948, -24.661905) " points="60.3804567 11.4456061 48.6888278 25.3774781 80.1394392 37.8782048 91.8310681 22.8912123"></polygon>
                <polygon id="Rectangle" points="42.8050027 8.57045382e-14 80.1394392 11.4456061 48.6888278 22.8912123 10.1776262 11.4456061"></polygon>
            </g>
            <g id="Group-3" transform="translate(17.037149, 0.000000)" fill="#FFAB00" fill-rule="nonzero">
                <path d="M7.20441914,15.1953192 L0.551421881,8.81124676 L0.551421761,8.81124664 C-0.16006016,8.12076474 -0.186460013,6.98733048 0.492102656,6.26446739 L0.492102545,6.26446751 C1.16004017,5.55343573 2.27791914,5.51850101 2.98894859,6.18643801 C2.99553402,6.19262431 3.00207191,6.19886104 3.0085616,6.20514764 L9.65100877,12.58922 C10.3681137,13.2760061 10.3892056,14.4109784 9.71823737,15.1346777 L9.71823732,15.1346778 C9.05031165,15.8457208 7.93243566,15.8806749 7.22139127,15.2127498 C7.21525107,15.206982 7.2091522,15.2011703 7.2030952,15.1953152 L7.20441914,15.1953192 Z" id="Path"></path>
                <path d="M27.7476027,12.3730359 L27.7476026,12.3730358 C27.4067453,12.0428558 27.2085194,11.5924721 27.1952732,11.1180995 L26.9579955,1.8524005 L26.9579954,1.85239714 C26.9283201,0.864945914 27.700316,0.0382321467 28.6874852,0.000317579799 L28.6874852,0.000317579831 C29.6763261,-0.0180912938 30.4941108,0.766112688 30.5171597,1.75484814 L30.7478459,11.0218164 C30.7636644,11.745512 30.3523835,12.4178012 29.6959136,12.7091191 L29.6959136,12.7091191 C29.0384103,13.0060325 28.2663957,12.8729268 27.7462832,12.3729764 L27.7476027,12.3730359 Z" id="Path"></path>
                <path d="M47.2177836,14.8657656 L47.2177834,14.8657655 C46.8722118,14.5360379 46.6728607,14.0818045 46.6641362,13.6042437 L46.6641362,13.6042444 C46.6507776,13.1288944 46.8255831,12.6674828 47.1505548,12.3203084 L53.4660912,5.59349668 L53.4660911,5.59349679 C54.133648,4.88210737 55.2515045,4.84656937 55.9628924,5.51412857 C55.969492,5.52032152 55.9760439,5.52656511 55.9825476,5.53285872 C56.6917433,6.21964474 56.7207444,7.35461708 56.041867,8.07963797 L49.7263306,14.8064497 C49.3967789,15.1491838 48.9485884,15.3521873 48.4793075,15.3666878 C48.0166165,15.3666878 47.5605168,15.1953212 47.2177846,14.865769 L47.2177836,14.8657656 Z" id="Path"></path>
            </g>
        </g>
    </g>
</svg>