<?xml version="1.0" standalone="no"?><!DOCTYPE svg PUBLIC "-//W3C//DTD SVG 1.1//EN" "http://www.w3.org/Graphics/SVG/1.1/DTD/svg11.dtd"><svg t="1603094224385" class="icon" viewBox="0 0 1621 1024" version="1.1" xmlns="http://www.w3.org/2000/svg" p-id="8710" xmlns:xlink="http://www.w3.org/1999/xlink" width="31.66015625" height="20"><defs><style type="text/css"></style></defs><path d="M170.666667 0h1280c93.866667 0 170.666667 76.8 170.666666 170.666667v682.666666c0 93.866667-76.8 170.666667-170.666666 170.666667H170.666667c-93.866667 0-170.666667-76.8-170.666667-170.666667V170.666667c0-93.866667 76.8-170.666667 170.666667-170.666667z" fill="#FFFFFF" p-id="8711"></path><path d="M170.666667 0h1280c93.866667 0 170.666667 76.8 170.666666 170.666667v682.666666c0 93.866667-76.8 170.666667-170.666666 170.666667H170.666667c-93.866667 0-170.666667-76.8-170.666667-170.666667V170.666667c0-93.866667 76.8-170.666667 170.666667-170.666667z" fill="#4191BB" p-id="8712"></path><path d="M0 277.333333h1621.333333v59.733334H0z" fill="#FFFFFF" p-id="8713"></path><path d="M311.466667 0h59.733333v1024H311.466667z" fill="#FFFFFF" p-id="8714"></path><path d="M349.866667 256H294.4L157.866667 149.333333c-8.533333-8.533333-25.6-4.266667-34.133334 4.266667 0 0-4.266667 4.266667-4.266666 8.533333C98.133333 221.866667 85.333333 281.6 85.333333 341.333333c8.533333 12.8 46.933333 12.8 119.466667 0l-89.6 93.866667v110.933333l204.8-183.466666h29.866667" fill="#FFFFFF" p-id="8715"></path><path d="M337.066667 256H392.533333l132.266667-106.666667c12.8-8.533333 25.6-8.533333 34.133333 4.266667 0 0 4.266667 4.266667 4.266667 8.533333 21.333333 59.733333 34.133333 119.466667 34.133333 183.466667 0 12.8-38.4 12.8-119.466666 0l89.6 93.866667v110.933333L362.666667 362.666667h-29.866667" fill="#FFFFFF" p-id="8716"></path><path d="M763.733333 712.533333c8.533333 8.533333 17.066667 21.333333 17.066667 34.133334h-21.333333c-4.266667-8.533333-8.533333-17.066667-12.8-21.333334-8.533333-4.266667-17.066667-8.533333-29.866667-8.533333-12.8 0-25.6 4.266667-34.133333 17.066667-8.533333 8.533333-12.8 25.6-12.8 46.933333 0 17.066667 4.266667 34.133333 12.8 42.666667 8.533333 12.8 21.333333 17.066667 38.4 17.066666s25.6-4.266667 34.133333-17.066666c4.266667-4.266667 8.533333-12.8 8.533333-25.6h21.333334c0 17.066667-8.533333 29.866667-17.066667 42.666666-12.8 12.8-29.866667 21.333333-46.933333 21.333334-17.066667 0-34.133333-4.266667-42.666667-17.066667-17.066667-12.8-25.6-34.133333-25.6-64 0-21.333333 4.266667-42.666667 17.066667-55.466667 12.8-17.066667 29.866667-25.6 51.2-25.6 17.066667-4.266667 34.133333 0 42.666666 12.8zM832 699.733333v93.866667c0 12.8 0 21.333333 4.266667 25.6 4.266667 12.8 17.066667 17.066667 29.866666 17.066667 17.066667 0 29.866667-4.266667 34.133334-17.066667 4.266667-8.533333 4.266667-17.066667 4.266666-25.6v-93.866667h21.333334v85.333334c0 17.066667-4.266667 34.133333-8.533334 42.666666-8.533333 17.066667-25.6 29.866667-51.2 29.866667s-42.666667-8.533333-51.2-29.866667c-4.266667-8.533333-8.533333-25.6-8.533333-42.666666v-85.333334h25.6zM964.266667 699.733333h68.266666c12.8 0 25.6 4.266667 34.133334 12.8 8.533333 8.533333 12.8 17.066667 12.8 34.133334 0 12.8-4.266667 21.333333-12.8 29.866666-8.533333 8.533333-17.066667 12.8-34.133334 12.8h-46.933333V853.333333h-21.333333v-153.6z m81.066666 21.333334c-4.266667 0-12.8-4.266667-17.066666-4.266667h-42.666667V768h42.666667c8.533333 0 17.066667 0 21.333333-4.266667 4.266667-4.266667 8.533333-12.8 8.533333-21.333333s-4.266667-17.066667-12.8-21.333333zM1122.133333 802.133333c0 8.533333 4.266667 17.066667 4.266667 21.333334 8.533333 8.533333 17.066667 17.066667 34.133333 17.066666 8.533333 0 12.8 0 21.333334-4.266666 12.8-4.266667 17.066667-12.8 17.066666-21.333334s-4.266667-12.8-8.533333-17.066666c-4.266667-4.266667-12.8-8.533333-25.6-8.533334l-21.333333-4.266666c-12.8-4.266667-21.333333-8.533333-29.866667-8.533334-8.533333-4.266667-12.8-17.066667-12.8-29.866666 0-12.8 4.266667-25.6 12.8-34.133334 8.533333-8.533333 21.333333-12.8 38.4-12.8s29.866667 4.266667 38.4 12.8 17.066667 21.333333 17.066667 38.4H1194.666667c0-8.533333-4.266667-12.8-8.533334-17.066666-4.266667-8.533333-17.066667-12.8-29.866666-12.8-12.8 0-21.333333 4.266667-25.6 8.533333s-8.533333 12.8-8.533334 17.066667c0 8.533333 4.266667 12.8 8.533334 17.066666 4.266667 4.266667 12.8 4.266667 25.6 8.533334l21.333333 4.266666c8.533333 4.266667 17.066667 4.266667 21.333333 8.533334 8.533333 8.533333 12.8 17.066667 12.8 29.866666 0 17.066667-4.266667 29.866667-17.066666 38.4-12.8 8.533333-25.6 12.8-42.666667 12.8s-34.133333-4.266667-42.666667-12.8c-8.533333-8.533333-17.066667-21.333333-17.066666-38.4h29.866666zM1250.133333 699.733333h21.333334v64h76.8v-64h21.333333V853.333333h-21.333333v-72.533333h-76.8V853.333333h-21.333334v-153.6zM1403.733333 699.733333h110.933334v17.066667h-89.6v46.933333h85.333333v17.066667h-85.333333v51.2h93.866666v21.333333H1408v-153.6z" fill="#FFFFFF" p-id="8717"></path></svg>