<?xml version="1.0" standalone="no"?><!DOCTYPE svg PUBLIC "-//W3C//DTD SVG 1.1//EN" "http://www.w3.org/Graphics/SVG/1.1/DTD/svg11.dtd"><svg t="1603094004811" class="icon" viewBox="0 0 1575 1024" version="1.1" xmlns="http://www.w3.org/2000/svg" p-id="8193" xmlns:xlink="http://www.w3.org/1999/xlink" width="30.76171875" height="20"><defs><style type="text/css"></style></defs><path d="M196.923077 39.384615h1181.538461c86.646154 0 157.538462 70.892308 157.538462 157.538462v630.153846c0 86.646154-70.892308 157.538462-157.538462 157.538462H196.923077c-86.646154 0-157.538462-70.892308-157.538462-157.538462V196.923077c0-86.646154 70.892308-157.538462 157.538462-157.538462z" fill="#FFFFFF" p-id="8194"></path><path d="M1378.461538 992.492308H196.923077C106.338462 992.492308 31.507692 917.661538 31.507692 827.076923V196.923077C31.507692 106.338462 106.338462 31.507692 196.923077 31.507692h1181.538461c90.584615 0 165.415385 74.830769 165.415385 165.415385v630.153846c0 90.584615-74.830769 165.415385-165.415385 165.415385zM196.923077 47.261538C114.215385 47.261538 47.261538 114.215385 47.261538 196.923077v630.153846c0 82.707692 66.953846 149.661538 149.661539 149.661539h1181.538461c82.707692 0 149.661538-66.953846 149.661539-149.661539V196.923077c0-82.707692-66.953846-149.661538-149.661539-149.661539H196.923077z" p-id="8195"></path><path d="M448.984615 299.323077c-19.692308 0-39.384615 11.815385-51.2 27.569231-11.815385 11.815385-23.630769 35.446154-19.692307 55.138461 19.692308 3.938462 39.384615-7.876923 51.2-23.630769 15.753846-15.753846 23.630769-35.446154 19.692307-59.076923z m-70.892307 110.276923c-11.815385-3.938462-35.446154-19.692308-59.076923-19.692308-31.507692 0-59.076923 19.692308-74.83077 47.261539-31.507692 55.138462-7.876923 137.846154 23.63077 181.169231 15.753846 19.692308 35.446154 47.261538 59.076923 47.261538s31.507692-15.753846 59.076923-15.753846 35.446154 15.753846 59.076923 15.753846 39.384615-19.692308 55.138461-47.261538c19.692308-23.630769 23.630769-47.261538 23.63077-51.2 0 0-51.2-19.692308-51.2-74.83077 0-47.261538 35.446154-66.953846 39.384615-66.953846-19.692308-31.507692-51.2-35.446154-66.953846-35.446154-27.569231-3.938462-51.2 19.692308-66.953846 19.692308z m488.36923 27.569231c0 63.015385-47.261538 110.276923-110.276923 110.276923h-70.892307v114.215384h-51.2V326.892308h126.030769c59.076923 0 106.338462 43.323077 106.338461 110.276923z m-129.96923 66.953846c47.261538 0 70.892308-23.630769 70.892307-66.953846s-23.630769-66.953846-70.892307-66.953846h-59.076923v133.907692h59.076923z m236.307692 19.692308l66.953846-3.938462v-19.692308c0-27.569231-19.692308-43.323077-51.2-43.323077-27.569231 0-47.261538 11.815385-51.2 35.446154h-47.261538c0-43.323077 43.323077-74.830769 98.461538-74.830769 59.076923 0 98.461538 31.507692 98.461539 78.769231v165.415384h-51.2v-39.384615c-11.815385 27.569231-43.323077 43.323077-78.769231 43.323077-51.2-3.938462-82.707692-31.507692-82.707692-74.830769 3.938462-39.384615 35.446154-66.953846 98.461538-66.953846z m63.015385 27.56923l-59.076923 3.938462c-35.446154 3.938462-51.2 15.753846-51.2 35.446154s19.692308 35.446154 47.261538 35.446154c35.446154 0 63.015385-19.692308 63.015385-51.2V551.384615z m98.461538 157.538462h15.753846c23.630769 0 39.384615-7.876923 43.323077-35.446154l7.876923-15.753846-90.584615-244.184615h55.138461l63.015385 196.923076 63.015385-196.923076h51.2L1248.492308 669.538462c-23.630769 59.076923-47.261538 78.769231-98.461539 78.76923-3.938462 3.938462-15.753846 3.938462-19.692307 0l3.938461-39.384615z" p-id="8196"></path></svg>