<?xml version="1.0" encoding="UTF-8"?>
<svg width="30px" height="30px" viewBox="0 0 30 30" version="1.1" xmlns="http://www.w3.org/2000/svg" xmlns:xlink="http://www.w3.org/1999/xlink">
    <title>通用/footer/ic/twitter</title>
    <g id="通用/footer/ic/twitter" stroke="none" stroke-width="1" fill="none" fill-rule="evenodd">
        <path d="M28,8.13041749 L28,8.13041727 C27.3200585,9.03471174 26.4751953,9.83243502 25.5,10.4909314 L25.5,11.0561249 L25.5,11.0561253 C25.482155,14.3708363 24.0690508,17.5602013 21.5374961,19.9994814 L21.5374965,19.999481 C18.846872,22.6775269 14.9415261,24.1422421 10.8999986,23.9890823 L10.8999988,23.9890823 C8.09868096,24.018777 5.35002427,23.3131596 3,21.961035 L3,21.9610349 C3.41400627,22.0121632 3.83230452,22.0307058 4.24999975,22.0164461 L4.24999958,22.0164461 C6.57746739,22.0311524 8.84045278,21.3389152 10.6624983,20.0548921 L10.6624985,20.0548921 C9.58159785,20.028087 8.53713516,19.702631 7.6749991,19.1239852 L7.67499918,19.1239852 C6.81289974,18.5766077 6.16940865,17.8004082 5.83749954,16.9075401 C6.15500436,16.965159 6.47624453,17.0028429 6.79999935,17.0183623 L6.79999945,17.0183623 C7.26874692,17.0174769 7.73529956,16.9615802 8.18749918,16.8521292 L8.18749879,16.8521291 C7.02350732,16.6715719 5.97423262,16.1197195 5.23749937,15.3006175 L5.2374996,15.3006177 C4.44861547,14.4948663 4.01371077,13.4640354 4.01249984,12.3970746 L4.01249984,12.2862523 L4.0125002,12.2862525 C4.70307135,12.6622084 5.49038077,12.8758075 6.29999975,12.9068572 L6.30000002,12.9068573 C4.863721,12.0582965 4.02262986,10.6129881 4.07500045,9.08348947 L4.07500036,9.08348446 C4.05996584,8.30740398 4.28012361,7.5419685 4.71250267,6.86703931 L4.71250383,6.8670406 C7.29604824,9.73593014 11.1734156,11.4506665 15.3125017,11.5548221 L15.3125017,11.5548221 C15.2409246,11.2258401 15.1991248,10.8923106 15.1875018,10.5574217 L15.1875016,10.5574112 C15.1527741,8.07282817 17.3963049,6.03365535 20.1987311,6.00261646 L20.3250006,6.00261646 L20.3250007,6.00261645 C21.7479448,5.95852197 23.1202639,6.47358074 24.075,7.41005912 L24.0750001,7.41005911 C25.2105321,7.18606179 26.3018087,6.81250853 27.3124994,6.30183654 L27.3124996,6.30183601 C26.9641794,7.35481411 26.1658006,8.24555883 25.0875,8.78425457 L25.0875006,8.7842545 C26.0830521,8.66444742 27.0601027,8.44509943 28,8.13040318 L28,8.13041749 Z" id="twitter" fill="#333333" fill-rule="nonzero"></path>
    </g>
</svg>