<?xml version="1.0" encoding="UTF-8"?>
<svg width="120px" height="120px" viewBox="0 0 120 120" version="1.1" xmlns="http://www.w3.org/2000/svg" xmlns:xlink="http://www.w3.org/1999/xlink">
    <title>通用/状态插画/无结果</title>
    <g id="通用/状态插画/无结果" stroke="none" stroke-width="1" fill="none" fill-rule="evenodd">
        <path d="M32.125619,83.8696058 L32.1250565,85.534848 L88.7836573,85.534848 L88.7841415,84.3171634 C91.1571613,85.5668677 92.5,86.9900075 92.5,88.5 L92.5,88.5 L92.4956459,88.6488314 C92.2086455,93.5507453 77.7697768,97.5 60,97.5 C42.0507305,97.5 27.5,93.4705594 27.5,88.5 L27.5,88.5 L27.5043541,88.3511686 C27.60022,86.7137956 29.2750699,85.1827147 32.125619,83.8696058 Z" id="Combined-Shape" fill="#FFF8EB" fill-rule="nonzero"></path>
        <g id="空页面" transform="translate(30.000000, 21.500000)" fill="#FFAB00" fill-rule="nonzero">
            <path d="M60.0462755,33.1939919 L48.5074253,22.4574022 C48.134968,22.0786855 47.5914085,21.9138443 47.0530687,21.9138443 L13.9826349,21.9138443 C13.4442933,21.9138443 12.942469,22.1204171 12.5700099,22.4563586 L0.947660947,33.1950166 L0.947661075,33.1950165 C0.494581636,33.600747 0.238334836,34.1820566 0.244372475,34.7902145 L0.244372475,61.0917245 C0.244372475,63.7333514 2.36028604,65.9138443 5.01860925,65.9138443 L55.9816031,65.9138443 C58.5929767,65.9138443 60.7557319,63.7333514 60.7557319,61.0917245 L60.7557319,34.7902145 C60.7494721,34.1986677 60.4604788,33.6133729 60.0462874,33.1939705 L60.0462755,33.1939919 Z M39.211638,33.0291507 C38.4677659,33.0291507 37.8417907,33.6551312 37.8417907,34.4532503 C37.8417907,38.3948278 34.5209727,41.709367 30.580467,41.709367 C26.6388859,41.709367 23.3191433,38.3948101 23.3191433,34.4532503 C23.3191433,33.6968629 22.6973402,33.0291507 21.9472041,33.0291507 L5.7635627,33.0291507 L14.3957915,25.0572968 L46.6817029,25.0572968 L55.2315556,33.0280871 L39.2117208,33.0280871 L39.211638,33.0291507 Z M57.5528344,35.8773473 L57.5528344,61.0855169 C57.5528344,62.0077908 56.8496538,62.6817609 55.9753687,62.6817609 L5.01863867,62.6817609 C4.10262185,62.6817609 3.35874968,61.9660592 3.35874968,61.0855169 L3.35874968,35.8773473 L20.6232663,35.8773473 L20.623266,35.8773473 C20.9548289,38.0931899 22.0228077,40.1328636 23.6550883,41.6676448 L23.6550882,41.6676447 C25.5075622,43.4771562 27.9961281,44.4874908 30.5857259,44.481416 C33.1564137,44.481416 35.6081586,43.4767189 37.5163635,41.6676447 C39.1355609,40.0724466 40.2174644,38.0630522 40.5481858,35.8773473 L57.553933,35.8773473 L57.5528344,35.8773473 Z" id="Shape"></path>
            <path d="M12.9918555,13.7134137 L6.98768391,7.95194041 L6.98768381,7.9519403 C6.34558831,7.32879682 6.32176307,6.3058994 6.93414973,5.65353266 L6.93414963,5.65353277 C7.53694742,5.01184352 8.54580658,4.98031577 9.18749373,5.58311301 C9.19343693,5.58869599 9.19933722,5.5943245 9.205194,5.599998 L15.1998444,11.3614713 C15.8470145,11.9812794 15.8660495,13.0055649 15.2605166,13.6586863 L15.2605166,13.6586864 C14.6577296,14.3003857 13.6488731,14.331931 13.0071725,13.7291445 C13.0016311,13.7239392 12.996127,13.7186943 12.9906607,13.7134102 L12.9918555,13.7134137 Z" id="Path"></path>
            <path d="M29.5315896,11.1663703 L29.5315895,11.1663702 C29.2239738,10.8683906 29.0450797,10.46193 29.0331253,10.03382 L28.8189879,1.67174735 L28.8189878,1.67174431 C28.7922066,0.780593094 29.4889145,0.0345036021 30.3798111,0.000286608208 L30.3798111,0.000286608236 C31.2722165,-0.016326962 32.0102477,0.69139846 32.0310488,1.58370866 L32.2392376,9.94692686 C32.2535134,10.6000449 31.8823422,11.2067699 31.2898937,11.4696774 L31.2898938,11.4696774 C30.6965127,11.7376346 29.9997879,11.6175099 29.5303988,11.1663166 L29.5315896,11.1663703 Z" id="Path"></path>
            <path d="M45.1029642,13.4159995 L45.1029641,13.4159994 C44.7910939,13.1184281 44.6111843,12.7084933 44.6033106,12.2775061 L44.6033106,12.2775066 C44.5912548,11.8485146 44.7490126,11.4321016 45.0422919,11.118785 L50.7419131,5.04799757 L50.741913,5.04799768 C51.3443672,4.40598566 52.3532061,4.37391346 52.9952167,4.97636974 C53.0011727,4.98195874 53.0070857,4.98759343 53.0129551,4.99327326 C53.6529873,5.61308129 53.6791601,6.6373668 53.0664894,7.2916809 L47.3668682,13.3624683 C47.0694557,13.6717777 46.6649744,13.8549835 46.2414596,13.8680699 C45.8238919,13.8680699 45.4122728,13.7134155 45.1029652,13.4160026 L45.1029642,13.4159995 Z" id="Path"></path>
        </g>
    </g>
</svg>