<?xml version="1.0" encoding="UTF-8"?>
<svg width="24px" height="24px" viewBox="0 0 24 24" version="1.1" xmlns="http://www.w3.org/2000/svg" xmlns:xlink="http://www.w3.org/1999/xlink">
    <title>icon /web/24 / 多选 / 选中 </title>
    <g id="icon-/web/24-/-多选-/-选中-" stroke="none" stroke-width="1" fill="none" fill-rule="evenodd">
        <rect id="Rectangle" fill="#000000" opacity="0" x="0" y="0" width="24" height="24"></rect>
        <rect id="Rectangle" fill="#333333" x="3" y="3" width="18" height="18"></rect>
        <path d="M16.1220799,9.08638727 L16.1246242,9.08893153 L16.4171869,9.38502448 C16.5326531,9.50188393 16.5326531,9.6898772 16.4171869,9.80673666 L11.6662858,14.614948 C11.6656814,14.6155703 11.6650737,14.6161906 11.6644627,14.6168089 L11.3719,14.9129018 C11.3386278,14.9465755 11.2993561,14.970721 11.2574805,14.9853182 L11.1931386,15.0000501 L11.1931386,15.0000501 L11.1274373,15.0004441 C11.0619052,14.9936641 10.998154,14.9653543 10.9476435,14.9154461 C10.9467903,14.9146031 10.9459422,14.913755 10.9450993,14.9129018 L7.58281305,11.5100451 C7.46734686,11.3931857 7.46734686,11.2051924 7.58281305,11.0883329 L7.87537584,10.79224 C7.99182844,10.6743822 8.18177452,10.6732431 8.29963228,10.7896957 L8.30217654,10.79224 L11.158,13.683 L15.6978235,9.08893153 C15.8142761,8.97107377 16.0042221,8.96993466 16.1220799,9.08638727 Z" id="Combined-Shape" stroke="#FFFFFF" stroke-width="0.3" fill="#FFFFFF"></path>
    </g>
</svg>