<?xml version="1.0" standalone="no"?><!DOCTYPE svg PUBLIC "-//W3C//DTD SVG 1.1//EN" "http://www.w3.org/Graphics/SVG/1.1/DTD/svg11.dtd"><svg t="1603096409032" class="icon" viewBox="0 0 1621 1024" version="1.1" xmlns="http://www.w3.org/2000/svg" p-id="9875" width="75.984375" height="48" xmlns:xlink="http://www.w3.org/1999/xlink"><defs><style type="text/css"></style></defs><path d="M179.2 8.533333h1258.666667c93.866667 0 170.666667 76.8 170.666666 170.666667v661.333333c0 93.866667-76.8 170.666667-170.666666 170.666667H179.2c-93.866667 0-170.666667-76.8-170.666667-170.666667V179.2c0-93.866667 76.8-170.666667 170.666667-170.666667z" fill="#FFFFFF" p-id="9876"></path><path d="M1442.133333 1024H179.2C81.066667 1024 0 942.933333 0 844.8V179.2C0 81.066667 81.066667 0 179.2 0h1258.666667C1540.266667 0 1621.333333 81.066667 1621.333333 179.2v661.333333c0 102.4-81.066667 183.466667-179.2 183.466667zM179.2 21.333333C89.6 21.333333 17.066667 93.866667 17.066667 183.466667v661.333333c0 89.6 72.533333 162.133333 162.133333 162.133333h1258.666667c89.6 0 162.133333-72.533333 162.133333-162.133333V179.2c0-89.6-72.533333-162.133333-162.133333-162.133333H179.2z" fill="#D8D8D8" p-id="9877"></path><path d="M1207.466667 460.8H1194.666667c-17.066667 42.666667-29.866667 64-42.666667 123.733333h81.066667c-12.8-59.733333-12.8-89.6-25.6-123.733333z m123.733333 247.466667h-72.533333c-4.266667 0-4.266667 0-8.533334-4.266667l-8.533333-38.4-4.266667-8.533333h-102.4c-4.266667 0-8.533333 0-8.533333 8.533333l-12.8 38.4c0 4.266667-4.266667 4.266667-4.266667 4.266667h-89.6l8.533334-21.333334L1152 405.333333c0-21.333333 12.8-29.866667 34.133333-29.866666h64c4.266667 0 8.533333 0 8.533334 8.533333l59.733333 268.8c4.266667 17.066667 8.533333 29.866667 8.533333 46.933333 4.266667 4.266667 4.266667 4.266667 4.266667 8.533334z m-576-12.8l17.066667-76.8c4.266667 0 8.533333 4.266667 8.533333 4.266666 29.866667 12.8 59.733333 21.333333 89.6 17.066667 8.533333 0 21.333333-4.266667 29.866667-8.533333 21.333333-8.533333 21.333333-29.866667 4.266666-46.933334-8.533333-8.533333-21.333333-12.8-34.133333-21.333333-17.066667-8.533333-34.133333-17.066667-46.933333-29.866667-51.2-42.666667-34.133333-98.133333-4.266667-128 25.6-17.066667 38.4-34.133333 72.533333-34.133333 51.2 0 106.666667 0 132.266667 8.533333h4.266667c-4.266667 25.6-8.533333 46.933333-17.066667 72.533334-21.333333-8.533333-42.666667-17.066667-64-17.066667-12.8 0-25.6 0-38.4 4.266667-8.533333 0-12.8 4.266667-17.066667 8.533333-8.533333 8.533333-8.533333 21.333333 0 29.866667l21.333334 17.066666c17.066667 8.533333 34.133333 17.066667 46.933333 25.6 21.333333 12.8 42.666667 34.133333 46.933333 59.733334 8.533333 38.4-4.266667 72.533333-38.4 93.866666-21.333333 17.066667-29.866667 25.6-59.733333 25.6-59.733333 0-106.666667 4.266667-145.066667-8.533333-4.266667 8.533333-4.266667 8.533333-8.533333 4.266667z m-149.333333 12.8c4.266667-29.866667 4.266667-29.866667 8.533333-42.666667 21.333333-89.6 42.666667-187.733333 59.733333-277.333333 4.266667-8.533333 4.266667-12.8 12.8-12.8h76.8c-8.533333 51.2-17.066667 85.333333-29.866666 132.266666-12.8 64-25.6 123.733333-42.666667 187.733334 0 8.533333-4.266667 8.533333-12.8 8.533333l-72.533333 4.266667zM209.066667 384c0-4.266667 8.533333-8.533333 12.8-8.533333h145.066666c21.333333 0 38.4 12.8 42.666667 34.133333l38.4 183.466667c0 4.266667 0 4.266667 4.266667 8.533333 0-4.266667 4.266667-4.266667 4.266666-4.266667l89.6-213.333333c-4.266667-4.266667 0-8.533333 4.266667-8.533333H640c0 4.266667 0 4.266667-4.266667 8.533333l-132.266666 302.933333c-4.266667 8.533333-4.266667 12.8-8.533334 17.066667-4.266667 4.266667-12.8 0-21.333333 0H409.6c-4.266667 0-8.533333 0-8.533333-8.533333l-68.266667-256c-8.533333-12.8-21.333333-25.6-38.4-29.866667-25.6-8.533333-72.533333-17.066667-81.066667-17.066667L209.066667 384z" fill="#142688" p-id="9878"></path></svg>