<?xml version="1.0" encoding="UTF-8"?>
<svg width="30px" height="30px" viewBox="0 0 30 30" version="1.1" xmlns="http://www.w3.org/2000/svg" xmlns:xlink="http://www.w3.org/1999/xlink">
    <title>icon /web/30 / 分享</title>
    <g id="icon-/web/30-/-分享" stroke="none" stroke-width="1" fill="none" fill-rule="evenodd">
        <g id="Group" fill="#E9E9E9" opacity="0">
            <rect id="Rectangle" x="0" y="0" width="30" height="30"></rect>
        </g>
        <g id="Group-2" transform="translate(4.000000, 3.535534)" fill="#333333">
            <path d="M10.5,1.46446609 L11.5,1.46446609 C11.7761424,1.46446609 12,1.68832372 12,1.96446609 L12,14.9644661 C12,15.2406085 11.7761424,15.4644661 11.5,15.4644661 L10.5,15.4644661 C10.2238576,15.4644661 10,15.2406085 10,14.9644661 L10,1.96446609 C10,1.68832372 10.2238576,1.46446609 10.5,1.46446609 Z" id="Rectangle"></path>
            <rect id="Rectangle" transform="translate(8.792893, 4.000000) rotate(-315.000000) translate(-8.792893, -4.000000) " x="7.79289322" y="0" width="2" height="8" rx="0.5"></rect>
            <rect id="Rectangle" transform="translate(13.035534, 4.000000) scale(-1, 1) rotate(-315.000000) translate(-13.035534, -4.000000) " x="12.0355339" y="0" width="2" height="8" rx="0.5"></rect>
            <path d="M0,9.96446609 C-3.38176876e-17,9.68832372 0.223857625,9.46446609 0.5,9.46446609 L1.5,9.46446609 C1.77614237,9.46446609 2,9.68832372 2,9.96446609 L2,17.4644661 C2,18.5690356 2.8954305,19.4644661 4,19.4644661 L4,19.4644661 L18,19.4644661 C19.1045695,19.4644661 20,18.5690356 20,17.4644661 L20,17.4644661 L20,9.96446609 C20,9.68832372 20.2238576,9.46446609 20.5,9.46446609 L21.5,9.46446609 C21.7761424,9.46446609 22,9.68832372 22,9.96446609 L22,17.4644661 C22,19.6736051 20.209139,21.4644661 18,21.4644661 L18,21.4644661 L4,21.4644661 C1.790861,21.4644661 -1.73547709e-16,19.6736051 0,17.4644661 L0,17.4644661 L0,9.96446609 Z" id="Combined-Shape" fill-rule="nonzero"></path>
        </g>
    </g>
</svg>