<?xml version="1.0" encoding="UTF-8"?>
<svg width="120px" height="120px" viewBox="0 0 120 120" version="1.1" xmlns="http://www.w3.org/2000/svg" xmlns:xlink="http://www.w3.org/1999/xlink">
    <title>通用/状态插画/下架</title>
    <g id="通用/状态插画/下架" stroke="none" stroke-width="1" fill="none" fill-rule="evenodd">
        <g id="Group-4" transform="translate(23.752427, 20.000000)">
            <path d="M1.15920266,67.6368705 L1.15920266,67.6368721 C1.15920266,73.5672267 16.6398769,78.3747362 35.7362922,78.3747362 C54.8327074,78.3747362 70.3133816,73.5672267 70.3133816,67.6368721 L70.3133816,67.6368721 C70.3133816,61.7065175 54.8327074,56.899008 35.7362922,56.899008 C16.6398769,56.899008 1.15920266,61.7065175 1.15920266,67.6368721 L1.15920266,67.6368705 Z" id="路径" fill="#FFF8EB" fill-rule="nonzero"></path>
            <g id="Group-2" transform="translate(0.000000, 17.234657)" fill="#FFFFFF" stroke="#FFAB00" stroke-linejoin="round" stroke-width="2.4">
                <polygon id="Path-8" points="8.04032469 9.04202884 8.04032469 43.799927 38.4641739 53.6755011 38.4641739 18.0840577"></polygon>
                <polygon id="Path-8" points="8.04032469 9.04202884 -1.98165615e-13 21.1788124 30.4238492 31.0543865 38.4641739 18.0840577"></polygon>
                <polygon id="Path-8" transform="translate(50.887165, 31.358765) scale(-1, 1) translate(-50.887165, -31.358765) " points="38.4641739 9.04202884 38.4641739 43.799927 63.310157 53.6755011 63.310157 18.0840577"></polygon>
                <polygon id="Path-8" transform="translate(55.505359, 19.482905) scale(-1, 1) translate(-55.505359, -19.482905) " points="47.7005608 9.04202884 38.4641739 20.0482077 63.310157 29.9237818 72.5465438 18.0840577"></polygon>
                <polygon id="Rectangle" points="33.8159521 6.77065852e-14 63.310157 9.04202884 38.4641739 18.0840577 8.04032469 9.04202884"></polygon>
            </g>
            <g id="Group-3" transform="translate(13.459348, 0.000000)" fill="#FFAB00" fill-rule="nonzero">
                <path d="M5.69149112,12.0043021 L0.435623286,6.96088494 L0.435623191,6.96088485 C-0.126447527,6.41540414 -0.14730341,5.51999108 0.388761098,4.94892924 L0.388761011,4.94892933 C0.916431731,4.38721422 1.79955612,4.3596158 2.36126939,4.88728603 C2.36647188,4.8921732 2.37163681,4.89710023 2.37676366,4.90206663 L7.62429693,9.94548383 C8.1908098,10.4880448 8.20747244,11.3846729 7.67740753,11.9563954 L7.67740748,11.9563955 C7.1497462,12.5181194 6.26662417,12.5457332 5.70489911,12.0180724 C5.70004835,12.0135158 5.69523024,12.0089245 5.69044521,12.004299 L5.69149112,12.0043021 Z" id="Path"></path>
                <path d="M21.9206061,9.77469832 L21.9206061,9.77469827 C21.6513288,9.51385605 21.4947303,9.15805293 21.4842658,8.78329857 L21.2968165,1.4633964 L21.2968164,1.46339374 C21.2733729,0.683307272 21.8832497,0.0302033959 22.6631133,0.000250888041 L22.6631133,0.000250888066 C23.4442976,-0.0142921221 24.0903475,0.605229023 24.1085561,1.38633003 L24.2907983,8.70723495 C24.3032949,9.27895447 23.9783829,9.81006293 23.4597717,10.0402041 L23.4597717,10.0402041 C22.9403442,10.2747656 22.3304526,10.1696122 21.9195637,9.77465136 L21.9206061,9.77469832 Z" id="Path"></path>
                <path d="M37.302049,11.7439548 L37.3020489,11.7439547 C37.0290473,11.4834699 36.87156,11.1246256 36.8646676,10.7473525 L36.8646676,10.7473531 C36.8541143,10.3718266 36.9922106,10.0073114 37.2489383,9.73304364 L42.2382121,4.41886238 L42.238212,4.41886247 C42.7655819,3.85686482 43.6486886,3.8287898 44.210685,4.35616157 C44.2158987,4.361054 44.2210747,4.36598644 44.2262126,4.37095839 C44.7864772,4.91351934 44.8093881,5.81014749 44.2730749,6.382914 L39.2838012,11.6970953 C39.0234553,11.9678552 38.6693849,12.1282279 38.2986529,12.1396834 C37.933127,12.1396834 37.5728083,12.0043037 37.3020498,11.7439575 L37.302049,11.7439548 Z" id="Path"></path>
            </g>
        </g>
    </g>
</svg>